<mxfile host="app.diagrams.net" agent="Mozilla/5.0 (Windows NT 10.0; Win64; x64) AppleWebKit/537.36 (KHTML, like Gecko) Chrome/129.0.0.0 Safari/537.36 Edg/129.0.0.0" version="24.7.14" pages="3">
  <diagram id="Z_uPTBXrWIDv8vm9eJpu" name="Ejercicio.3">
    <mxGraphModel dx="1266" dy="843" grid="0" gridSize="10" guides="1" tooltips="1" connect="1" arrows="1" fold="1" page="0" pageScale="1" pageWidth="827" pageHeight="1169" math="0" shadow="0">
      <root>
        <mxCell id="0" />
        <mxCell id="1" parent="0" />
        <mxCell id="xT8Xn2Ky_uMiQJ4-EyJV-1" value="clientes" style="rounded=0;whiteSpace=wrap;html=1;" parent="1" vertex="1">
          <mxGeometry x="497" y="414" width="120" height="60" as="geometry" />
        </mxCell>
        <mxCell id="xT8Xn2Ky_uMiQJ4-EyJV-2" value="clienteXcuenta" style="rounded=0;whiteSpace=wrap;html=1;" parent="1" vertex="1">
          <mxGeometry x="722" y="304" width="120" height="60" as="geometry" />
        </mxCell>
        <mxCell id="xT8Xn2Ky_uMiQJ4-EyJV-3" value="cuentas" style="rounded=0;whiteSpace=wrap;html=1;" parent="1" vertex="1">
          <mxGeometry x="909" y="419" width="120" height="60" as="geometry" />
        </mxCell>
        <mxCell id="xT8Xn2Ky_uMiQJ4-EyJV-5" value="transaccion" style="rounded=0;whiteSpace=wrap;html=1;" parent="1" vertex="1">
          <mxGeometry x="1167" y="609" width="120" height="49" as="geometry" />
        </mxCell>
        <mxCell id="xT8Xn2Ky_uMiQJ4-EyJV-7" value="" style="edgeStyle=entityRelationEdgeStyle;fontSize=12;html=1;endArrow=ERoneToMany;rounded=0;startSize=8;endSize=8;curved=1;" parent="1" edge="1">
          <mxGeometry width="100" height="100" relative="1" as="geometry">
            <mxPoint x="613" y="432" as="sourcePoint" />
            <mxPoint x="713" y="332" as="targetPoint" />
          </mxGeometry>
        </mxCell>
        <mxCell id="xT8Xn2Ky_uMiQJ4-EyJV-8" value="" style="edgeStyle=entityRelationEdgeStyle;fontSize=12;html=1;endArrow=ERoneToMany;rounded=0;startSize=8;endSize=8;curved=1;" parent="1" target="xT8Xn2Ky_uMiQJ4-EyJV-2" edge="1">
          <mxGeometry width="100" height="100" relative="1" as="geometry">
            <mxPoint x="981" y="411" as="sourcePoint" />
            <mxPoint x="1071" y="319" as="targetPoint" />
          </mxGeometry>
        </mxCell>
        <mxCell id="xT8Xn2Ky_uMiQJ4-EyJV-10" value="sucursal" style="rounded=0;whiteSpace=wrap;html=1;" parent="1" vertex="1">
          <mxGeometry x="1332" y="411" width="120" height="60" as="geometry" />
        </mxCell>
        <mxCell id="xT8Xn2Ky_uMiQJ4-EyJV-12" value="" style="edgeStyle=entityRelationEdgeStyle;fontSize=12;html=1;endArrow=ERoneToMany;rounded=0;startSize=8;endSize=8;curved=1;exitX=0;exitY=0.75;exitDx=0;exitDy=0;" parent="1" source="xT8Xn2Ky_uMiQJ4-EyJV-10" edge="1">
          <mxGeometry width="100" height="100" relative="1" as="geometry">
            <mxPoint x="1674" y="692" as="sourcePoint" />
            <mxPoint x="1031" y="441" as="targetPoint" />
          </mxGeometry>
        </mxCell>
        <mxCell id="xT8Xn2Ky_uMiQJ4-EyJV-14" value="" style="edgeStyle=entityRelationEdgeStyle;fontSize=12;html=1;endArrow=ERoneToMany;rounded=0;startSize=8;endSize=8;curved=1;" parent="1" target="xT8Xn2Ky_uMiQJ4-EyJV-5" edge="1">
          <mxGeometry width="100" height="100" relative="1" as="geometry">
            <mxPoint x="1035" y="474" as="sourcePoint" />
            <mxPoint x="1118" y="396" as="targetPoint" />
            <Array as="points">
              <mxPoint x="1516" y="518" />
            </Array>
          </mxGeometry>
        </mxCell>
        <mxCell id="xT8Xn2Ky_uMiQJ4-EyJV-15" value="&lt;u&gt;dni_cl&lt;/u&gt;" style="text;html=1;align=center;verticalAlign=middle;resizable=0;points=[];autosize=1;strokeColor=none;fillColor=none;fontSize=16;" parent="1" vertex="1">
          <mxGeometry x="483" y="1030" width="60" height="31" as="geometry" />
        </mxCell>
        <mxCell id="xT8Xn2Ky_uMiQJ4-EyJV-16" value="Ncuenta_cu" style="text;html=1;align=center;verticalAlign=middle;resizable=0;points=[];autosize=1;strokeColor=none;fillColor=none;fontSize=16;fontStyle=4" parent="1" vertex="1">
          <mxGeometry x="898" y="383" width="103" height="31" as="geometry" />
        </mxCell>
        <mxCell id="xT8Xn2Ky_uMiQJ4-EyJV-17" value="Nsucursal_su" style="text;html=1;align=center;verticalAlign=middle;resizable=0;points=[];autosize=1;strokeColor=none;fillColor=none;fontSize=16;fontStyle=4" parent="1" vertex="1">
          <mxGeometry x="1315.5" y="372.5" width="115" height="31" as="geometry" />
        </mxCell>
        <mxCell id="xT8Xn2Ky_uMiQJ4-EyJV-18" value="Ntransaccion_tr" style="text;html=1;align=center;verticalAlign=middle;resizable=0;points=[];autosize=1;strokeColor=none;fillColor=none;fontSize=16;fontStyle=4" parent="1" vertex="1">
          <mxGeometry x="1136.5" y="577.5" width="130" height="31" as="geometry" />
        </mxCell>
        <mxCell id="xT8Xn2Ky_uMiQJ4-EyJV-19" value="clientes" style="rounded=0;whiteSpace=wrap;html=1;" parent="1" vertex="1">
          <mxGeometry x="483" y="956" width="120" height="60" as="geometry" />
        </mxCell>
        <mxCell id="xT8Xn2Ky_uMiQJ4-EyJV-20" value="clienteXcuenta" style="rounded=0;whiteSpace=wrap;html=1;" parent="1" vertex="1">
          <mxGeometry x="706" y="958" width="120" height="60" as="geometry" />
        </mxCell>
        <mxCell id="xT8Xn2Ky_uMiQJ4-EyJV-21" value="cuenta" style="rounded=0;whiteSpace=wrap;html=1;" parent="1" vertex="1">
          <mxGeometry x="942" y="958" width="120" height="60" as="geometry" />
        </mxCell>
        <mxCell id="xT8Xn2Ky_uMiQJ4-EyJV-22" value="transaccion" style="rounded=0;whiteSpace=wrap;html=1;" parent="1" vertex="1">
          <mxGeometry x="1141.5" y="967" width="120" height="49" as="geometry" />
        </mxCell>
        <mxCell id="xT8Xn2Ky_uMiQJ4-EyJV-24" value="sucursal" style="rounded=0;whiteSpace=wrap;html=1;" parent="1" vertex="1">
          <mxGeometry x="1561" y="956" width="120" height="60" as="geometry" />
        </mxCell>
        <mxCell id="xT8Xn2Ky_uMiQJ4-EyJV-26" value="Nombre_cl&lt;br&gt;Apellido_cl&lt;br&gt;Direccion_cl" style="text;html=1;align=center;verticalAlign=middle;resizable=0;points=[];autosize=1;strokeColor=none;fillColor=none;fontSize=16;" parent="1" vertex="1">
          <mxGeometry x="460.5" y="1048" width="105" height="70" as="geometry" />
        </mxCell>
        <mxCell id="xT8Xn2Ky_uMiQJ4-EyJV-27" value="Ncuenta_cu" style="text;html=1;align=center;verticalAlign=middle;resizable=0;points=[];autosize=1;strokeColor=none;fillColor=none;fontSize=16;fontStyle=4" parent="1" vertex="1">
          <mxGeometry x="950.5" y="1027" width="103" height="31" as="geometry" />
        </mxCell>
        <mxCell id="xT8Xn2Ky_uMiQJ4-EyJV-28" value="&lt;u&gt;Nsucursal_cu(FK)&lt;/u&gt;&lt;br&gt;tipoCuenta_cu(opciones)&lt;div&gt;Ncbu_cu&lt;/div&gt;" style="text;html=1;align=center;verticalAlign=middle;resizable=0;points=[];autosize=1;strokeColor=none;fillColor=none;fontSize=16;" parent="1" vertex="1">
          <mxGeometry x="904" y="1055" width="196" height="70" as="geometry" />
        </mxCell>
        <mxCell id="xT8Xn2Ky_uMiQJ4-EyJV-29" value="Nsucursal_su" style="text;html=1;align=center;verticalAlign=middle;resizable=0;points=[];autosize=1;strokeColor=none;fillColor=none;fontSize=16;fontStyle=4" parent="1" vertex="1">
          <mxGeometry x="1572" y="1030" width="115" height="31" as="geometry" />
        </mxCell>
        <mxCell id="xT8Xn2Ky_uMiQJ4-EyJV-30" value="Direccion_su" style="text;html=1;align=center;verticalAlign=middle;resizable=0;points=[];autosize=1;strokeColor=none;fillColor=none;fontSize=16;" parent="1" vertex="1">
          <mxGeometry x="1535.5" y="1059.5" width="110" height="31" as="geometry" />
        </mxCell>
        <mxCell id="xT8Xn2Ky_uMiQJ4-EyJV-31" value="Ntransaccion_tr&lt;div&gt;Ncuenta_tr(fk)&lt;/div&gt;" style="text;html=1;align=center;verticalAlign=middle;resizable=0;points=[];autosize=1;strokeColor=none;fillColor=none;fontSize=16;fontStyle=4" parent="1" vertex="1">
          <mxGeometry x="1131.5" y="1026" width="130" height="50" as="geometry" />
        </mxCell>
        <mxCell id="xT8Xn2Ky_uMiQJ4-EyJV-34" value="transaccion_tr(opciones)&lt;br&gt;NcbuDestino_tr&lt;div&gt;Monto_tr&lt;/div&gt;&lt;div&gt;fecha_tr&lt;br&gt;&lt;div&gt;&lt;div&gt;&lt;br&gt;&lt;/div&gt;&lt;/div&gt;&lt;/div&gt;" style="text;html=1;align=center;verticalAlign=middle;resizable=0;points=[];autosize=1;strokeColor=none;fillColor=none;fontSize=16;" parent="1" vertex="1">
          <mxGeometry x="1111" y="1069" width="193" height="108" as="geometry" />
        </mxCell>
        <mxCell id="qIhKQmOhZb9v3yAkzEXP-1" value="clientes" style="rounded=0;whiteSpace=wrap;html=1;" parent="1" vertex="1">
          <mxGeometry x="497" y="414" width="120" height="60" as="geometry" />
        </mxCell>
        <mxCell id="qIhKQmOhZb9v3yAkzEXP-2" value="clienteXcuenta" style="rounded=0;whiteSpace=wrap;html=1;" parent="1" vertex="1">
          <mxGeometry x="722" y="304" width="120" height="60" as="geometry" />
        </mxCell>
        <mxCell id="qIhKQmOhZb9v3yAkzEXP-3" value="cuentas" style="rounded=0;whiteSpace=wrap;html=1;" parent="1" vertex="1">
          <mxGeometry x="909" y="419" width="120" height="60" as="geometry" />
        </mxCell>
        <mxCell id="qIhKQmOhZb9v3yAkzEXP-4" value="transaccion" style="rounded=0;whiteSpace=wrap;html=1;" parent="1" vertex="1">
          <mxGeometry x="1167" y="609" width="120" height="49" as="geometry" />
        </mxCell>
        <mxCell id="qIhKQmOhZb9v3yAkzEXP-5" value="" style="edgeStyle=entityRelationEdgeStyle;fontSize=12;html=1;endArrow=ERoneToMany;rounded=0;startSize=8;endSize=8;curved=1;" parent="1" edge="1">
          <mxGeometry width="100" height="100" relative="1" as="geometry">
            <mxPoint x="613" y="432" as="sourcePoint" />
            <mxPoint x="713" y="332" as="targetPoint" />
          </mxGeometry>
        </mxCell>
        <mxCell id="qIhKQmOhZb9v3yAkzEXP-6" value="" style="edgeStyle=entityRelationEdgeStyle;fontSize=12;html=1;endArrow=ERoneToMany;rounded=0;startSize=8;endSize=8;curved=1;" parent="1" target="qIhKQmOhZb9v3yAkzEXP-2" edge="1">
          <mxGeometry width="100" height="100" relative="1" as="geometry">
            <mxPoint x="981" y="411" as="sourcePoint" />
            <mxPoint x="1071" y="319" as="targetPoint" />
          </mxGeometry>
        </mxCell>
        <mxCell id="qIhKQmOhZb9v3yAkzEXP-7" value="sucursal" style="rounded=0;whiteSpace=wrap;html=1;" parent="1" vertex="1">
          <mxGeometry x="1332" y="411" width="120" height="60" as="geometry" />
        </mxCell>
        <mxCell id="qIhKQmOhZb9v3yAkzEXP-8" value="" style="edgeStyle=entityRelationEdgeStyle;fontSize=12;html=1;endArrow=ERoneToMany;rounded=0;startSize=8;endSize=8;curved=1;exitX=0;exitY=0.75;exitDx=0;exitDy=0;" parent="1" source="qIhKQmOhZb9v3yAkzEXP-7" edge="1">
          <mxGeometry width="100" height="100" relative="1" as="geometry">
            <mxPoint x="1674" y="692" as="sourcePoint" />
            <mxPoint x="1031" y="441" as="targetPoint" />
          </mxGeometry>
        </mxCell>
        <mxCell id="qIhKQmOhZb9v3yAkzEXP-9" value="" style="edgeStyle=entityRelationEdgeStyle;fontSize=12;html=1;endArrow=ERoneToMany;rounded=0;startSize=8;endSize=8;curved=1;" parent="1" target="qIhKQmOhZb9v3yAkzEXP-4" edge="1">
          <mxGeometry width="100" height="100" relative="1" as="geometry">
            <mxPoint x="1035" y="474" as="sourcePoint" />
            <mxPoint x="1118" y="396" as="targetPoint" />
            <Array as="points">
              <mxPoint x="1516" y="518" />
            </Array>
          </mxGeometry>
        </mxCell>
        <mxCell id="qIhKQmOhZb9v3yAkzEXP-10" value="&lt;u&gt;dni_cl&lt;/u&gt;" style="text;html=1;align=center;verticalAlign=middle;resizable=0;points=[];autosize=1;strokeColor=none;fillColor=none;fontSize=16;" parent="1" vertex="1">
          <mxGeometry x="483" y="1030" width="60" height="31" as="geometry" />
        </mxCell>
        <mxCell id="qIhKQmOhZb9v3yAkzEXP-11" value="Ncuenta_cu" style="text;html=1;align=center;verticalAlign=middle;resizable=0;points=[];autosize=1;strokeColor=none;fillColor=none;fontSize=16;fontStyle=4" parent="1" vertex="1">
          <mxGeometry x="898" y="383" width="103" height="31" as="geometry" />
        </mxCell>
        <mxCell id="qIhKQmOhZb9v3yAkzEXP-12" value="Nsucursal_su" style="text;html=1;align=center;verticalAlign=middle;resizable=0;points=[];autosize=1;strokeColor=none;fillColor=none;fontSize=16;fontStyle=4" parent="1" vertex="1">
          <mxGeometry x="1315.5" y="372.5" width="115" height="31" as="geometry" />
        </mxCell>
        <mxCell id="qIhKQmOhZb9v3yAkzEXP-13" value="Ntransaccion_tr" style="text;html=1;align=center;verticalAlign=middle;resizable=0;points=[];autosize=1;strokeColor=none;fillColor=none;fontSize=16;fontStyle=4" parent="1" vertex="1">
          <mxGeometry x="1136.5" y="577.5" width="130" height="31" as="geometry" />
        </mxCell>
        <mxCell id="qIhKQmOhZb9v3yAkzEXP-14" value="clientes" style="rounded=0;whiteSpace=wrap;html=1;" parent="1" vertex="1">
          <mxGeometry x="483" y="956" width="120" height="60" as="geometry" />
        </mxCell>
        <mxCell id="qIhKQmOhZb9v3yAkzEXP-15" value="clienteXcuenta" style="rounded=0;whiteSpace=wrap;html=1;" parent="1" vertex="1">
          <mxGeometry x="706" y="958" width="120" height="60" as="geometry" />
        </mxCell>
        <mxCell id="qIhKQmOhZb9v3yAkzEXP-16" value="cuenta" style="rounded=0;whiteSpace=wrap;html=1;" parent="1" vertex="1">
          <mxGeometry x="942" y="958" width="120" height="60" as="geometry" />
        </mxCell>
        <mxCell id="qIhKQmOhZb9v3yAkzEXP-17" value="transaccion" style="rounded=0;whiteSpace=wrap;html=1;" parent="1" vertex="1">
          <mxGeometry x="1141.5" y="967" width="120" height="49" as="geometry" />
        </mxCell>
        <mxCell id="qIhKQmOhZb9v3yAkzEXP-18" value="sucursal" style="rounded=0;whiteSpace=wrap;html=1;" parent="1" vertex="1">
          <mxGeometry x="1561" y="956" width="120" height="60" as="geometry" />
        </mxCell>
        <mxCell id="qIhKQmOhZb9v3yAkzEXP-19" value="Nombre_cl&lt;br&gt;Apellido_cl&lt;br&gt;Direccion_cl" style="text;html=1;align=center;verticalAlign=middle;resizable=0;points=[];autosize=1;strokeColor=none;fillColor=none;fontSize=16;" parent="1" vertex="1">
          <mxGeometry x="460.5" y="1048" width="105" height="70" as="geometry" />
        </mxCell>
        <mxCell id="qIhKQmOhZb9v3yAkzEXP-20" value="Ncuenta_cu" style="text;html=1;align=center;verticalAlign=middle;resizable=0;points=[];autosize=1;strokeColor=none;fillColor=none;fontSize=16;fontStyle=4" parent="1" vertex="1">
          <mxGeometry x="950.5" y="1027" width="103" height="31" as="geometry" />
        </mxCell>
        <mxCell id="qIhKQmOhZb9v3yAkzEXP-21" value="&lt;u&gt;Nsucursal_cu(FK)&lt;/u&gt;&lt;br&gt;tipoCuenta_cu(opciones)&lt;div&gt;Ncbu_cu&lt;/div&gt;" style="text;html=1;align=center;verticalAlign=middle;resizable=0;points=[];autosize=1;strokeColor=none;fillColor=none;fontSize=16;" parent="1" vertex="1">
          <mxGeometry x="904" y="1055" width="196" height="70" as="geometry" />
        </mxCell>
        <mxCell id="qIhKQmOhZb9v3yAkzEXP-22" value="Nsucursal_su" style="text;html=1;align=center;verticalAlign=middle;resizable=0;points=[];autosize=1;strokeColor=none;fillColor=none;fontSize=16;fontStyle=4" parent="1" vertex="1">
          <mxGeometry x="1572" y="1030" width="115" height="31" as="geometry" />
        </mxCell>
        <mxCell id="qIhKQmOhZb9v3yAkzEXP-23" value="Direccion_su" style="text;html=1;align=center;verticalAlign=middle;resizable=0;points=[];autosize=1;strokeColor=none;fillColor=none;fontSize=16;" parent="1" vertex="1">
          <mxGeometry x="1535.5" y="1059.5" width="110" height="31" as="geometry" />
        </mxCell>
        <mxCell id="qIhKQmOhZb9v3yAkzEXP-24" value="Ntransaccion_tr&lt;div&gt;Ncuenta_tr(fk)&lt;/div&gt;" style="text;html=1;align=center;verticalAlign=middle;resizable=0;points=[];autosize=1;strokeColor=none;fillColor=none;fontSize=16;fontStyle=4" parent="1" vertex="1">
          <mxGeometry x="1131.5" y="1026" width="130" height="50" as="geometry" />
        </mxCell>
        <mxCell id="qIhKQmOhZb9v3yAkzEXP-25" value="transaccion_tr(opciones)&lt;br&gt;NcbuDestino_tr&lt;div&gt;Monto_tr&lt;/div&gt;&lt;div&gt;fecha_tr&lt;br&gt;&lt;div&gt;&lt;div&gt;&lt;br&gt;&lt;/div&gt;&lt;/div&gt;&lt;/div&gt;" style="text;html=1;align=center;verticalAlign=middle;resizable=0;points=[];autosize=1;strokeColor=none;fillColor=none;fontSize=16;" parent="1" vertex="1">
          <mxGeometry x="1111" y="1069" width="193" height="108" as="geometry" />
        </mxCell>
        <mxCell id="qIhKQmOhZb9v3yAkzEXP-26" value="dni_cli" style="text;html=1;align=center;verticalAlign=middle;resizable=0;points=[];autosize=1;strokeColor=none;fillColor=none;fontSize=16;" parent="1" vertex="1">
          <mxGeometry x="491.5" y="481.5" width="63" height="31" as="geometry" />
        </mxCell>
      </root>
    </mxGraphModel>
  </diagram>
  <diagram id="jP0rF03ejTT5181DmryH" name="Página-2">
    <mxGraphModel dx="3009" dy="1392" grid="0" gridSize="10" guides="1" tooltips="1" connect="1" arrows="1" fold="1" page="0" pageScale="1" pageWidth="827" pageHeight="1169" math="0" shadow="0">
      <root>
        <mxCell id="0" />
        <mxCell id="1" parent="0" />
        <mxCell id="_RY1uGZdvzKGK2o-vaD--3" value="" style="edgeStyle=entityRelationEdgeStyle;fontSize=12;html=1;endArrow=ERoneToMany;rounded=0;startSize=8;endSize=8;curved=1;" edge="1" parent="1" target="_RY1uGZdvzKGK2o-vaD--2">
          <mxGeometry width="100" height="100" relative="1" as="geometry">
            <mxPoint x="-321" y="40" as="sourcePoint" />
            <mxPoint x="-457" y="40" as="targetPoint" />
            <Array as="points">
              <mxPoint x="-369" y="33" />
              <mxPoint x="-355" y="31" />
              <mxPoint x="-359" y="29" />
              <mxPoint x="-432" y="37" />
              <mxPoint x="-449" y="-37" />
              <mxPoint x="-351" y="31" />
              <mxPoint x="-380" y="-18" />
              <mxPoint x="-439" y="-29" />
              <mxPoint x="-427" y="-15" />
              <mxPoint x="-406" y="12" />
              <mxPoint x="-459" y="-34" />
              <mxPoint x="-484" y="-71" />
              <mxPoint x="-354" y="30" />
              <mxPoint x="-434" y="35" />
              <mxPoint x="-410" y="-49" />
              <mxPoint x="-368" y="39" />
              <mxPoint x="-377" y="38" />
            </Array>
          </mxGeometry>
        </mxCell>
        <mxCell id="_RY1uGZdvzKGK2o-vaD--1" value="pasajeros" style="rounded=0;whiteSpace=wrap;html=1;" vertex="1" parent="1">
          <mxGeometry x="-314" y="23" width="120" height="60" as="geometry" />
        </mxCell>
        <mxCell id="_RY1uGZdvzKGK2o-vaD--2" value="viajes" style="rounded=0;whiteSpace=wrap;html=1;" vertex="1" parent="1">
          <mxGeometry x="-185" y="-101" width="120" height="60" as="geometry" />
        </mxCell>
        <mxCell id="_RY1uGZdvzKGK2o-vaD--4" value="aviones" style="rounded=0;whiteSpace=wrap;html=1;" vertex="1" parent="1">
          <mxGeometry x="172" y="-66" width="120" height="60" as="geometry" />
        </mxCell>
        <mxCell id="_RY1uGZdvzKGK2o-vaD--5" value="paises" style="rounded=0;whiteSpace=wrap;html=1;" vertex="1" parent="1">
          <mxGeometry x="401" y="-66" width="120" height="60" as="geometry" />
        </mxCell>
        <mxCell id="_RY1uGZdvzKGK2o-vaD--7" value="empleados" style="rounded=0;whiteSpace=wrap;html=1;" vertex="1" parent="1">
          <mxGeometry x="-51" y="28" width="120" height="60" as="geometry" />
        </mxCell>
        <mxCell id="_RY1uGZdvzKGK2o-vaD--8" value="pasajeros&lt;div&gt;&lt;br&gt;&lt;/div&gt;&lt;div&gt;&lt;br&gt;&lt;div&gt;&lt;u&gt;dni_pa(PK)&lt;/u&gt;&lt;/div&gt;&lt;div&gt;&lt;u&gt;tipoPasaje_pa(FK)&lt;/u&gt;&lt;/div&gt;&lt;/div&gt;" style="text;html=1;align=center;verticalAlign=middle;resizable=0;points=[];autosize=1;strokeColor=none;fillColor=none;fontSize=16;" vertex="1" parent="1">
          <mxGeometry x="-582.5" y="297.5" width="151" height="108" as="geometry" />
        </mxCell>
        <mxCell id="_RY1uGZdvzKGK2o-vaD--9" value="empelados&lt;div&gt;&lt;br&gt;&lt;div&gt;&lt;u&gt;cogEmpleado_emPK)&lt;/u&gt;&lt;/div&gt;&lt;div&gt;&lt;u&gt;tipoPasaje_em(FK)&lt;/u&gt;&lt;br&gt;&lt;div&gt;&lt;br&gt;&lt;/div&gt;&lt;div&gt;&lt;br&gt;&lt;/div&gt;&lt;/div&gt;&lt;/div&gt;" style="text;html=1;align=center;verticalAlign=middle;resizable=0;points=[];autosize=1;strokeColor=none;fillColor=none;fontSize=16;" vertex="1" parent="1">
          <mxGeometry x="184" y="284" width="174" height="127" as="geometry" />
        </mxCell>
        <mxCell id="_RY1uGZdvzKGK2o-vaD--10" value="viajes&lt;div&gt;&lt;br&gt;&lt;div&gt;topoPasaje_vi&lt;span style=&quot;background-color: initial;&quot;&gt;(PK )&amp;nbsp; &amp;nbsp;&lt;/span&gt;&lt;/div&gt;&lt;/div&gt;&lt;div&gt;nombreDestino_vi&lt;/div&gt;&lt;div&gt;dec&lt;/div&gt;" style="text;html=1;align=center;verticalAlign=middle;resizable=0;points=[];autosize=1;strokeColor=none;fillColor=none;fontSize=16;fontStyle=4" vertex="1" parent="1">
          <mxGeometry x="-406" y="303" width="168" height="108" as="geometry" />
        </mxCell>
        <mxCell id="_RY1uGZdvzKGK2o-vaD--17" value="aviones&lt;div&gt;&lt;br&gt;&lt;/div&gt;&lt;div&gt;nunVuelo_av(PK)&lt;/div&gt;&lt;div&gt;codEmpleado_av(FK)&lt;br&gt;cidiPAis_av(FK)&lt;/div&gt;" style="text;html=1;align=center;verticalAlign=middle;resizable=0;points=[];autosize=1;strokeColor=none;fillColor=none;fontSize=16;" vertex="1" parent="1">
          <mxGeometry x="-199" y="294" width="173" height="108" as="geometry" />
        </mxCell>
        <mxCell id="_RY1uGZdvzKGK2o-vaD--19" value="&lt;b&gt;&lt;font style=&quot;background-color: rgb(51, 51, 255);&quot; color=&quot;#ff26b0&quot;&gt;diccionario de datos&lt;/font&gt;&lt;/b&gt;" style="text;html=1;align=center;verticalAlign=middle;resizable=0;points=[];autosize=1;strokeColor=none;fillColor=none;fontSize=16;" vertex="1" parent="1">
          <mxGeometry x="-642.5" y="190.5" width="174" height="31" as="geometry" />
        </mxCell>
        <mxCell id="_RY1uGZdvzKGK2o-vaD--20" value="paises&lt;br&gt;&lt;br&gt;&lt;div&gt;codigoPais_pa(PK)&lt;/div&gt;" style="text;html=1;align=center;verticalAlign=middle;resizable=0;points=[];autosize=1;strokeColor=none;fillColor=none;fontSize=16;" vertex="1" parent="1">
          <mxGeometry x="452.5" y="267.5" width="155" height="70" as="geometry" />
        </mxCell>
        <mxCell id="_RY1uGZdvzKGK2o-vaD--21" value="" style="edgeStyle=entityRelationEdgeStyle;fontSize=12;html=1;endArrow=ERoneToMany;rounded=0;startSize=8;endSize=8;curved=1;exitX=0;exitY=0.5;exitDx=0;exitDy=0;entryX=0.5;entryY=1;entryDx=0;entryDy=0;" edge="1" parent="1" source="_RY1uGZdvzKGK2o-vaD--5" target="_RY1uGZdvzKGK2o-vaD--4">
          <mxGeometry width="100" height="100" relative="1" as="geometry">
            <mxPoint x="390" y="-37" as="sourcePoint" />
            <mxPoint x="295" y="-36" as="targetPoint" />
            <Array as="points">
              <mxPoint x="391" y="-6" />
              <mxPoint x="374.5" y="-43.59" />
              <mxPoint x="278" y="21" />
              <mxPoint x="332" y="9" />
              <mxPoint x="340" y="1" />
              <mxPoint x="388.5" y="-45.59" />
              <mxPoint x="384.5" y="-47.59" />
              <mxPoint x="269" y="-11" />
              <mxPoint x="317" y="-17" />
              <mxPoint x="311.5" y="-39.59" />
              <mxPoint x="294.5" y="-113.59" />
              <mxPoint x="392.5" y="-45.59" />
              <mxPoint x="363.5" y="-94.59" />
              <mxPoint x="304.5" y="-105.59" />
              <mxPoint x="316.5" y="-91.59" />
              <mxPoint x="337.5" y="-64.59" />
              <mxPoint x="284.5" y="-110.59" />
              <mxPoint x="259.5" y="-147.59" />
              <mxPoint x="389.5" y="-46.59" />
              <mxPoint x="309.5" y="-41.59" />
              <mxPoint x="333.5" y="-125.59" />
              <mxPoint x="375.5" y="-37.59" />
              <mxPoint x="366.5" y="-38.59" />
            </Array>
          </mxGeometry>
        </mxCell>
        <mxCell id="_RY1uGZdvzKGK2o-vaD--22" value="Departamene" style="rounded=0;whiteSpace=wrap;html=1;" vertex="1" parent="1">
          <mxGeometry x="151" y="154" width="120" height="60" as="geometry" />
        </mxCell>
        <mxCell id="_RY1uGZdvzKGK2o-vaD--23" value="" style="edgeStyle=entityRelationEdgeStyle;fontSize=12;html=1;endArrow=ERoneToMany;rounded=0;startSize=8;endSize=8;curved=1;exitX=0;exitY=0.5;exitDx=0;exitDy=0;entryX=0.75;entryY=1;entryDx=0;entryDy=0;" edge="1" parent="1" target="_RY1uGZdvzKGK2o-vaD--7">
          <mxGeometry width="100" height="100" relative="1" as="geometry">
            <mxPoint x="157" y="152" as="sourcePoint" />
            <mxPoint x="83" y="96" as="targetPoint" />
            <Array as="points">
              <mxPoint x="117" y="219" />
              <mxPoint x="139" y="225" />
              <mxPoint x="78" y="183" />
              <mxPoint x="131" y="217" />
              <mxPoint x="27" y="92" />
              <mxPoint x="81" y="215" />
              <mxPoint x="127" y="215" />
              <mxPoint x="54" y="223" />
              <mxPoint x="37" y="149" />
              <mxPoint x="135" y="217" />
              <mxPoint x="106" y="168" />
              <mxPoint x="47" y="157" />
              <mxPoint x="59" y="171" />
              <mxPoint x="80" y="198" />
              <mxPoint x="27" y="152" />
              <mxPoint x="2" y="115" />
              <mxPoint x="132" y="216" />
              <mxPoint x="52" y="221" />
              <mxPoint x="76" y="137" />
              <mxPoint x="118" y="225" />
              <mxPoint x="109" y="224" />
            </Array>
          </mxGeometry>
        </mxCell>
        <mxCell id="_RY1uGZdvzKGK2o-vaD--24" value="" style="edgeStyle=entityRelationEdgeStyle;fontSize=12;html=1;endArrow=ERoneToMany;rounded=0;startSize=8;endSize=8;curved=1;exitX=0;exitY=0.75;exitDx=0;exitDy=0;entryX=0.5;entryY=1;entryDx=0;entryDy=0;" edge="1" parent="1" source="_RY1uGZdvzKGK2o-vaD--4">
          <mxGeometry width="100" height="100" relative="1" as="geometry">
            <mxPoint x="198" y="-2" as="sourcePoint" />
            <mxPoint x="29" y="28" as="targetPoint" />
            <Array as="points">
              <mxPoint x="188" y="28" />
              <mxPoint x="171.5" y="-9.590000000000003" />
              <mxPoint x="75" y="55" />
              <mxPoint x="129" y="43" />
              <mxPoint x="137" y="35" />
              <mxPoint x="185.5" y="-11.590000000000003" />
              <mxPoint x="181.5" y="-13.590000000000003" />
              <mxPoint x="66" y="23" />
              <mxPoint x="114" y="17" />
              <mxPoint x="108.5" y="-5.590000000000003" />
              <mxPoint x="91.5" y="-79.59" />
              <mxPoint x="189.5" y="-11.590000000000003" />
              <mxPoint x="160.5" y="-60.59" />
              <mxPoint x="101.5" y="-71.59" />
              <mxPoint x="113.5" y="-57.59" />
              <mxPoint x="134.5" y="-30.590000000000003" />
              <mxPoint x="81.5" y="-76.59" />
              <mxPoint x="56.5" y="-113.59" />
              <mxPoint x="186.5" y="-12.590000000000003" />
              <mxPoint x="106.5" y="-7.590000000000003" />
              <mxPoint x="130.5" y="-91.59" />
              <mxPoint x="172.5" y="-3.5900000000000034" />
              <mxPoint x="163.5" y="-4.590000000000003" />
            </Array>
          </mxGeometry>
        </mxCell>
        <mxCell id="_RY1uGZdvzKGK2o-vaD--25" value="departamento&lt;div&gt;&lt;br&gt;&lt;div&gt;codDepato_de&lt;/div&gt;&lt;div&gt;nombre_de&lt;span style=&quot;background-color: initial;&quot;&gt;(azafata, piloto, atencion al Publico)&lt;/span&gt;&lt;/div&gt;&lt;/div&gt;" style="text;html=1;align=center;verticalAlign=middle;resizable=0;points=[];autosize=1;strokeColor=none;fillColor=none;fontSize=16;" vertex="1" parent="1">
          <mxGeometry x="760" y="258.5" width="352" height="89" as="geometry" />
        </mxCell>
        <mxCell id="_RY1uGZdvzKGK2o-vaD--28" value="vxP" style="rounded=0;whiteSpace=wrap;html=1;" vertex="1" parent="1">
          <mxGeometry x="-481" y="88" width="120" height="60" as="geometry" />
        </mxCell>
        <mxCell id="_RY1uGZdvzKGK2o-vaD--30" value="&#xa;&lt;span style=&quot;color: rgb(0, 0, 0); font-family: Helvetica; font-size: 16px; font-style: normal; font-variant-ligatures: normal; font-variant-caps: normal; font-weight: 400; letter-spacing: normal; orphans: 2; text-align: center; text-indent: 0px; text-transform: none; widows: 2; word-spacing: 0px; -webkit-text-stroke-width: 0px; white-space: nowrap; background-color: rgb(255, 255, 255); text-decoration-thickness: initial; text-decoration-style: initial; text-decoration-color: initial; display: inline !important; float: none;&quot;&gt;ventas&lt;/span&gt;&#xa;&#xa;" style="rounded=0;whiteSpace=wrap;html=1;" vertex="1" parent="1">
          <mxGeometry x="-615.5" y="9" width="120" height="60" as="geometry" />
        </mxCell>
        <mxCell id="_RY1uGZdvzKGK2o-vaD--31" value="" style="edgeStyle=entityRelationEdgeStyle;fontSize=12;html=1;endArrow=ERoneToMany;rounded=0;startSize=8;endSize=8;curved=1;exitX=0;exitY=0.5;exitDx=0;exitDy=0;entryX=0.5;entryY=1;entryDx=0;entryDy=0;" edge="1" parent="1" source="_RY1uGZdvzKGK2o-vaD--4">
          <mxGeometry width="100" height="100" relative="1" as="geometry">
            <mxPoint x="288" y="-219.5" as="sourcePoint" />
            <mxPoint x="-118" y="-101" as="targetPoint" />
            <Array as="points">
              <mxPoint x="41" y="-101" />
              <mxPoint x="24.5" y="-138.59" />
              <mxPoint x="-72" y="-74" />
              <mxPoint x="-18" y="-86" />
              <mxPoint x="-10" y="-94" />
              <mxPoint x="38.5" y="-140.59" />
              <mxPoint x="34.5" y="-142.59" />
              <mxPoint x="-81" y="-106" />
              <mxPoint x="-33" y="-112" />
              <mxPoint x="-38.5" y="-134.59" />
              <mxPoint x="-55.5" y="-208.59" />
              <mxPoint x="42.5" y="-140.59" />
              <mxPoint x="13.5" y="-189.59" />
              <mxPoint x="-45.5" y="-200.59" />
              <mxPoint x="-33.5" y="-186.59" />
              <mxPoint x="-12.5" y="-159.59" />
              <mxPoint x="-65.5" y="-205.59" />
              <mxPoint x="-90.5" y="-242.59" />
              <mxPoint x="39.5" y="-141.59" />
              <mxPoint x="-40.5" y="-136.59" />
              <mxPoint x="-16.5" y="-220.59" />
              <mxPoint x="25.5" y="-132.59" />
              <mxPoint x="16.5" y="-133.59" />
            </Array>
          </mxGeometry>
        </mxCell>
        <mxCell id="_RY1uGZdvzKGK2o-vaD--32" value="numerr avionfk" style="text;html=1;align=center;verticalAlign=middle;resizable=0;points=[];autosize=1;strokeColor=none;fillColor=none;fontSize=16;" vertex="1" parent="1">
          <mxGeometry x="-642" y="83" width="124" height="31" as="geometry" />
        </mxCell>
        <mxCell id="_RY1uGZdvzKGK2o-vaD--33" value="numavion pK" style="text;html=1;align=center;verticalAlign=middle;resizable=0;points=[];autosize=1;strokeColor=none;fillColor=none;fontSize=16;" vertex="1" parent="1">
          <mxGeometry x="165.5" y="-9.5" width="111" height="31" as="geometry" />
        </mxCell>
        <mxCell id="_RY1uGZdvzKGK2o-vaD--34" value="fecha" style="text;html=1;align=center;verticalAlign=middle;resizable=0;points=[];autosize=1;strokeColor=none;fillColor=none;fontSize=16;" vertex="1" parent="1">
          <mxGeometry x="-172.5" y="-40.5" width="57" height="31" as="geometry" />
        </mxCell>
        <mxCell id="_RY1uGZdvzKGK2o-vaD--35" value="fecha" style="text;html=1;align=center;verticalAlign=middle;resizable=0;points=[];autosize=1;strokeColor=none;fillColor=none;fontSize=16;" vertex="1" parent="1">
          <mxGeometry x="-637.5" y="119.5" width="57" height="31" as="geometry" />
        </mxCell>
        <mxCell id="_RY1uGZdvzKGK2o-vaD--36" value="tipopasaje(t, pcl..)" style="text;html=1;align=center;verticalAlign=middle;resizable=0;points=[];autosize=1;strokeColor=none;fillColor=none;fontSize=16;" vertex="1" parent="1">
          <mxGeometry x="-679.5" y="151.5" width="144" height="31" as="geometry" />
        </mxCell>
        <mxCell id="_RY1uGZdvzKGK2o-vaD--39" value="" style="shape=stencil(7VrLchw3DPyavbJIkODj7Dj/4SrL0VYUySUrif33Ab3F0bC50xsdXaXbasVekkADaGDmFD98u//09e4k/tvL89Ofd/+eP7/cn+JvJ5Hz4/3d8/nFPp3ix1P88OXp+e6P56e/Hz9f/v76qa/sn/56+qf/wvcLLnjvvO8w8T8uX4mL6ecXv18AD+fHHaA1V9q0vjivdH3QaX0IzmcCKC6nGZBcZAB1EXYoY8/rAHEJAM1JOQbU5nyYbRRcIUeq6mQ2kii1Ug14B6nUDcWuOFspivORAGSceAOoS/UYkKvzZQZUV8kO2cw6A5KMQ14FaEYqJTuSJwDvFHYwdskxICWXZ3KrOCWXjs1VmQHqaiMAO/FsVq2uECuZm+IMyN61cAyQ5nQmnxm6EvJJdmk2azYzEPJJdKXOgM0z1wEWwTP5jCyFeDpUl+OcNMyV5A7B7jD7ofCs0XME3KG5SPwQ4mDOzkqe3UEG+zdP50H4I0ABthZKjRVgEZcINTpg9nQMw9BHgDxbybJ3JQHUdwgIoGY1KwEgu8qt1DICEvO0OW4BsDRjgLgk40bSjAGyIqCQrGGAJm8CJBcKAliaMUBazMoynwHyAkjMSgnJ1x3HARX8YNRgZk3D6jsASzMGkJmtRu8b1MhLjctsBxlW30LUj8p9BIDsbSWGFXYTO+CHdCPiPPpBw1Bo16WD0/kKyuMnjxy0qz+0hg6VsK23ACTnyU5mL1sxUfL71TWoVkYjnjBAsBqA1cMeCpDpG7Vo2A68Kz7CQqGg3CvqlO8AusQEYGCZXlGy1kw1bk8YM1Gb3YEBotOZF6arlQNAsrbKU1JEZhig8PLWZupZMyE3qpVHQOaAWBBA87CRb6bGroE6TAAZt2g8Y8SIgMIBcCYDUNmwpBhzRGP89phjDBBZffMoQa2ro3fw2DsYgGWZfqRZgrY8QuTIShW4EYfdDqvPnLlrHQS+ror9CLBdFqgcoAuANX0GAJ1hAE/8YEI9rgDWCgSMIAMIazaWgDBAZkeSxUqZNt+yxKgBGj8S1Ghrlm8dCbqTSkuQWQlqVuEBJEsSKI17Ogyb7ACsiho1akUA6046+QQBgTV9fuTe3aVZ+jYAUqNStoYtMe4cxyY/ssyujBqZBxDobmNr45dOCQE3zFqXAGLdiXk6LNqB9aEG0OUO4QZblxClXJLlSJk2368jwx2g8B2gWzdPs+6kh+gScUz/9LxUEVB4mnkbwDScLAqLTa/eBdO7YPqVBJPHbGyCiXLDFBb0KG248pB9s6dr4k1NXNRJG98cDmYAkMZU+/AOkMkiBVRs5IrFIJmPWW5vuD4y6i1Kww9Jd3W9X6aamU6Xlwrap/j0PAmGoLyXjvgwRzMd/CrWW01UfxacE2ugqr6NINnGMUrFZBvDy2298Em3xza6PzVhCTJg7YyJl5H3Ge5PwPsM9xeZ4QKX+iMKvgM0MhZArAkIiikslWG3I4AsD3JoX6LLAFH4eE+xdGblIVqw7FjaZqVTPOph24E9/jV5i2PWyNtuxdF4tk6F7VCRS1Ya2ANmI0KB3M2fj8WFrapUkUTL9jOXVChb+zAfxvvt1hNpJJ/y+p/HJHlXUFj3ZlaHiOsFhQEK9lZRR8d4vYQG7Bqi0ElAWTqfLoMIoHqcXkui8VCXJz99kkW4VCs6zkIqk0u3gPPxnjyJ49oiJXvVY0pDh4B/7XzocwoT8Am02OgijtaDGg78QAXldhji6Wg9ZADPpdLywoinvLP1gr/PpJ6th3Gpp9K8VXxgzxvPtmhDf+vNpoj3FWbPhr2CH292HK0vaJ9KYqC3yXM+DVTm9fUN1rP3e978qtj/ANiH1zfTvpwfHi4vtu3/j2+y2VeXt+Dix/8A);lineShape=1;strokeColor=#FF47E7;" vertex="1" parent="1">
          <mxGeometry x="-358.14871170930246" y="80.17418683452843" width="66.38265332959236" height="36.030496530127444" as="geometry" />
        </mxCell>
        <mxCell id="_RY1uGZdvzKGK2o-vaD--40" value="" style="shape=stencil(7VrLchs3EPwaXlF4Y3B2nP9wleWIFUVyycrr7zMIg9Wih9ss3+Iq3igKzQXm0dMzi1P68O3x09eHU/Tf3l5ffn348/z57fGUfjrFeH5+fHg9v+mnU/p4Sh++vLw+/PL68vvz58vfXz+NlePTby9/jF/464LzTuIARf/3/ML7f7/4+bL86fy8W95cFFyej5eH4kLG9XK8Xn+/FFifye/n6Mr6+8H1fry+VNfW42bX0vH6Ks7XZb242oh5qvNt3U90jWxIgot+BVQXGSC7FFZAd5V4TKpL65ZicjEQQJsm2QDNpUgA4soKSOoFYiXpaNXUaFgoAMJOHZ+J3xSQ1idkcaFQQOgLoGQXmFk1ENYtle4yO4PMTJmAmm/5Iaxm1WhkwWo93eLc5BEAsrMVVzgAHKcB35mVykzHDaAMUilAGgLoloprAQFCKEMBZaWAJpTDFJA8AmgsFSSBAWD5kJ0UA2Bmza5mPHRnW8ouVwQ0ltN5pvwOkDkgJgTQnNb8WhNIY6mxfMhIlQpI3HEezBpnSh3G0uo4zbjAorW6vIa35jQl4zYjZwNofWBP2NJlB0jMrJubdgDPn1ABEKYmOAJIRUBlT1AjBgQUVuME2Xs8gTlOptV3gMYyTlD2VC4cFABEpmaldVoLivEDtVLHfKiJO86ULAVkXnaB7hUgvGQBzdR6qwJ1YL5wi8iaqUD0CQGDT1TBEtZQJs3rljTLM6FK3QAw37vdrgMipmiPM+CvAzxW0Z7mqa6r0I7cqgBG9wrw6xl6prGkPCfeAEh4K6CIAXAlncQcmgSfAmJAAEugodUbAhhVVq2ZZkuemVUBa7SqpxsJ77pV5R2AlaxxBjg056VRoCICmOYbZhUEsMJeTQIpILIzdNfWJ7wr2ev5oBtYD620wKRD0wZmNavSAhOJmtNgJWWNxFK0YQXSJ1QG6Ni4DtnIyHirmZtZ/dzkdUBCcaIZx1hjbACCT0s9161Q4zRaM1NkKn9W1pAbYr3NyNkAiQssQXWvjvNkSxqbASrQVlevA7Lp8P1sEK4Drnma6dZu86FOej4C9IQA1u0Gvw1tdojO9wSFWl2TCM8oAFoU4W2WAioAZOqVIwAUCAUwYlKA7wgo7NCmyI0nELsqAKZLIrRlV0BKxkok5RQQTQaxlOuC8T08zc8QbTCRlOumUI9wZZ6WyYz7hGCOk1n4d4DCYylYAA9vaHcVwBqIkaPmDGywMfKho5VYPzAyzgAaCw0LaNOVhwATS0ydjENDVRQq+vo24doBEosl06KMFGVbEmNWoT3NCD5zhsSf8J2AhD2+1qzKwjsYEoj00KO3BLNm2kAMFoLw3pTp4ewR5H2cXHg4FICO48b4p+IMeFeUDsc5oDY61zMRNVmvfNjip7bYi2kmE2XKzp1dK0mIMYACR2TejWaTQZnOErW5xH63zpJxJKYx+oR2ENqNwkhqNAQk5e7d6ATcu9EfohvNCQGJZVww2kELK9mS5nQyhZrp+9ZMv5uo+FYiq+YNBJP34/cAkKhKHL0ijGhvvM2q2L7WwgH3yfd/gPvk+4eYfCcAFPrif8SSSSBWgTSBQOmOqRYH3N+93t+9Hknp/9u714w1rhWe0xm5tYVb480GzHejCaqTenckQK9HNNR8pfO+rOGWSqINhy0oWQURr0ANAPHWC2cYYaXGm9GGYj1FPjWuOGaOMjvmI8fB9D5mOiRTNVNWs0Y+jB96CZpRoTPdVgygUE9rqLX1DCHQ8C4V/dAoLY37Tev6TCvcuDi3ui26TvZjL+bFSWvXLYQ6PdJyaG4VRsp4HoUYv7fk0TbRFXJW7yJcgKM60lvLsLdXHi+ZBFoCzaQ+0Mi8spx1/2Yznsocc1RP1akxpKc1wLjJ03c9Jgj41dLvvLh6c7l+eL8j++X89HS5Yrv/P96p1a8u93HTx38A);lineShape=1;strokeColor=#FF47E7;" vertex="1" parent="1">
          <mxGeometry x="-499.0728362092391" y="35.56937098889762" width="80.34223339762588" height="49.00566859992309" as="geometry" />
        </mxCell>
        <mxCell id="_RY1uGZdvzKGK2o-vaD--41" value="" style="shape=stencil(rZfbbtswDIafxrcEJep43XXvUaDpYixLijTb2rcfPc9ORMe/UWB3jsJP4llUJw9v+6fXXef57XI+fd/97p8v+06+dN73x/3u3F/0q5PHTh5eTufdt/Pp5/F5/P36NEgOXz9Ov4Yd3keOSeIAef6YFpj/LnwdxQ/98Ubck5NG3BG7dfFIITTigVxeF3eefGq3d1Q8UEeI2wP0hJrWAcnErQFByCELPGXXAMlRrOtA0hNKA+RECdiQC9U2BEUBEIOSrUqVqYR1oAql1ujqKUUAZAq+BWRauQ/UhUpCGalUqbAFKj6h1BYIFEDgFDBurZEcMloBc0KaQnk/W3mulZnIkBiOaHOjFmJQEAMgFvi3suomY3WliE/IyQIVRy7lBYCNjsUCCVTQALAFUI3q36bNqJcEVNAAmHTNJNhoCyQSnK5hkX2C42CNDluBs24NxFilZACZYr+aGtkCZSP5klXJb9SoWKB8roAiZVDU92o0QeJOG8ibgAl1oYT9WhYFIbggbLOcy3w1ci1w44f/ReRFScwJtnoLeesn1PL1nrMJm8lt3KTGTx6m03BXtyoVD1XSaSC1nUa3qCDDJU3jyDxvaGcAyaETVm2LThwJuoV0ZjKRK7CXxWm7a6TxjEWu3T/DYYOnvngVZ5CqTN44FPqTySUjjpokW931RgfO50nVSTzCumSbPQEOeotOpO0X796Ke3gvsx1sPawVnuaO6yCPTXWtqUwZJKWKVyMu4OLQJMhGHIfpU2+WTXH9uD6PXvrDYXxd3f5vn1O6ND7F5PEP);lineShape=1;strokeColor=#FF47E7;" vertex="1" parent="1">
          <mxGeometry x="-637.8994338950301" y="228.51130119275376" width="199.64068969972848" height="18.856706193899246" as="geometry" />
        </mxCell>
        <mxCell id="_RY1uGZdvzKGK2o-vaD--42" value="" style="shape=stencil(7VvZbls3EP0avRJchttzmv5HgDi1UdcOHLdN/r7DqrwRz9x7VBcoigJ68zJHnH0jdUrvvtx/+Hx3iv7L68vzz3e/P3x8vT+lH04xPjzd3708vOpPp/T+lN59en65++nl+denj+ffP38YlOOnX55/G5/w9YyL4iQMVPTfzn8Jztc///Djmf7x4WmlL2Whry4WSt/9+vnF9UYA2YW0AFJwUSggrgBpLvMTYl0ApTh/BdBWmbvrncuQF0Arrua3CK2AKyf4vgLUDpEDIgL+svyh4RICMveMZgCFySCuBgRQLanv+TcCpL2RpWQA1JfERWMHYXaQaaa/azhxwbDkPQesETqcj4VocmFVa62uMZaiCaDsSiKA4PJ6Qo6usZj2mDUkOGGG8y6vvpTi9K4jQFwBUbXEZPDoraqGzABxft6W+TRrsAAqrgQEsMynIkLWUCYT0VJq8/M2QJqZahcgCQ2n6T6QeJDqUkY7FCK0dAzR1F0lMiggr+6t6V7YCRWzRu60xA2hV7VWT1NlUsNBTHtu6WpSZacnhDbtOgFdaBXtGA69us5EwBTQO3UMjypS+kL48dhlDHqiIfVjw08h/Gs0G3qWL7wLhp9Egtk7n41+SGgqPXx+o/r3M6Vf0HN9QjVXeuH8FKSPVF7ILErvKT1UNfW3RvlPhr5y/xFDz5Kvk4L0nfhzw2ZnyEv0qQEJSWUIzKpyx2rQM5VAVEUggp9M7gOaa9BORRoDWWaS2vJcoFkoq9BrFBRPM6n+G5J79rNf2gcEzBOajBOxgwLaagctH570LrljCVRFM0vngqlChLr2aG1WteYw9bYP0GBbg0EVzcqHWhpakbJNKEcANNxWII6KbIGJJ3ItRWw6FcBYUrWmhCyxhm24xqqlovMDsbQOdVJRrYEEUDVFTQ0nDJCMa5SZFvYBZvJUQCKWVkBb1arOUogdanFxtXTmhVYBZe0sRrPDABVnWx2GM2OpmiFMJpOHgIoAlsgGQBDAXEMB0E41obl1ACC35mn7I0A0ANbLD7V6BLCOpG5rlEsAU2tBXxoApqVtZ3EpA2epmBM8M1yZw/WlHVgAKSAigA30A+ARIExLGZ1vDMMsHmTuv7a81OhcqFkD1Kp5ibq3zGl8yxqdJ4Gtd7moosy9W8J2T8dtVh9aw1FVqyhbGfSE2fsaoGMyVpYiB0DJGgA2InWj1kB7aAV0A2BNet+2hBcAVtiDN3OARNowjSMKAlgJGlI3BDD/VkCFExJt+r5PahcAtjMYo1o2AC40TIeDJQ4IFYVm45gCvNES6+EGQBDAsvEugE1YA2CciQ0QQ2gDEG6HZPw7cS2JDTnOUrFBzbVUzQnpSlAbofOVAKoIYPGwH6NX/LsbZ8o8RntAAJuOh9Q2ILjliglqtu8Z6dicELkMbwTYChHpRD1qkAlqCthGyQuWhCzGtY6iu2ZaFmvGIV/bddrEyU4vwEJuTBCm22C3AdVMQaM1vdJ939r1W7v+P2nXi9k7dHolqAFk513aTGdcGOlE3dgJYmb2ML3rcCCAdN+md+0Dwtw9byfE2QYerUKgEc38kmWs1dYTSqElK5u7K2WSLezHwgguHYU+JNCZB7ZkqrdM4kGq2ZJ1eg8qFZuNwhOZmD40V7rDGkKvLI3dH2Ep573WmAidzWowVfqQQC0dV9dIma6kSsTcqgAWDwqoqy+lPlfbhyeYOk1PCHhrr2plQqv3w/WAfgRrf9QO6N5xRvmRa0RT41gy1nE4r1W0X7kiN+Nrr3QaDWZm7zwezJ3IReu7z5ITcwnHysPtEvF2iQj6Nx79X14iJqP/ykcYfPvQM1/3NCxpne8xYsUZabxnYhIUdDltj9gLkTFowtOezvOWdp1QAxvta8XcnAr3OrFTmJ+N6yFLqwzpSu5NeKUR+SViahg543kd8by07XY2QKRVdrwFWkta5KuVmPCZmAIqqx8Bs29M/OVaMCeU+RTn8AS4m420Y1OAffUVmZYiPnPRDotte1RE6HYKH9vGYzoIoEq99fb0c8tLt6efFmDsQA337z/9tDJcafFk7+00V2s0wy1rwoYMkDUC3XtoTMOsGipnKeELwkpvvEfSWOn5xdKgr0BPdZqwT/V0HTboK9Czvf7I60hPs2rCNY+nM6fS1wj0rM2L2zR3Qc/1A9sL/mJneBDyw4a7KPgFAs8dTrDv9PQBhM0sni5f/sFXMq7Q6w/fv//x6eHx8fz1kcv/4/dF9E/n75qk938A);lineShape=1;strokeColor=#FF47E7;" vertex="1" parent="1">
          <mxGeometry x="-749.9104692946967" y="-196.23390982709384" width="122.27499061754582" height="60.074221596098596" as="geometry" />
        </mxCell>
        <mxCell id="_RY1uGZdvzKGK2o-vaD--43" value="" style="shape=stencil(lVbbbhpBDP2afbU895lnmv5HpEBZlUJESJP8fbxdLcUe7UG8DcvxjH18fBnC5m3//LodPL9dzqff24/x5bIfwo/B+/G4357Hi5yG8DSEze503v46n96PL/Pv1+cJOZ3+nP5ON3zOdkwpT0aev+YPtVAO/778nPGH8XiDj+SbxgeqAO+YOCiDkqjEdQPvybEyyI5yAx7JC9ql6InruoHcx0UZ+EAOuFQdRU1SI/br+NYoeoUXFxniMxu8AxELvmSDbyAHgq+aIeEY45smKFAuKMfX+BaDRAEHYB4o5NwjAVTK6RGC5AKQ4D4BItsEIu4zLAYFe+STNQj4BaNqeRLhK7VqKEKanvBOlxklpOkOH6mAIpvwOuCw1PVqvIYgyhkTamsmYwkFWzOM70/R4nG+irP+3KnJLt47JdPxCftuV5ORKiaoacGJILCimy4BERwmqGqCRNA44NxXDFKc3FetwZ2afMxA5kDSs8zhviKTxplGGomBgcwyr0lNuGykk3st0+KXXrk2j03dyMBHeYu207UEhSoU2laKpx8vMrs+0JZWtoKPbPGo8iVgnYOpNUF/nJkdBTLKdptoGQ4nXnaHG0I90ERXxy1Alfb3i0ZAp+NlWbrimSoQRMdPFf6h/94Mpgo7O1vBiUAb9OexDfY+Xg7/1+XdeDjM2/bt/3a9lk/zah6evgE=);lineShape=1;strokeColor=#FF47E7;" vertex="1" parent="1">
          <mxGeometry x="-688.5161607737068" y="-123.61821527397706" width="109.15806574194742" height="11.130175733001124" as="geometry" />
        </mxCell>
        <mxCell id="_RY1uGZdvzKGK2o-vaD--44" value="" style="shape=stencil(lVvJklQ3EPyauSq0lZYztv+DCAYzYcwQA97+3imP9XhKvc6G29AoW0tVZWWV1A/pzZcPbz8/PkT/5evL82+Pfz29+/rhIf30EOPTpw+PL09f8ddD+vkhvXn//PL468vzH5/evf7789sxcvz1+/Of4xv+fsVZcykMVPT//P9JdT7+98kvr4CPT59OgOKd7yuguBgEILiSVoA5qwKQtyVlF70AVJcJEF0Re6jeNdqDd1XsoWZXygLIODexpNqcJ4C5JgAt8KZzcl4sqWUX8grwLopNt+JKXQCpOjMBaK6thkvmvAB0HGJcAdFVBYgutxXgXRZ76Mn1ddOxTXe8BpiL6wzRpGv04rKtgKRngPOtpxS9sywAbTrzBITqupqhuboaLtg05TWgu7AuKSTpGgOwemvwrje5pLZ6Kz7Qe/arGYqrSVqhrwuC56nxOJDVL9K0yvX4vLmFDGc4aiebuaLGh+1AXRAmRqhVHi+D35iPYC+xX7BLTzS+ifVUeGTg8cIfanK18XhF8X0e33eOR8aIPzIebNr5/MV5IuclPn+VDyzx98NBBNHlziSRXRMBiWRR1/OpLgh/y9GF9fy7pPbUJuMc+w0z4q4BZSMtZGkR8SkxQ4Qy93QNCOwSocuYHFukGI4yaHCGts4AK1QRBSCdTIA657wGpLniUz5LCnDQwgFAthGOjTOJ67EiJzexaeSWSDM06drILXRKOUhfQm4hbsx5RtM1IM4zOQDwbrXpg3wOQNfpidkCerCK8W0G10mhNkGnhRMyVHQTOzZ2bfCToq/MJoAkrmJ8mgY6xleZnuJ0+4Nd/PT0G+PpfMD3WbnE1PfH+CLlQZjq5FATCBuxX8/qoCV5nn7Ofowv0r74flpPn+r8xvqZfZF/BL0H9ueuNWZktu5HPXLDfyjmoacUqxiXQxC1Udi3TvF2jG8yvSKAqRrqd0gosV4cElV4KJILCcABEC4HG1M1hCWpM8WhMqBKpwarWGIrFOF1KbBbQ9YGBciTdU5+JGfYCmUIW1XsJ+g08gwv034+UvAROk0uKW/F/ohNJXXKrN8OQJ4J6BrQptQ6sYWKNtvpIshNj27DaofaZXljme1Qm8yAVmZ8nRjV1AxIAGsA1SwFnnUO0cHxYtPFT4o4AFF2B5DzKKarlwEEABUVKBsUa5TIVV1p0g4AEJEhcSpfKoljupRZCdzqZVG3DKVM1gBbLT0+EdoF30fJYZyb2kPh7gAAJkhgbDEwQG66sP4qOh8CUPMGUIYrs9w6AbJyDSjMbUkm4gGAuC1J9bLKJrQB6KpGBWBNKMN/dZuTZAYAdzbtEwNk57Vwxw+AopwPZBwYULWlqaQaM2hfihvANMDn7ZTUkmzzpSi7ZQOw+ZJq4A1AYYDS82MPjQF3DLd7q9z01ua8H3Ekf+7HdNviQdXCw1u3GUzHQ9x4SXpr3fJD0HS/A+LkkZuAyAAlHX4cYDMFnhKKZA3bWONwllsZiKR0uXMjlFgkIu2a4qW0LalPLryVp22TDqpAGfU1Vax3UtZ2I1T1FRL00i6w1ClZY7qvJhM7NB8da62zq3xLVRLN1Ca7jJY4gJpuV1ngzk2D5lPaG3XzSjPQ3or5RieIAPqyEPUDpaxW56XSrQqFmiujuFcVir+o7pXQRZXV1j10fQ2WjNm7Z5nYU9wKfJP9/7hdIY1rK13ttq3EV3ka9TTdYPQuVWUofC0cvJfOFOJs+p2mUF33vtlBd8UrN/WxZ5UetvYwDlWtJzFljIaAMgJ3k0c/QDVWuU3Xk3Qjz8EJx1Yln+cEfSdyDnOeSnvVb/es0UdbT5y/Z3uBvqL8fqoyqr6SCJz9URJHef6dGN7Lqv5ghVOiVZIqbak/yyDO3PgoupNf2F7IWUqA1Wn9U9tctYU3ErIok3Lw2xOHLpNBCCxdcpHMGzYlkpMk0pC5dZ6PtsYtmrPt/iUqXmzz9cABMH0P5rkngfSgekPwO2LewZQ6GVCbBKZXGTBudeRoSasZGt83I5hUFk+eYy3oVk9C6FK6KdJwabtih7OoVxewa97uVNWmc+B41o8osm0NA3nPhmAhvs6zNL4lByncdLFjW4vESzcqRxf123gp4o0dW+uDq0cFavzVowU5/uJRhHykcfHoQlUI41FH5/HiPNvW2PbyymNcSvGjEZW+oR4in4+6aoZo5St/2fqH+qHvj/IWD+qKH+HJdDYeKXG8KHkDdVio9tDywG8CZzybUi+5Oldo4JSkttA5ewSTD3EAoPsX8KKq9sdrNGJeHcV967qMt1YKUKbXH4AieWhcbtITvCZ7tXBUKhpHelDHukUC0oO64IXQzQQw6dtt6xwhPQSljbYci7qzKUDgy7+cZPerHod4EkeqTVONL51GRlH1U+CCxe528KhNY/rd3ngHQS99TfemAteMVvQM3mUSqVXfnTd+qgVAV2mzcUybLhsBoFeyA6AaQW2+njgDVOZvU6icAOp9oB3XlWeA3jQ/sanyogAAbwyQDbnGlx1WpfMNQGaA7H411lNWZdtybHpbkrzm3ch4OJ9e0o+93v8OAP749mOB908fP77+1uD8//zjAnz0+sOE9PO/);lineShape=1;strokeColor=#FF47E7;" vertex="1" parent="1">
          <mxGeometry x="-300.05788655216975" y="-93.76440761096501" width="139.55193333350937" height="136.13337824050257" as="geometry" />
        </mxCell>
        <mxCell id="_RY1uGZdvzKGK2o-vaD--45" value="" style="shape=stencil(7VjLbttADPwaXYldkvs6p+l/BIhTG3XtwHHa5u9DVZCjpeIJcioK9CbLHC05HD6kQW6etnePm4HD0/l0/L75tbs/bwf5MjDvDtvNaXe2q0FuB7l5OJ42307H58P99PvxbrQcr34cf45P+D3hAoUwgji8TDeaUoh/7nyd7Pe7w8I+e/tSiIF9LJRrB0iVtFwHSCRNHUAqcb4OUHOpdYDYKIXrgJRmB2ZAppaAfaUce4+oAvtsnPbPZyoC7Hl29xIAFQX2iUrPUKCGnt8oi7MX4H8RauzsA3h+qSTV2wP+64WON3sG/tS8ti9AQS1QTI7PBPxv5k/vP5M2YK9eP0KpAvtEUTt7nRN47fml5z/B/MawKmIpJAxOqNRcBI0CkJyF4CShgRLiKFLsOVUTNQDUNGvgAmCYNVNdUQ9AZVaYRDxAQGPJprvgY0CtywpZxbMUAa2pUetZsl6HgjZAdpnOkNYcZyFcAKZG1N915ZJQBiyV4DMtPDv5PiD7dmEAJD7rF01XAMBSbRSzB8AKVZK2Chq1jOpnjtEaUE9qVF3FZdjkDZBc0DY3UQxl1WUsMyAP1vZ8TZu8UR6K19JYQAgQVifw3Nrel4Z11ugBCY3C6pcFi6GCE7LltXiWMgKEWTnLVgkqzkpUnTSMNyCNzwP+7yMf7iPF2//lfUQdn//aPtLHi/cRa7/ct19bN8DIsXxprzcjiEHCTHC8Wl9QBpKQ9h5Z0VVAkeo88xavORXkwPoU9zU5sobeWqInqWXYVyxEl7WGlzybSG7Js6kl6ITo56wNIQYncPF5MAAK2oTslrzF7nrt9dGNcjsCiSnaSIoegN4GC7XsWUIblfrmYmmoaDufGVnkGe1T1nv64rdyRVvqZ1/gP7a3i7evBQ+7/X762LD8339dsFvTlwm5fQU=);lineShape=1;strokeColor=#FF47E7;" vertex="1" parent="1">
          <mxGeometry x="243.09575155817356" y="-108.57531470911795" width="4.005558021624572" height="15.068430113127333" as="geometry" />
        </mxCell>
        <mxCell id="_RY1uGZdvzKGK2o-vaD--46" value="" style="shape=stencil(rVfLbttADPwaXYl9cZd7TtP/CBCnNurageO2yd+XqrCqlpKmKNCbLHOk5Qw5pIb48HZ8ej0Mwb3db9evh5+n5/txiJ+GEE6X4+F2uuvVEB+H+PByvR2+3K7fL8/T79enMXK8+nb9MT7hfcI5Ej+CgvuYblSmWH/f+TzFn0+XRbz3lHqAZJIEAJVc6gBFKPE+IDBV1wFyoer3ATFQLB2AmRgcKQrl/khpfsQmIEWbQ3SNhm1AJs4dQImu4EipEPdJ+0iM3lAp9joU8uAFHBqH84nIxf145dxw5Mi5/XhRBqUvJApAZSlNojlhpiL7gOqphD6BADXwbj7xLLMnATLXSqUvJBXeI4AQcw9IjYZtQKbUs5QYVl6NVPpC0tJyAQAcZbGAAI40ClEswANeJVFhmwNqNy0N9palDHIQT95ZHZBliCZtjhTII4Cn0BdTUiPMMIdiHECLBbHE5Hrh1HUENJzqUKMFRNBx2hCOLcAD667J0qqAhADZFp8mDd8gq9JwFABL2nFiADpfAEsKqKYfZmX2AEYHLT5kZLU031qUt0MtmqwxKQBNxNHJeqXHFkUNpDZTVwBcfHbAcbO2bYD6nFiWKuoHlWlllbCBtEVNDqFl9X8AJdqeDtiMc6VsZq60R2wDUjPGefeBLpPVZVZDvYIUWNvLpOChbuOiY0zDww5lPZJhVa0VtMM4n/ojcW4TZnu5qm1kzuubriqApbgaDyo9g6RVVrMrSYUAn+zUVaNCy4nKlLIFCNqKg60M9R28nDTnXQAKaoc2bRbxFRV323Tm0nN4gZtNbvECNK+UorDKGCQQ2tqyoBT1gu7LbOMjMBgdNEay0paCnXizHOq0E0Coa321iPfALP71w+rv8Xrx5yvu5XQ+Tx+By//tV5/emr4Y4+Mv);lineShape=1;strokeColor=#FF47E7;" vertex="1" parent="1">
          <mxGeometry x="411.42436872692906" y="-99.50175515352475" width="9.84012751578067" height="23.5442706510773" as="geometry" />
        </mxCell>
        <mxCell id="_RY1uGZdvzKGK2o-vaD--47" value="" style="shape=stencil(7VnJctswDP0aXzHcQZzT9j8yE6fxNI0zTrr9faF6qJig9KzcesjNUfBELA8LoV28eXm4fd7vgnt5PR2/7X8d7l4fdvHTLoTD08P+dHjVX7v4eRdv7o+n/dfT8cfT3fnv59tJcvr1/fhzesPvM84RlwkU3J/zg+Qop39PvpzlHw9PF/KRElv5ktflmXy28gze7wM5bwHVAQCTDBZUoFFIJGkAVGByIF8tQIBKUUgGGySsA1IlN3hJ4joglwUbBLi1lIU4CIpbIg7vAdSwZEMBAKYwUMkBo0WZKR0gMqSGDIGLiTw6IdhsULIgLikg9F7yGQZO5uyaAZo/HnhJqDgLiCgOQrF3q1AG7FZ533u1UmYo7/r3M0X8fpPQhdy75JWJ2F5ngtxK1Jq8CVmgCEik8skEgCLI5SlgsZOfabsmX8XIe5DJyiDPRt6hJHCUkn0/8L/KszPyBcn7Rvg3PhSUAZFib6+WfAEZIJl8n5Re2pNlQKHaa6QqIcpJtS6NmRKIscjQEVJj7Rqg9sUxB9hzvJujOqeNg3ksA+9KbaVjzeraJxoXCqjYFeIeoE8CUqlQ7lUShlbLrMAMUE8jG3JrxBeAitiXKQcLEJCeE/sGlTLyUrLsE1xQFWDamsxD0xog9QmhSiZktAKMDRFTQ1UyJ3jcB7VG9wmhZSSiHM22ak91GcfB2FAr7AsKMHGYAOiEYpN6Kv2oChRKg9EZF6ZiIh0wvcvg1kgVcak0n1xQg/EJZrwQ3M4VEM0JFQ70CnBDxqEbg2pc7Ih0pcVlO0nqEYwCkWzPUiPQcKuAUqybCj4hmVDPflgF9Fbrk4BaiuaoqcYB0/XdALYqFQ0NBpiU03sKnLeVa+YaU681CFO+k289Zo0asQ+cXgEiomtsN7WL4YGR0aFdWmaAhyn3MdF/TPT/+0RvxjZPAV+zpbc3X5uQfM8HvQHAYSENl+Y5JVYBvcVKUUGAaE24vimow9YJquTa8HFxZQjghMqNlDOgwFK3sIBhmDcLKx4MWFgicRuBtq6puPXFrYswDFhYtXFrc1uXedx6ytZ1IUN6LywkGdbrhZUnvkKPO1Vug+XGna22NBDncSfMraKtyOfBpQwMdrb+XuGds7fChLPZtdS9kEcNQcutiXCGlBiu5inBYXCUj1f8b/XBG5LRXiU51N/607cb5cZ44c3uyAfXRvqNfMPfIK7L64+3Dx73h8fH8/eSy//bDyT66PxxJX7+Cw==);lineShape=1;strokeColor=#FF47E7;" vertex="1" parent="1">
          <mxGeometry x="278.5742226142902" y="-91.77006563368695" width="87.17690676955125" height="18.10625799949214" as="geometry" />
        </mxCell>
        <mxCell id="_RY1uGZdvzKGK2o-vaD--48" value="" style="shape=stencil(7VlJblsxDD2Nt4Qkalyn7T0CJGmMpnGQpNPtS9WQY5H/P8doNwW8c2y+iOLwOGjDVy/310+3m+BeXp93X25/bG9e7zf8YRPC9vH+9nn7Kp82/HHDV3e759vPz7tvjzf7v5+uu2T/9HX3vf+Hn3tca+RzRwX3a/9NdBTrn28+7QEP28djQKboDKAAQKBaNYD9OqBWyqwBwQEAU/Qa4MM6oJSFS7sEAHJFCwB3yIFKmADcqAGzpkgpGkBeB8RMvhhAXAdwocYGwADgKDsDAGYNkVwzAGAlX6nYOyBApGpVAqHhw4icY8eBaPWe8hxLXMk3CIgGgGJJAEEBCmVgVgE4FRqZGjrBDZscAaBKjqpSKZFDZnVU5nxgpgqCbwEQKJ+nkhga+cFeWpIWqWTMGhqlsxwXKlUcS9EAIj4hGwCiSs/E8x280DPIaS9+nclYqBAZKVGa5f3gqTX5Msu7QYTL8nnQ6Js8onqRD0nJw0DNI2je5OF9MxVW8hk5IGtS9cQoJMTcc5SGUU7X5DVZYK4QeVVsqWF9lHwmBlWny8/3Ldi/ZRTiIV+xPnkUvYM9xcEooCOxckCkjNM+KQ8weXCCZOBsoU51qJJTmiMuJtgfyelzRKcC5f0g2oPHCiyBgXjWp7phsuXGguqsT80jZpd7oxEwB3kJCURyUbdGtcFurXMWa8AJkuPZxU1YBZlUfDZnWZMoQWmQdIvaeLRjq4DZSi3CXsqbMJLGO+NLR6VShXEtAK9OaINc1xzXvAZUVJKjbiAb7ml7MhsAzIU4+pqjS0MAj4p9ABTcGrFuUVsahPBewAnKZj0fSfCdsJJTJzhK2EpsMi6jqhOHxscpeiI0TIoGnECqrlU8vfTwTtpKDgVfMsEXcCkXgDJrhES5QAJ5dFerOa1UKuPMVSup0KhwZOtUaVK0ILMKGc8qeXeiozobUXSBE50SkI/kzaVhipqUZjjiuUHth9BL0G2H2x1anghHFxk75uTJAXo5kJv1SQ6WtziS/Xh+RMsLrY+0KLBWOX2AUBTkFx4bo7cmFQbdZaj410OF2rtchoq/GyrysPfRUAG7tWiGiohdHMy2wsO162UvtQdc9lL/xV4q6L2UWCmg8LaLXY+tZFfHGLCwnMaAhfW3h3V5YcHuR+l97wr/4Jn3PhL4Md0vAhaeIXApsQ8dHQCsZJ9SuqeBSvaxpgPQ/sU8BwkADSP2wUkAiO7tk5b4Hq147KNZB6A3sKYLSlcJeLq3yMasKJZ6n688HWBX22d3w3xoAuuz+9wlCbfCsutM59zpG3KlRWS4k1hQqsDxfOHaFTZLC4ZtcJm04Dr8zmaDoz+QYk+c+WZ7GiAf3p6I77YPD/sX5uPf9ZOyfLV/juaPvwE=);lineShape=1;strokeColor=#FF47E7;" vertex="1" parent="1">
          <mxGeometry x="299.2062738389609" y="-52.26557965061329" width="79.51744362334253" height="13.935791400082215" as="geometry" />
        </mxCell>
        <mxCell id="_RY1uGZdvzKGK2o-vaD--49" value="" style="shape=stencil(lVbLctswDPwaXTEkwAd4TtP/yEyc2lPXzjhum/x9oapyRCjaTm4ShRWwwALEIHcv+4fn3cDh5Xo5f9/9Pjxe94N8GZgPp/3ucrja0yD3g9w9nS+7b5fzz9Pj9P78MFqOTz/Ov8Y/vE64QKmNIA5v00GNxOXvydfJ/ng4LewbpdTZp0YR2MdETTuA/YLbNoCZUugAjWretk9CuXcQKIRt+6yUpLMvVACBKqTiCUQFGTJ+tQOoUgCMY7hFfKMcSBm6KD3nJlQA6aYkfdlaoQiyOn7mHqAUAQkL4J9sboBGGXEw0j1gkYcPEVpI08pFBQChlj0JBqXTSDX4NDHyEEiCL0RNQE2NmstroIY9lN6DqYkFAJi4J60ZikkT1dgDEq5DpdpzMJ8NkH6nuABUNGQSRReSzHNqS67KnnRAISmp81DnvG21nDoOdoJCsko7afDctZsh9aO45blrt0g31w91noVbaXWTyYKMQHwtUlx1HKq0JdFzaHOit8SnbmxYGpD4mKR40gF5CPN4vwESFdRAnwXk5KexKJxLKVDupRHLPBY+BEgi6QsnAqXB6ittQWYgb15dQdVaCgCievFVpQrEF6vnYIlOIK3R1N9raRzPoNJRVlODKYMsRav0ai4puh+Ig7dHEWV/YZk9mkoybzqLFDXQDPa3fjWx60WA8AJVt+xVeEcHik4UmRLIz1pEJlMgos8un/+3t4f3TffpcDxOi/Lyu9+M7WjaquX+Dw==);lineShape=1;strokeColor=#FF47E7;" vertex="1" parent="1">
          <mxGeometry x="385.4891046343073" y="-63.47488550082153" width="7.855873179263761" height="9.140361216713085" as="geometry" />
        </mxCell>
        <mxCell id="_RY1uGZdvzKGK2o-vaD--50" value="" style="shape=stencil(7VjJbttQDPwaX4m3L+c0/Y8AcRqjaRw4Tpe/7wjqU0TamqKH3nKzJY4eOeSQlHbx5vXx7mW/C+71fDp+3f843J8fd/HTLoTD8+P+dDjj1y7e7uLNw/G0/3I6vj3fz/9f7ibL6de34/fpCT9nnK8S3IQK7td8pUfp85XPM+Dp8LwGBOlRASqu+G1Ak1qUfQ5SiX0ed4d9DJKIQzg9K3uE1PK2vbP2XQp5vJOm3a9SEqFHvGYH4TA2pWpnIuUySKnKPEgs2+ZRWtLUiCfMZFsKTiIxL1KKMXck1DbOfjf3Ydu8S7ZPZ1XjkadoYq0sT15aM8z/ydxW2RftfpJG3PdRXFf2hRdClKT9gUOFODTFZ3SS6Am4nTUAHPe6DUheki4fnNlIDlK3LiErmbhU/NDSKml9274m6d3as9ZTxOuKBs2ZHNARgc4CXGxEYQB0A4CPHJB0nZY6HnEdAN3oE6qTQoLuZfSEVYPOJM89iTeAOKR9HbCUwQpQCaBdiBkuMVpbtWqrXhyJAZkOujOWJpk0r5YHJwsg09IAoAQNCEOyWy4lzVLu3CXMLe1SrrRFglbT33Me1XU9cWE8bwEknukkqVgA2w5QfIalDA2yam0SdXlnFDyrVpCogy5u8LYxGZa5tCAwZdno6aORrjTKRhuCMHO5dNrIOp6naYIg6AlpeLySHNuKkOrcLaCRgdidhAtAYJJrEnQi6rLNbAnCLAxgKXGNViO5Qne16wBSffDYLo9wiQQNCXczEyPdB7OziYtYBMgJEaLWeUjoZGwRqKMQFgVFLgg0CX0CNvJEukCxikvYFIn9hd7AESP1YyPfrJ7/vZEnY/6xkSv/nfHHkdT6ZF9wcCWRIeDLxX7d6fhGb8qaIbQGtoKAkWhmZaM9HQ6YBoou39hLxYXWMUfY2/f0zmEAYbTULUDSLk2zkPXDNrrHAigjqs0Gqmmddm6SOBSOWaOwMVBak92KAGgscSg10ycc1zLEZZo6jigsajwv26jZ+PbNbv3YYtjYmL7D6CB6psX079+i/g7Aj/dPXw+Hp6f5y9n6vv1UhkvzZ7Z4+xs=);lineShape=1;strokeColor=#FF47E7;" vertex="1" parent="1">
          <mxGeometry x="273.5924866233049" y="-54.616519286761104" width="14.024409798383953" height="10.59201453069069" as="geometry" />
        </mxCell>
        <mxCell id="_RY1uGZdvzKGK2o-vaD--51" value="" style="shape=stencil(lVfZctswDPwavWJI8AKf0/Q/MhOn1tS1M457/X2hKlRFWNpO3nRgCWIBLMghPLwdn14PA7u32/Xy9fBzfL4dh/BpYB7Px8N1vOnTEB6H8PByuR6+XC/fz8/z++vTZDk9fbv8mFb4NeMcOTeB2P2eP9RElf9++Tzbn8bzyt5TCJ19qeTDvn2hnDr7VCgUsH4h3wNCJO/3ASzk+h35QAIAoRL3AEch7dsnTzEZ+3fONu1zIPb9hhxFEHJRQO4AnCkCD8JUpQPESAEAqmvrLVkQ6KFWKqVPs5CANHt3V0jiWmJ2XfS0im+J2QO4niblIYBEV7nbUiAfASBTLhaQESARswWUDAD6u1pAQolgSskGLciDp+wtrRXR6sn1xaSJe9/kLqD3oBKQBAKiAUj7shc0xx5QcLkGW99lSeU2INo8KIBR0Po7WQBsORW+YAEFAYSK3AWNiq9Sdne0AiFTgJENTVzGHSemWh0J3lLoEzcVH8qDUDAeuPnco9X3tE4NhGopNdbXLYpLw2R6EgHEErf+WssM2pInERs0oy15O1GUVo9b9GOAaaL0LGUFgJ4uqU3xZQQVYjQVk9VWrlAqk/ZXz5Jf1HYTEHUa9GKcmnZunwNSK5zFQaYESNL1XB9CyK3et4eiHqX66k46wxDANdLX0orU3p4cVKfQWabaCLSfUOWJHSbasB7koNhWUHs0rQq5vtdUQZDmZXvWmyQK9Ga0+1mdU7aLgoStgwoIZXuImVQZ9I23c0ftUds4W0FKaAIEOTtqNcEF2tuCyCQg3o9eF/5vrw//7iYv4+k0X23W/+1dRj/N96Dw+Ac=);lineShape=1;strokeColor=#FF47E7;" vertex="1" parent="1">
          <mxGeometry x="127.94684787159395" y="174.10549895426288" width="15.117498726402868" height="18.123709498739867" as="geometry" />
        </mxCell>
        <mxCell id="_RY1uGZdvzKGK2o-vaD--52" value="" style="shape=stencil(lVZdUxsxDPw196qx5Q/Zz5T+D2ZImpumCRNCgX+PjuMSpJClfbs4WttardYa0s3j5u5hNXB4PB72v1fP4/1xM6QfA/O426wO41G/hnQ7pJv1/rD6ddg/7e7n3w93U+T09Wf/d9rhZcYxcZ9AHF7nhVaIy/vKzzl+O+4+xcdGuRlA7RTSdUCqlCygRMoA0CIVe6VAhUF8pRBc/MfCl/E9LMef4zPIuGfKbOIjtQzihUo28ZlCBPGdcrWMkoD9Ywg+4Q4BekCwhEYmQQxVai7jQgkBEmWbchTiBmrWvewmXYEcWr64UqOKVKRF7f5KrV4HiLJeLKBS7ACQfRliogYKLbzo+AQI1IHyFJDFAIQ6yFn0fJtCoYBTdhfi7zhl32kdJKxFK9F3poD4Rt13PmPZRctPhKpTXVebbyJGnan3EcenoP07dWt1jQTwqfHFSS7iThYSS2jMi8yveVd1DNVli2vmKNYctc8icsew3PgfAUVJtSKqaviApRypWlbl5JhfArRK1cqo47qpDJxXTB4OWOILllQq6E1Q7yk2B619BYXTurL3CvysqZe07I8Q1P1Ui8+hA5bUgZMnScC7zP4Z1PZDg4J6ic1YxRvA/kqHu3+E9nvxauojhOaKsLB3ihf4CP7vJPV9vH6cx7b1uN3OU9/n//2Yp0vziJhu3wA=);lineShape=1;strokeColor=#FF47E7;" vertex="1" parent="1">
          <mxGeometry x="-0.47061645909025174" y="103.06265667633943" width="6.307242672927019" height="9.353885639583336" as="geometry" />
        </mxCell>
        <mxCell id="_RY1uGZdvzKGK2o-vaD--53" value="" style="shape=stencil(lVjLUhwxDPyavarkt3Um5D+oYglbISwF5PX30WRj71ie6RS3xeNGttSSWj6Em7fHu5fjwfPb++v56/Hn6f798RA+Hbw/PT8eX0/v+usQbg/h5uH8evzyev7+fH/5++Vu2bn8+nb+sfyHXxeco+QXkOfflwWmGP4ufL5sfzo9r7YH4jRs9yRuf3ukmoftiVj2txdy43+vzdzmdqHMw3bnyIPDO0/BjYBIMQNAmixUCuACTiiE0T+eUtkHqENzGQGFPANApTQeKeitIohYoDBGOBQK4Ej6WUZA9MTAgn6OcQRkSiBu+jmOl05MAcRBP/+jTQcESuBIy+eRSUltVgDIVEa3pkqCAEJppHZ2LfabgNyd2AEBsjVH8iNbdUWAW3MmPwZOVxJga64233TFg3QuTG48kq5AgF7aAHyj4zYgUBkTqERKyIKm6OjWkikjC4XK6KVSqSILQrWOVckRAwvVt88d4KmCwNUwWYit8GwDkqV31diDnK7Fkk9XIqBGre1zBwgs3cLNiQ0gDpYZUS+NRUBXBFxaIpXxDpJaHdkGZHJjTgumhhRbKiWQgDKjgBgsIAAuKSBne+mC7qAdkC0AlUoFRGcBDt2hNm6uAaAuiZCf7oByWgF5OlJBkdaMK9atHlsQsYCKLi2tuHdAhP1hOZKJNJYyMvUHBaBirAAnFgDJVxtzVvSGR6pWnCwATG+ZLl2Ql8oU6UQBKThNILZxKOgOc4rG1sR2ASbSATYUBaS5LmEvmeqtAMil2mr1CoA03xLpqQg4dAdpGby2gHM6TSmKJNySD2zdytiCTDmdkVhnnkpfhE3u44gr2bq+v/6PbYQWItOEKryGdkHLjtISfa+R2gKeWuPba9WWToEc0idl6rwOW0hTHVDZBxiu8iUYuVEbX/YkUzEKSA+JLKgEG8urHhLJbxV5JtSquiI4UunaeSX7oNaNdgxS5chYHIfRgtosIOlUbFcjXSMUNFlsQqjNhADFzhxqE82vOdlI6wiBOq8OPYbeudNxG+Bs11KbHs1+/QDrQQtNl9l6KXMj/DbAW62rNhGX4vQskFS6ogk52WeBhAt4dPalIuIjhZ5fHdCnkG2Ab08l/R1BYD740rjZAdqqgQU/FQEvLcu3C361CeQ1BwG9XbRH8oxfjJR85gEoQ0Ezvc44XIuznY8dQ0mmPXN0UYHC2FkaacMDIWOb/XgSYDtfuabbd7absdhRAnSYmrmDvZyb/Lg+ZArgznR2bq7a84w32xHR2IpO/EzCdlZgWBLZCn+sWdjOOni7a0m62g7C5No4uroqZOSH3pv/u11/XJ+2H05PT5eX8fV3+xSuS5dn9HD7Bw==);lineShape=1;strokeColor=#FF47E7;" vertex="1" parent="1">
          <mxGeometry x="26.782612520453768" y="119.08123049392816" width="79.33130824806005" height="53.44094529460135" as="geometry" />
        </mxCell>
        <mxCell id="_RY1uGZdvzKGK2o-vaD--54" value="" style="shape=stencil(rVnJbhw5DP2avhLULp2z/EeAOOPGeOzAcWb5+6HQUXWTrH4FA7m1y3wqLo+LWKf04cfjl+8Pp8g/3l5f/nz45/z17fGUPp5iPD8/Prye3+TXKX06pQ/fXl4f/nh9+fn89fL39y9Tcv766+XvecK/F9zIlPNERf7v15NO7fLk8wXwdH7WgFY0YBBXACiUgwZUGghQiVkDEnGDgKYBvREPAGjW6DaoJADoFPUbWqCGbOjUowLUTDUAwKCYFKDIEciGQblrgEQGv8EYXQKOgyigA1eYCkO3Rm10HpSQW7N1a+4UwBv6oKqNzpVKBIBEQ7s1ZyqAS61R0kbnSLncB9SxfLIBmCJ4Qw3EOg6pLbLsAkq01EiFGLg1JwpDAwLM6ZSpVwWIfeXgLiCKl3QRiBmmaGTq2mh5gqpGKIvMCxCkLAB6h43MGyCs2O+Tj7JJaepAvFEzzIP6V6r69ABZVGjozGGqIGBb/K+nD1Ar8vLclshLu306EOvgBobHR5vFoVEB8oGqNnbaA5wTHP+F4CBhNm23UAUqIFa8V+cAFSQ2mmlFyhw833ChSv+B+v+qUBszM/QnL+u29sew/Xl5zGWR13zo0sBBKnr5DlPL2Tt4RfyevI7vCCuX7/nfyMdV5O/xTfNz4Hor8tnKR6DP3vmpI/nQrTziZ1g99Ea+olrr5q0C2wWvweRWHhR/tqVzyuP8cvIV1Adek9Wtf3B+Vef/9/Bf5AOIl8g7/VHr2mr9Jr/143v+jFb+IF7Jyleo/3D6IPlg+8XUB/PT24vzi638AHzby8cA/OP6y+QD4I/Xp6xZ/J697vwKz2cn33C/8/Lv6XdTHuZXc/KYP9Xpg2ZuX/+3K+Nvkrf8lJEe1h9bD4/6C5t8POpf5gJw2B+t/FH/tfJH/d3453B+YF0/D+cT1v1izj9Q/6D1KfgayZR0vA7uqWxvznM+hOebeivzJ7y7UND5IgP4gPNtc/Mz4me0/Uvmc9R/k+1fMp4A9bMdlzD7i+3uDK+OzSYXwyWEW7wkeHUZq/BdL3UReT4uT9xcGpFv5FpqeqM8iaAW+mIeBhw+ReNi2JMWv/ejW6xH47aHubceMPmSGPKzxJV+GyDDAlddx0tt1ci7SxSzsZDrOV7TmKWi5DCaEWcJ1IETN6Ck6UIlc4vEU6sMJcZLucFI+y1k7rCOzh2hLkRS6NBgKYBhMj9QR5MKu943t4pYJ5NxpdMArxCAWR3VDKeb6z76ZvcKN6Pd2tAGvP/MvaUuYb3BKjDcdmckikil6ka6Bq8cc6IxgIMN9TZyX5sCLsSCCNW+Ao2lE8BOJ5BzArCDl2Q1sjq7SQpvVibAqYQK/i4gYL+a3dn83IG9xO6DCprWJmBYANoHzzgUC0Dz+1yzRwfAKkWnUkX8ltrX3Bsw+d792ekIID+uX7m+nZ+eLh/Jbv9vv4rJo8sXtfTpfw==);lineShape=1;strokeColor=#FF47E7;" vertex="1" parent="1">
          <mxGeometry x="-788.5071333411729" y="-276.81199146224185" width="230.27918110589647" height="144.8240283491096" as="geometry" />
        </mxCell>
        <mxCell id="_RY1uGZdvzKGK2o-vaD--55" value="" style="shape=stencil(7VnLbtwwDPyavQrUWzy36X8ESNosmmaDJH39fcddyLUo76Q9Fsht43AskRw+fYjvnu+uH28PQZ5fnk6fb78fb17uDvH9IYTjw93t0/EFvw7x6hDffTw93X56On19uDn//Xi9SC6/vpy+LW/4ccaF5nJZUEF+np8kl+LvBx/O8vfHh618cDlb+XBZ3ldXdJDPzlciH12VQb70A/flxZXx/s0l8v71v10cL1B/Wb66mEZ53CcxeT9eP4gL5P3F6WhO2NMTfZsTP8rjhkLtE9sI0O6RfUCyDoueegyMkNFEMbhULgOW940ui9F5YtPkrVEBSESHLDsnlEYApZN+CyBhkNXSFAAlfijwQ50AxErFW09HMINEGgAmkgGIROkSdk6o7ITgYhgBmV8p2GgDgEXzDqA4YWYNnf0bAMtfsJJOJzQOyEbp2tl1ydNaLCCxFCCTWavLJOJAvpIsoBA/ZOSIMaaTuEp0QADV8UopOSFWSojgMYASMhUhH4hQRkAOPM00mykRtJmcEKJrow5lzSP7mU9dG61UsqvEcahtMnKpCgdkW00qjwck42oA6yUvneBHQON5ya9UWwGVWil410Y/KCoc8wOIMJpVQRZODXsCtCJKg3xt1EGRBFi6RxIYyae1F7FLEdeKPSGzmK62oEAHdqWaOvtXQHKB+AFEMNTQwDuf1BuXjeMaazWqjYem3ZW7AJ3Y2kAWojRsEtQCWKqE1SVbgBClAdAxCTTpT/YBtVeDLYCkSm2uVHslxlZVFycdWCIDoI11ugXqBy/Si+YGwfofnVIf0kZgdlWXxQIa81yzMQo+BhJyAMgEyNxzfgIUTqbQphMYYA3hrQ7sSsmmDVipMj+k3tdu/cCsBMDsaQ4oM5kYv3Ov41u6krQBQJ0ArLLDD2WOUXYCatYco8wPbbKS55lM+xC2TUyk/1G1UxMAbK4EwPSh8AMrEAtg4hLrsJYrTQBKjX8GeJu+UYLYINeKTa6gIyMfjGiLXKaTH/op4+klLRBAaS6O8QCy0KlJJoDSmoVmw6TKTX7e72eCTfjLESQg/kyGGyXYFiGg8E4tFosgtIm2Jwu0aPnQB4yVTI0uTrxMnSufdwEw4ytaokxidNn0mHY90QYIOuh4paKv9fc6pr6SeG88LSrQaUaiNBxXRjJlvn+L00SdlA75Ue3YlHjIpWlFlni+x9xmhsvId3xvy5Yz4G3Z8l8sW4qL05WE0VtshxULTcZJ7FCzAIjSUeyMAkAlMY28VLIFROIH721VBPnYRJ2mHBB6Sdo/oI8j6xq70UQ5TUDLXp1wW+wSe3lCmCq9Ld98F2CDqNhJAMUlsTWLHdYb3zc4Gc2ZX5kQbasXeOnEqDQ2bnx1sLwuGHkh15+/QvEOKaiNMaF9JALA2/swtkG+qpHP/JNGtO9n9QbypqLx8QLyZj73dEKa5flwMd8nUvvP+ka6e1rsaVJcXwf8pb8SXRnOfEg0Xf3zV89X5fHjzyfWj8f7+/MX2u3/7SdZPDp/zo1XvwA=);lineShape=1;strokeColor=#FF47E7;" vertex="1" parent="1">
          <mxGeometry x="-684.0742996087447" y="-171.76629870884176" width="28.06771327717209" height="42.5754641948435" as="geometry" />
        </mxCell>
        <mxCell id="_RY1uGZdvzKGK2o-vaD--56" value="" style="shape=stencil(rVjLUhtBDPwaX1XzntGZkP+gChNcIZgykMffpzeuWTwau/EhN7Ood0dSS2rNJt68Pt69bDfBvb4d9t+3v3b3b4+b+GUTwu75cXvYveHXJt5u4s3D/rD9dti/P98f/365WyyXXz/2P5c3/D7iQpOWF1Rwf45PnDj378HXo/3T7vnEPiaJwdo3Yq8Sm7H35P0piXpjn+Nl++wkjOfxkgOxx/njYB/FK7Gvksb4ZGnk/FnFpcF+DcAlez/a+8gdqJJ1BDQJiXtcBgBcdpWG1I0pCFU8ASBnZcxxRFYYiZq4MagxSCBZjl6cyVqURABwMY1RWohLjuRLP/EKyP2bZwEqmqx99SSq3cHVvkgjaQMN1HigkggALsc6AFIQT5iEmKsBlE7e83kOnTdrLTh6pIxaNMVTpBBAQXMYo1RQnpkAUA0jV6uj1VBjj/oKqDRKFQ1ybDANRyqXAS1IHZ1uoDv5QkNHGQtUETfiA96XDSBxrjabOC2SSTUAUKMFsMSp9uo6ASgH1DGsWmmjBECLBSgpuAUwdiV4lUgbW440VhyesMTh38lZQGI+tCnT2tl1CWCm2+IVGVeIiam4jzCcByBN0xcqB8QpSqwVA+CCzYOSAtK5HpA4lulsNQPCwHorjuSrBUSWB7DffAHdm+fBqwUU5kO1OuzzEs1hAnB6+wlAyadSnI1S4ACdAJUAvFvF5kmqA+8CbSpqmmo9UxCRA9xUo8yJhZzJApTMrCUoI/tO4vCfEJgpxXgBzhP+YagZSaaRSrKGA4wMb2uozw/SqehaooGtXsLowzKLiQ8lW+1dA11OoKUNYfGKQHxI2ifIKmha75/nAU6iUUCR71de0lilqdGFIwTbaVKm+sQHOxeh6ypbseykTp4GaappKF0l7582Smh7ZdUwSftAe7HPtnoAYKISIbXS2/c0nk8aNKf5gqMTCxGpY4zglSdMRYqM1MBOFskXUrGyFXFmcx1S3qwP2KRZA8jBjmlfaYvBImo6K3acRJgKQBinrne0xeBIpidh6DLmqZVXmV4GYNE1MzdR2TBffkQqxubLlUSbxXx5k2i/g73haaICFxyr9rKkscKpvTF82DNJgvQYCkV6bwB7c/eBzkUIBHtzeRMkkPzO9r6vBFeex1M+zP66LmeujKfr6+6V+XK0hGc+uF6iV/KNq5DP7fHj42byYff0dLzYPP2/vcnEo+MtaLz9Cw==);lineShape=1;strokeColor=#FF47E7;" vertex="1" parent="1">
          <mxGeometry x="-650.2975424608758" y="-169.36716600689033" width="37.11756756393965" height="43.95747387394963" as="geometry" />
        </mxCell>
        <mxCell id="_RY1uGZdvzKGK2o-vaD--57" value="" style="shape=stencil(lVjLbhsxDPyavRJcUc9zmv5HgDi1UdcOHKdt/j5SDaMW6R1lb/uYkShySFGa5OFt+/S6mRy/nU/Hn5s/u+fzdpJvk3O7w3Zz2p3r0ySPkzy8HE+bH6fj++H58v761JDt6dfxdxvh74XHlHMjOf64fijp34fvF/h+d+jhqYMHihgeO/jsrgMs4UOHd44E432HF08iK/A+Ucgr8JFJCsRLh0+OGNvT4/NMEduj8JkKsGemube/CMV5Ge/I9eEtAY4ftHpKIgfWW8MfiyZkQKgWxV4RJRMDiySQZE1wvEzw1YNmBueXCdGR94YQlwnJU0qGAFSdA83WJCCLGlVnvQTcWgpF1nFAwquEJJqQHCSo1GmRBm6thCJmDQOCjTRKBmZi1owAAnF3itEi5p5QiLFfs9MEpI0WCNYEwTOErAkeJET7Hc0MWEwSNGHGJukyU5MQZFAjGG0kvAZL8FiuLmrCjE0So++CvaTLRrrWhcXARU2IQN8tqU1xHRCyqQIJE4ohoHahEWzpA4G7n6N+MEXRhBQwQQWi5ijYFJubjL4dJiQzg2CToqkCgxxdSRCj7wK9ZPegm9B8cZsbMe7spAW2G3f26gL117qBZAigDrR+w5iUQaxbR2McG4Bjw9Xtt7UPtUx3chTtckxe7UCeGBSyGqLenlxg0Cx+1LIq/LAl5pUtN69s6XnlkYH7nWR4JOE+M4dHHu7jNTpRqfI4Oq+p0fnax30tWEwBiJ9p1qMLSK4KLwo+Q9udPppiIYseHevYr4NH7XdsTFy3VFU6R45Ux8BRmLIeHYtg7ZUAhteH/7cPL7v9/nJ5cftf31bUT5ebDnn8BA==);lineShape=1;strokeColor=#FF47E7;" vertex="1" parent="1">
          <mxGeometry x="-781.4306290111022" y="-152.66107150335688" width="151.2131671920457" height="68.30648428108843" as="geometry" />
        </mxCell>
        <mxCell id="_RY1uGZdvzKGK2o-vaD--59" value="" style="shape=stencil(lZbdUttADIWfxrdnpNX+XlN4D2YIjYc0YUKg5e3R1mOIlkSd3vnv88pHR8c7yc3L9v55MwV6OR0PT5vf88NpO8mPKYR5v90c55MeTXI7yc3j4bj5eTy87h+W8+f7/mQ/+nV462/4s3CNUEKnAr0vV2JCan+v3C3Abt6fAxmlGCAJWnWAhsoGyIKaXSCJAUoEeyUltGyAqis4QG2IFmiMFh1AVbIltYLE14FCyFYlJgLRdSITJNolGtiRKRGq7ZzqQE4jooBtI2oFO4BUkAVK84EMsrrmBhIHKGMjUkV1VIphXCGqW5zO6W1pFggITklaQK4G0CKzs0KuaMkCGSE53lARrZlU6OB8dG+TXUFbGfyBoGFG6V8zykPjCLFcB87c/OkNWoPh8hI6MBbQofJa3UdysGtbX3FZJh36YUg1GJySeqzYkr6i53KrBeXbjFYnBjQa6wBofHozmhCHoVZZHTN1QP4HkDima09Dx0whrm7+BBKyE0yc1rQ+i43ofHRBtW4tDHHaEMYwzrym7cXn1ar2AxKvKXLteWuLSODg1ZNsYgRfUc0TWz831xQcR4GYkZweBxmBBHEmRz0x/Bm0AY6garpBofHfpgdfO47HebdbNizn98cdil5adjdy+wE=);lineShape=1;strokeColor=#FF47E7;" vertex="1" parent="1">
          <mxGeometry x="46.13312348278032" y="-238.05239933122152" width="2.958379694397509" height="2.967455013652478" as="geometry" />
        </mxCell>
        <mxCell id="_RY1uGZdvzKGK2o-vaD--61" value="" style="shape=stencil(lZbdUttADIWfxrdnpNX+XlN4D2YIjYc0YUKg5e3R1mOIlkSd3vnv88pHR8c7yc3L9v55MwV6OR0PT5vf88NpO8mPKYR5v90c55MeTXI7yc3j4bj5eTy87h+W8+f7/mQ/+nV462/4s3CNUEKnAr0vV2JCan+v3C3Abt6fAxmlGCAJWnWAhsoGyIKaXSCJAUoEeyUltGyAqis4QG2IFmiMFh1AVbIltYLE14FCyFYlJgLRdSITJNolGtiRKRGq7ZzqQE4jooBtI2oFO4BUkAVK84EMsrrmBhIHKGMjUkV1VIphXCGqW5zO6W1pFggITklaQK4G0CKzs0KuaMkCGSE53lARrZlU6OB8dG+TXUFbGfyBoGFG6V8zykPjCLFcB87c/OkNWoPh8hI6MBbQofJa3UdysGtbX3FZJh36YUg1GJySeqzYkr6i53KrBeXbjFYnBjQa6wBofHozmhCHoVZZHTN1QP4HkDima09Dx0whrm7+BBKyE0yc1rQ+i43ofHRBtW4tDHHaEMYwzrym7cXn1ar2AxKvKXLteWuLSODg1ZNsYgRfUc0TWz831xQcR4GYkZweBxmBBHEmRz0x/Bm0AY6garpBofHfpgdfO47HebdbNizn98cdil5adjdy+wE=);lineShape=1;strokeColor=#FF47E7;" vertex="1" parent="1">
          <mxGeometry x="-89.16099416427824" y="212.53583596289604" width="2.958379694397509" height="2.9674550136526117" as="geometry" />
        </mxCell>
        <mxCell id="_RY1uGZdvzKGK2o-vaD--62" value="" style="shape=stencil(lVfLbhsxDPyavRJ6Szyn6X8EiFMbde3Acdrm78PtYhWTqWaR21qekURy+NAU7172D8+7KbiX6+X8c/fn8HjdT/HbFMLhtN9dDlf5muL9FO+ezpfdj8v59fS4/H5+mJHz16/z73mHvwvPUWwzKbi3ZaFFSuHfyvcFfzycbvCBXFL4ypTSGJ+Is8Z7SjzGe0euKkJmKhkQGoWoCKmQL8ACphAUISZy4EopUNYEsaoCm3OhwooglyzgSlWM9poQieuY0PwapE7wxG1MYDlBe4nJgTBzpqZNyDAKzJS1juRAB/HVG3zA+GYMJo/vwyZmVDfw+v6JWkQy7fZ1YZMHIvp8gHgMSGLG64BJhOuGh3RmioYivlE1JyRK2EfFWUIFKhVCapYQPSTEam3wIAxCCGy9FLENIZkwbOjIVJdCFYctFKMjVB5ni/X+AZbf2aUa71adDPMyGbzHESjV4B32T2WD38gzU1fCZh5bf3qQBf/Jy7KVBawv1KiiQsq2oYniHI5AM5oOqw+GLjUEsRmnWcmWsBGELxIysa7WEuaE0sDZMSFEauCEuaGZPChrPRu2TFPg2+roUVM2HSdGKiAV5ravvRQZ5v48WOjAJVkBJ8hUEI1WPRSrDEden1AzFF+2w1SrMH16MvbqmCkBp7p1lut4hmOIW83rwnN4TnC2vn8UtAHeG7xMXsBBvRp2fIUdqlfDGwcV6CAz2HFcC+YIrxXBnhr0j9m/8db++v4iCIb7G/+0sjbEEd48J2SOgoIIn54fDPrfV58r23j5+HgbPR2Ox+Vpdfu/fUvJ0vIOi/fv);lineShape=1;strokeColor=#562BFF;" vertex="1" parent="1">
          <mxGeometry x="-727.3129366288849" y="-116.95910895646034" width="152.94262090708264" height="7.974012770556756" as="geometry" />
        </mxCell>
        <mxCell id="_RY1uGZdvzKGK2o-vaD--63" value="" style="shape=stencil(lZbdUttADIWfxrdnpNX+XlN4D2YIjYc0YUKg5e3R1mOIlkSd3vnv88pHR8c7yc3L9v55MwV6OR0PT5vf88NpO8mPKYR5v90c55MeTXI7yc3j4bj5eTy87h+W8+f7/mQ/+nV462/4s3CNUEKnAr0vV2JCan+v3C3Abt6fAxmlGCAJWnWAhsoGyIKaXSCJAUoEeyUltGyAqis4QG2IFmiMFh1AVbIltYLE14FCyFYlJgLRdSITJNolGtiRKRGq7ZzqQE4jooBtI2oFO4BUkAVK84EMsrrmBhIHKGMjUkV1VIphXCGqW5zO6W1pFggITklaQK4G0CKzs0KuaMkCGSE53lARrZlU6OB8dG+TXUFbGfyBoGFG6V8zykPjCLFcB87c/OkNWoPh8hI6MBbQofJa3UdysGtbX3FZJh36YUg1GJySeqzYkr6i53KrBeXbjFYnBjQa6wBofHozmhCHoVZZHTN1QP4HkDima09Dx0whrm7+BBKyE0yc1rQ+i43ofHRBtW4tDHHaEMYwzrym7cXn1ar2AxKvKXLteWuLSODg1ZNsYgRfUc0TWz831xQcR4GYkZweBxmBBHEmRz0x/Bm0AY6garpBofHfpgdfO47HebdbNizn98cdil5adjdy+wE=);lineShape=1;strokeColor=#562BFF;" vertex="1" parent="1">
          <mxGeometry x="589.6625352474862" y="89.00642419819019" width="2.958379694397509" height="2.9674550136526117" as="geometry" />
        </mxCell>
        <mxCell id="_RY1uGZdvzKGK2o-vaD--64" value="" style="shape=stencil(lVjLbhsxDPwaXwmJelHntP2PAHEao2kcOOnr70vV0GZFYWfdm7PRSBQ5JIc6hLu3p/vX44Hd2/vl/O346/Tw/nQInw7Mp5en4+X0rr8O4fMh3D2eL8evl/OPl4fr36/3bWX79f38s+3w+4qLnkJsKHZ/rl9KoVz+fflyBTyfXtaAREFGgFBiAKgkbgRU8nEbkCIlsSZxBYBKwY+ASCFsA3Igb05wJODSOXeLO0C/RAEA9UkZAYEqMEkNyHUEMEUPAEx5vEP2FB0ApL7fCuDAHTRMJQwAdXQBgROlBo+ASAJOqL47sQOiUACRrur10aRQyYFLV7EmKcCDSOsJhhoh4xPYUiM4CgAgmfJoEidiFDi1OI0ARwlzSUYueaEIAqdUKwZQKCaQcYnceGmfqaKqIcQToAB6R3UrW0ACJ2iYWCwgAi5pmCRMAOBWViLUCQACx75fcRWHDPJBvV7GUqlbVBA4H0hGtyqXMriDdzZwXCmBOGR7QNA6BpjhbXeIWgLA/lqCxiBof0HNYSqTun8CMXC9nizrGdrvyOdxvZ4I1xv7QyHB60dKBPUP6J5qz8iIoIwA/lxqzyq+iKPO9loulDJaX0f7lSEJUZo4T+tBGntKdbIHEbo3mNV9A/A/kyvWnyhe3LvFKl4F+IdtrVY+FOAftWcsc41vIF7eiqnGZ5hfccoXJFy8tX83H609e3y2HT/s8I2Nfzys6ppfI9+C7NjjTH6l3hZu3J938t3Yr20H6Q/1z8g3FijSnO3crWLDfP+/9blHZ93okaTr3l7Wh36jrQ6WxwKq/Qj1l9KHjUVjwv6ihM6mIEJ75ibvuhC5UUW4vsGNMmVh1I06yPWKcaPQclC+NiWX7Ho0OrENsMPi1XUB87Ee1U8Vu2wICmc/VdPG/4uA35LrpgCpJGIEUL4b1adjDriBd1NNaTULxKwdMTbVlOEMrnNTMdNl6XV7azIzbVUn5AJM0jCYEUI87ANtuhzjIBEmss6vZQKgyl6m0qUAh4Z26UxbAKpdQeTaTJ/tCchLOtObkVqEPMgeHaBNeW/jI0rPaCeCmqgAt86vLToCIwE1v+fUCrk0vxitGL+FMCJZj0BzkGqgEu0lUCDiJCuqJgQgkwK4WL+iuqEAb+6wDM1bAFNYq9s7wQCkwISYTRL83DJfWnjvBONWcVA9zoErAsetmRql9Hp7I/v23iv3Afrj43n08fT8fH1dXf/fPqfqp+tTbPj8Fw==);lineShape=1;strokeColor=#562BFF;" vertex="1" parent="1">
          <mxGeometry x="853.2965500317814" y="345.0444981480525" width="62.74533707640009" height="7.299932747828547" as="geometry" />
        </mxCell>
        <mxCell id="_RY1uGZdvzKGK2o-vaD--65" value="" style="shape=stencil(lVjZbhsxDPwavxK6RT2n6X8EiNMYTePAca+/L7fGblYj7xh588GReA5J7eLd+/PD234X3Pv5dPy+/314PD/v4pddCIfX5/3pcLZPu3i/i3dPx9P+2+n48/Xx8v3tYZKcPv04/ppO+HPBVSe5TKjg/l5+SZLd/x++XuRfDq8r+VLF9fJZpm+b8kFC7OSLtLotn7OU3Ml7J6lsA1KV6npAEW3bgNik9haYySURQBDfq2S/JAKYzmu9T52EvA3wKi70gCqJ2OC91B5gfnMsDChfopRIbJ7/neWrOcETkyXWXr5JJGkUpPYu1TTn1Yb+kHVqFhH9vanbG6wqhVzgmzQANOrRoJIUb3BKXJrFK9rgWAyalD6zNVKVUhANGIVG8i5lib1KtYqSsCUVHxHAyj/7wa1uPmKr/mtfO5YZjZRCcRIhNazASXUWu8F3gBbpDdXPJi6A5YjrgCK5IiCS1FC7AQBJPGFJtfP6ODSjJBJpHbK1OWp085IcAjwDVLTBlGTJZ4A6ADIDqMSAgESSzwBahhtIHJqRFtCSlSiJtAGAVw1QSODaUpALoM6Ruc5LzokDFtCZbLeuUPBrm3vwFiAPAJobTXzC3LgRuRIQoMwGo9KKgEaIyZIpDyoVnn1uKAhGTK3g2GBeotlnLABMprOjtwDI91UKS1dTaegoSqjPjAb6NoDnALQh0zbahgYx1Shzq84mrmuURdqS2SGAGm1t1KPRVKU2z4+rOASi0vUadTdoICKAkmXDkVKXMXaTygb+jryoPwnw2KmtywXW5drcQFYAVhBTAwFAoUVtfRS8ZOkVyA3WqSH7JkeTorZ1CQh/Ffzr48ayT610csSvWQe/RjqU5Ti0uUazL9s2AoAkyubEYaDRQIeBlLBD2OjKhjJbkPCGZWXZmqZLb4OlK2vVQQdAoDOWbQSaMQ7MaFvKgCztBurWKyYw6lua7Ir5Kjl/YKVqkwMJgsdMrbwlprklL0ulNWl2vsNB2tYDRt22ycPckPhcbHtr7Lk+FjpoRDc8BiidfaLiXGxuY+VstZP6rPCR139ClYoEtgB5fMEJkkkhlIK7t5PEthk3s/qHPCM8k4eg8cI0+Yb6eJLV0zqWUH9G2R4D4GaC3ZKHnrBcuCUPfO1pZzZ57Xt/oE8l0/kK8qxoJv3huYpW/eQflL/hH2jjic6QFl9FebYMf/ZF8ra8ffh4/nw6vLxcXk/X/+Nzqf10eWqN9/8A);lineShape=1;strokeColor=#562BFF;" vertex="1" parent="1">
          <mxGeometry x="794.7437785109523" y="354.38289662554007" width="48.146476806406795" height="30.035916450758446" as="geometry" />
        </mxCell>
        <mxCell id="_RY1uGZdvzKGK2o-vaD--66" value="" style="shape=stencil(jVfLctswDPwaXTEEwec5Tf8jM3FqT1074zh9/H2hqlRN0NrmpjhYEljuguAkD2/7p9fd5N3b9XL+uvtxeL7uJ/k0eX847XeXw1W/Jnmc5OHlfNl9uZzfT8/L369Pc+T89e38fV7h54KrnhLPKO9+/f2lUqp/fvm8AI6H0w0gFypiAdltA1KmkCyglG1AjJRKB2DnyIEtgpCr/Ra6KQCIo9xvUR0FUDVryrEDFAdpYqbcp5QSBQY0ketpjULswQZUe1aDowrWXxls8b5Qku14b/PhTClvxxcKoSeIMkhH8+GeH08ZlCuBou/iHUVwwlHXZxOPJFSCzUcXSCA+UYwmHgmolMbeyicFYALVo/T8SzuQ+/FM0ucTqKL1mVLPZ26EbcWzsT15cF6lNjWu9TI5pJ9C3AuUPQUEiFT6E2Mhj45AKLIFBFQDkx9SKkAUWTkZikamyZlyNKxWtEGi2qsoUwWqmOP79WNrfJv59BUL5QALNqrQtoEZNYfsqCBXCol1pUfx0fZ1tRGKL+TMgbWbZEvVJZh6kUYr24spwHxGVyZ4j82u7+stFMF5zV3FeOa/bSv314xaANo4UTIAwZSujNy6MmLAaGMA0KvAmIADBMjgMo4kQNazik1Kq7DuX97R6mJuv+DgONn2LhmPB+uMtSqvwAavnSGYgUW9hljidgGsvUinKiANqXYk0lkSiU8HQUOr+ruCHcZRU+WIxDcOswrwyNDDuDwD0D0brOMUAFtGav5aAZkcOAcddc0kogDEUi2tp68AbeOohkqxT0n7SELydsO0qcShLe4hpMnlo0mpScHdOZatVMMdcuulK6DAGXI8OgVUYNJRHFoVcsQsP2cB6Bnygeedfvx7HL4cjsflbXn7f/uY1J+Wh6g8/gY=);lineShape=1;strokeColor=#562BFF;" vertex="1" parent="1">
          <mxGeometry x="800.8084691259924" y="349.43733354462256" width="12.275744115188312" height="13.637077743806271" as="geometry" />
        </mxCell>
        <mxCell id="_RY1uGZdvzKGK2o-vaD--67" value="" style="shape=stencil(nVjbUlsxDPyavGpsy7asZ9r+BzOEkiklTKC3v69OUyfHMtmUvoXgjXVZrSRv+Obl4fZ5u0nh5fWw/7L9sbt7fdjwh01Ku6eH7WH3ap82/HHDN/f7w/bzYf/t6e749/PtcnL59HX/ffmFn0dcSpTqgkrh199vIpX255tPR8Dj7mkEsI6ATFkhIDuAUEKASq2NAKWaLgM4U+UBwAH6kAvxeANHCsCk0qhMNwS5DJBImkcfGgS0SOKiVCjkywANU+JCv/NtQKE4mhSFIgirViplBDBxAIBMmgaAUgZpaEpptKhSZBBUO+/SRhk4UCtllwRKBWQ59oj38xkS1XincQyQJQUYZBlqDtBIQIR0Kp3WafK2Rf732VgHImr5lNFh8xicnyozN8r18vmYSEeAxRg5bBEqI4VKoQQ4ZwHJYeRQwC6bWo2lbDRpSF2aT4IUqoBGOVAdAS1D/cqx0/5UN4kEmVQpjGFVJQYmcfGJ00YK5OhNQEGA2uVtBYiIqlNxqlDDN+gEqEDwWDyXDFAQoE15MACgtwFcpg0ggK2sFKsHKLrBFGAKK9JgA9ToARXlQXtMVlxCvdAAST0gI/K1ntcVQDCAJ5MU1bRF3bW2YCqAwiS+GS5XIG5UquFdTlgvm2oUaaWVnO+exhbkg9WoI1PD7CtejRcyRegDO6cFy0Ylmfgt6AYhnmsURUk6E9YAxA3TregBUDaM/pNJDdeom4gX6QNN7v0A6e1g1SAapjePTlsLUnSDddkRIBXPPrGT+dRGBdaozQ5uuKqRKpodTg3nNAoIBVBxNnw58hWmgqJEOrI7K+wPJ0lZT0ugGsK0lggcD614xvO2KMHpqvXx+h8neuY+3Z1ogQfiQOws6oPHpYHbKRJW4Ra8qEaoR3paTc8DegacO5fV2V8B51ddY7XyIJU/6+Fqokf6ZYXr6sZi2tCSZDvOWJnL+gwAYr83rm3LNgxoWtRXJqfeTy+tz655GrEU9ULbS9gD0ERseeXqTSpAjqL2TXDlNKPasSbQfFgz4KoBxAHwu4cB3HZ45WUlTlwyQAJ5MKrF+QkAhDW2iXwnjboEcFwyQAYVanlwjccA0Afty9cKEEHi7N88mXQF0CankUmLCE0mIacNIJPTKKyLjE4AlLjl4WLUpSvU+J9nvWsA+3B+RbzfPT4eHyHX//evjvbV8cWSP/4G);lineShape=1;strokeColor=#562BFF;" vertex="1" parent="1">
          <mxGeometry x="826.439031627117" y="362.5958405386086" width="34.42412719570284" height="52.29261754777032" as="geometry" />
        </mxCell>
        <mxCell id="_RY1uGZdvzKGK2o-vaD--68" value="" style="shape=stencil(7VzLbh03DP0abwVJlChpnab/ESBOYzSNAyd9/X2pGhrPHM49N94lwN05NzwzFMW3qLmTN18/vvtyf5fj129Pj7/f//3w/tvHO/nlLueHzx/vnx6+2V938vZO3nx4fLr/7enxz8/vn//95d2knH/98fjXfMI/z7gYNE1Qjv8+/yAplPL/L78+0396+LyjTyEC/QglMfqiB/pS1xtP6XNIx+dXCTUz+i4Heo0hE/4lCNDnIIS+hHTkvw7Kfw0Z6FNo/TK9Lmlv8okhEn5aKONAb7/ouEzfQ+wH+tSDREaf6pG+hEHkb/Qd6ZXS54z0Uim9e34i8unraTv6SNdbgB8JQyj9cPSUn6qOH/p8FaTPlH918in0+c3JvxF9NvqjfqYaIt3fVpFe9HXP5/pcj/KZHozzA/SF+ofNm230NTTCT4qL3R2gkgWnzd/sOKpkx0zBOgBkCe0cUJfG7wFsDbZExTUwJ5fUrcHstBFAQ5bE3BwDmF9xgMTEOpyUWqjkDRaZvFiZpk4hgqmNxeQ5oIYCttBCZrFPlynunDUzfltiB22NoRNvauoN4WAGXBKeTOpDcNEsfohgADf9ZbokdWnOFpGDEIMWRY4idfDSMYJHagxGX46a12mCY/SQUZhIB39BgpCfVhA6B7QwjhzVzatdAoCTb5aEMBm5rKINGkUMAGG5J+qGJ0ARwOLmBBzX0DNP7FpIDQGF7UNDTTWAMltoKzPbAagqmaoqAjoTq4Y+3BsYSwZwUlLixAzQHEvlCsBJiTkxA6hTjcGUTxfHOwDz3KcAqhqKutSEJjEGgCxYyzKpi28AE1Wu3hoq1DkpCNdWCLml00TV3Ew/slQGtQcrPFpEljJZdBG0B6vVmCu20i8fxVrLssFzgHMzBmBitSXmozOulsmQgDil7jaOAiwbA5YaNdHqTNS8N60gh9uHQSOimn01fAMzIBVX1BqTVwBHv2RiaERKxhIE9amtRPmMY0gQS6H2YIoQobGQqPLVuJ6361wwKRnHsGizELYPpq2QCZRM12AAaL4UXQp/iaUBFhdXjnlRvd3GCfEaJtYGAB5FbePkaA+2qsEaHmllFruNY27GlA9KYssxOwlZWtEZW9rLKizVpZu7JhhrMujAUkA6TR0s3oAzto1jUmqurrcINFifRNCRtbb09xygWDvYL7SSdq2DkWmx0Qea6KjUCRggwRuU5hoToAgoRKwT0BHAvPcEHFVjNBqyTt7QeENmYK5hAJbdT8Bx40bnLS7bh4oAKtaO9jA6b9L11SPcAeii+9KcPeCK8nXHEuu7eW3ttNLtDU00RV5ZdudnxqBR0TJnCBCj015RGxggBm8umdvIxwAx0lKvSwBU17S05SIA1hBXRnQJEAcCWIkyAYqAQvZhAgoCElEmDzAT6VcAFQGVdeld290ALLJ7sb54z+/cuGlTxLl61XixqUsASQ7AVUPaq97gXF/naeU0oOOimwUIFlHa6jJuYbSvRsR5+zfjxlnyzeKuxQ9QDUuYKln02HLzXdLHPJk5FThCsLQyM5bGSabLssQXV7oBGmfJ9SlmTc4A9eSYi76hoPKVzvv2svKp3caxGn8UbMO1RE3UANh2iNQZz0WDPeiykHNAc+mMvYFtXHPuPtKjAQNAljjd/RWACygsUE9ARQDreQ1XNQ3e6BuuKWAAJfFhbF33feJ6ZR+AJd4vGq4zOISLVZdT2bHEujljK9B3ANbSHa7tYACqfIqV39j6Ct8PoPbgWUr0TOdk0ZHrkhdrvKYaPnVg5e6JasTVyfte5ePpz4l6R64a3oASDYqnJsrOXE+cQKZF0Imb4V2EE0fGW+snrjLTgnq4TGCaKA/sw7kZ+oZXA7aT9C0+NG7TLmTNxjcDyNL+XYxjdZkBIE7PZiVzAu5wuijPlyrmfMKL0SlWOAkutKSZCRYkJ3UNLV3Kl7pnibj7XWG4rZp3vo0nGFOydKZw5+pb5Z1FlIwHbMrDaHcnci3SmmaeLB3VtfE1WHpfIb2v9Cj1Vr0uwK16/SmqVxh1MmdI22quejUrT6xLVl3u0NaqLtm0FgQw931r0S7ArUX7E7RoOzY2xpXhRV1+bm/TbA2CKVnj407NsaSNlopNQoWTIKHZiQ4EzIN6dlir63RsS2eEliha0fMJHxdSwTLLMiyWnGjC1onlS0yX5gH2cR/m8S0JKDM7AkBZwzfngOQGtSu16eImc2ejj007NHSVc5yBvUFxtKBkGh/mCTUM47cw2GhBxPR+zjTxU3YYqrLUmKUO1U3bFd5FMNWAJNHEQNVb8Eyk8vaPAaB/Whs/P87oBDRRE51XAhoC2Bqqa53MNzCAvPKaQ02YL9XBR21cUKydK19zozY8ipbqhkj4gbNpP047VHqOb46xumkHOj7nps9Nl1jBIQ2b9yZoOh3qRgCn1yCLlk37d2K9MqsGE+5aqD2IO/hvmTbvxY1HtE7Lgdt06ALcpkM94AecDoVspg3aRJiqAaeQiR7TiGu4zvyG61KFTCDxqfvmbnDw8wQDQEC5OlIOzjtzr1Sx89hpT9pSVKiN56UUJtOEF0Ryoro9rz4AgPvJeX/kuGtZaJDOiuFn3k0i2/xyU2hb9KD1TN7uju0WzVpwc5fc7aTOFh3Ri0nkvVDXILOtjGTRSfHClGSaLJkiYHuWnx0bACYMM6++U0EPMO+gMICsNHsPINqasmOp0c59csPY82YjOzbCDly+0g9wM5KVevqGscc0heUAt3ukt3ukQP+D3SOFKtIcGTusc/PpmYdwxdpljqezShuzeCtdEptOX03UfcnJAjLealN+69TdUlUeaZIrjLj+RPSgRel3B6KbGo9U/6P7TkGmYcmd6M0eGPEn/vm8EPRxNdHLoxGPYCzosUOeiEfDwicfIvp/4TcJIvrPGYSJPkT0n1fpwX9Ofoi9R/Sfwu+BR+wEC78pGzEDn/tF9e1139G4Tm9/vHy048PDp0/P3/zY/z9+5MN+ev5AiLz9Dw==);lineShape=1;strokeColor=#562BFF;" vertex="1" parent="1">
          <mxGeometry x="849.1480728442848" y="359.7546328674837" width="218.53233897758346" height="48.1815890162483" as="geometry" />
        </mxCell>
        <mxCell id="_RY1uGZdvzKGK2o-vaD--69" value="" style="shape=stencil(7ZzJjh3HEUW/preFnIe1LP+HAFEmYZoUKMq2/l6RbtbrqhvVp0jACy24o1p1X2ZkzEPmU/7ht7c//frmKYXfPn/6+M83/3n38+e3T/lvTym9+/D2zad3n+1fT/nHp/zDLx8/vfnHp4+/f/j5+b9//Wl9uf71r4//Xr/w32dc2FJeoBT+eP5D7lud//vL35+/f//uw+H7uMWu37f2+vdpq0m/7+n178s23H46/H7fpv/9AfuPWxgKGAEAed/vEQAUxLqV6QAZAG2LDtCJB+2CaTcrJEf0LAjIQvTYIhFtgKqAL395FdAV0JiGPBQwvw0wt3RDdFdAvaGhKgBFwx1rCVsA6faMKw+F/UrRMEBmokX4FoAUqG4pKqDQlsrFlgprnD+lL5y5BqSt+S3RCmmL7lgHW41ezoC8TVohui2ZXWVAOQtfzVsiI+AALbA+2JbOx9rDFiOeUjiLd59bpBXS1s9Ej74FoiFvtZ0A036COF12UXsATH5JgaqK9zQ+0Ap11+DDCvXGzJz5MOOdERhn4RsmS2RmuupDN5Uios0li2iYW+UV5vlY69jXvAaMLZ23VAuLxti98gOQtkR8mFspugIFJiuSCaoPBXTaQhkR7zbwWA0wzyt0YyVtyeyS43QDY5yyytLgSMDCJaFhmk7TCmXXrwMgEKDup/7Y0tgCWI1k+nDW6VFQpy2EC+djHWbIiHHdGTKTLrCtaaifNkNWQB/SdDQk1OkcdkE4Wj7YUrbfc3yocKy57qd+NJUEaNvsCiAFWgFb0y1FYJwFO1EYV7YJCrTiL1Ggzis4q2EqSrKUXTrQIhoBOyXJN2rbOhgy40M/y5LZpQ6ylIuGDgag2DtnpaF2DH8MIBFZS3uS85rwiZ+2Yy0kGmnLZ/HudWsMKKJAEYOTpQ/nUxoPO/Ia0e3Mh/EQx9f4MKMCyNxnF3sPs4V0rF2l1ezSIBV1CtQmJk0WpUYRvolGoMTduB/cLqUDBhhnxpWBCUdJ6h/KRNGwwDk5BaLwxwD9vILp9CAaitOHhim+ATReamgqS92yMO7h6q8BLsuqdY9vrgF9D80P+UOgU+rqgVamCOJtfK1nGkzgKVg3voamgERETw3WTboa0TDVCNSwp1GXAPvf+byCxXykDwaYTuMKnFKNe8B2iL1JNEy/JC0zU5mAaEvz6pmGbioFolGdQ7mRVhM1jb0HpgPmAquoaNwdwDWgq5kxDSEvaoAmopExbrUdl6orkE6bYWxnTi/OAMCMihrjiIlfc1WHHtHttrwbxoN/IGPcXOXE8gc6VgNoRNYxy7ItVXG7A4MTI1oD3YmMM4AYAVshgYoaQHOggUHiAkQFUEpjgNT0lCi6X4CkgMqA6NKBGxqkrG7hD5WxLwEUJDZX8rJohrKsRXRUQLs5paqAfMPpoIBww2mXWk7eUkkKGGDumyv2W4ZCxrhVzafNCJBTbMMFJ4UbHI/67cHHkQJ1F8KZLSTRMH+jDiXvceY1IKtd6lzGNoAEiSvxY8AUWXqUO68BrjBoGTsl4MsrZ90S6UNvqkBGNOWi9nuh67FSgLU2IC6rY5nC3IcEJwtARM/dGxx8HMVLBtB8umGKP4JToLBr+TUg7uXYQ0RGfSDjq7TXTIEo4RiuqGYBEXU4zEZIqaUkVCADSHqcBhoyA0josLoqvKUuorFNotmV+SJmova9HirKxXD6GSfGPgYokm2wczCAVDZrwoKAAaITVSpJD1dBWHYNbP3imsh25VOq+6EfAKTQK0rIuiXk81DnYNZ/kuRNZ4kjiuqMmogagGzMdBFiT5gAzbKTeAAQDfNhgo4ACAOmSx5W5wtEY1pSKE7aIhNaYTpLzCVpA2TXD6Hy1XSl0MLOYXY91tKwoWgASabXCkS0a2TdlH6mL7ayYTWipWC8UlPQuAXoCqDCzBzaWzMAadx0VfJVnb0BdAVQ9n2xAjfjFsB17zoYsnVKInxsvadv90306gbwhcobTge3JZTWoU560UArdLUa65ToWC+bokS0B/BYznwM4XxlpX8+QtSjtN4ca1FAY0D0GnfDaadx1HFZsuS3xDqd3ZYG0yDtPjtW9EBXKorW2wO4RjGdnzbANxI9MD25OFaedrpg3MQA60I05m54/k+ApsmDRero2JtmfS/l19cAfiwHzX13w0sVU905NOtbk0LEaTNbbgW03tM1FCMPYIWgHXZjRCRhmhcNkRs3Wl1IRnX1ixiusukr2s5esTTJRtIySC8YrU9XALbgm4pFY2oRe9U5YEsWrYu42pYwp+muYd6Q6OGml3rHvqtP/DqPd6xsuioNVBYcvrrEcagBRPhMqameu1LFM9GZW/IGkJpDHHcVAcnLKnZc7HtpoAQsRq0y5pDvyWGtOqnMRWARfrgUK1acbPX1gzQwDFglEGf2cEuuGXITqV/KEQqeb90lrsqECyNGp9SnFgQazzCbbonVa/muwifNwTqx992v4mhcoWsiusppRENzDc7EK1Q3C8Jzp6uWK02pwsVfJ0urGER10Kz5zDKTREPSVHeVTaiWm7S73ioO0K+qvbSyI44k9+DmfxO3jFzQ2jq3H6vz0RzKmDCLj16c5h6TTMEty0lN2u/dxC+A793EC8b91bqJvll+c0quSm58oLqjAXSFwozLWtk0FSVD1pKrMCe8+dCCDvGsNYGGl6Tw4bI4KrZMWESj8OWkVVWRobaOQe4qMEitKGGT1gDa6ws4UVldOmPmme4l1KxRsblJqoJUZyo737yrUYVvuXqiIWiUaz6JDFmZ2jVaIzY0mDe1cL8GkYDoNaMmopGw3mWSIyP6mVt3xZWkS0Tbuorokt8PHCkoTUOHNV5Fk3zVtVALTyOWfYroAeAhHgNIhrUCXZ7ZFMaZHaE6i7FJS6F87aY48TbRwBWizv++TA++BlC7lFHj1qUzie4jHmt2TaAVVdLAsOvpmPWmCnNuzmV1dFl+SnpGLIXmvFd7DwBK73PSlMa2dDNLHoToR0D0KuBMtKUgFMJlFyS2zsPnTlob31C0U+riUCqO2KwKxpmGmtBU5ro3lQ4AqmlkN7NZC5rKfNUEurnuEYseK4U/67qt+DjOUAzg4yUkejhpTXzzoWllZnIel4v6uFlxgD4ndyMrsxEIar3HxPpvmi66rzsrrwEuwFoaRzfjul6KGZweG0CTpoR1jdRUNEZDQ5aqKtAMeLdi3YxzokHVn+Ri7yVLdDMuu+lc7pcnn6HcMC66CtZAH5eCuwk08Vjj1Iz9JWF+DaA3HzoGWHG44fPKN6cvW2V029U1RVvlBkp3g9t80S26rtFKLfkScXNG4OYWvpqZwc9YVJ3jObSFrhFu+vxlMuEakHX4Yha8MBWT9hLGzQpxf2vkwYjJrI4qfatsRs8hRBfp3t6q1zmEdPeUgMypWcBPL6gYQJ9DiCx9UYVpXbxkPsiWMjeB/IMLd6+uuCcd7l5dccJ3t4J7liJ3bAJ9f3VlB3x/deWWcX+FV1eKB9AK7iZD4fjHP4x08+qKu2q9vqcEXBscK1+mYEZfjnrJr68J0Ci38I169/LV+h72H65+HzgQnJ0PGB6Gi/On1kbQKMbUgKxLUEeVJ1bg3dBInniXzH8/sFvk9/MYIvlKegcaFneey/ri/tUJ8stjTh5yR1P6rS+t3X9v/3h51u2Xd+/fP78Kd/z/+gyc/en5Cbn8458=);lineShape=1;strokeColor=#562BFF;" vertex="1" parent="1">
          <mxGeometry x="817.3468724787726" y="409.28843187087045" width="312.4052356680552" height="47.871520176709325" as="geometry" />
        </mxCell>
        <mxCell id="_RY1uGZdvzKGK2o-vaD--70" value="" style="shape=stencil(rZbdbtswDIWfxreEJFoSdd2171Gg6WI0S4o07da3Lz3DbUjXxxiwO8fmF/HnkGLHNy/7++ddl8LL5Xx62v0eHi77jn90KQ3H/e48XPSp49uObx5P593P8+n1+DD9fr4fLcenX6e38R/+TFwkTiOUwvv0IlCKf1/cTeaH4XhtLvPn2Z4DFV4HOFKrBuiFuK4DOVKyQNEz2zpQGmUbQhWSfh2QTDkbQBi61BqFZoFMDIJWgBdALRAozqVCLUBAHCBU8AmuDi2QgBhiCBSCJZgiKMR4BFtAM42DqM6nShmoT4HcW0BLkyCQigcEpUmoLYAGxKRAqR5ISExCffJBw1Kr/LNPa0N1EIouBqaKsrQEdCxk7JIFpFHEJ/ROrnWOag2oVnzaQQ0DbdmjuCHSAsi4qbOttPZoj1xSebsTZEutzclbexBo6bseTdTjlvP67qniIMQ1dSHBU6A4fQtlwcPS6bttjbJgY7jKw38iVAt981Gg4VcWI1+bTkBi9Z4LNk96C2WgDr1Jiw2i8FzM79VR5zvn8+otVMB4DfO1+ZmlMl8aK/YleHs0+gKxWPtMEXScriLu/3nD/2AbNEYSUGS1t7tM2zK37mh+ofdOc7oCQOejdZ7hRaW5tLVKlECTBcquAeBgCXMirrZCIP7oQ8XN9a8755a5Pnytt4/D4TBtx9ff/Tqsr6ZVmm8/AA==);lineShape=1;strokeColor=#562BFF;" vertex="1" parent="1">
          <mxGeometry x="1070.294230561749" y="416.7026010419761" width="65.35198959928493" height="8.258623654192247" as="geometry" />
        </mxCell>
        <mxCell id="_RY1uGZdvzKGK2o-vaD--75" value="" style="shape=stencil(7VvJchVHEPwaXTt6X87Y/g8iEEZhjAiBt793lUW3XmfN5JgbB92wPPl6utasZe7Smy8f3n6+v4v+y9enx9/u/3p49/XDXfrpLsaHTx/unx6+yr/u0s936c37x6f7X58e//j07vm/P7/VJ/Vfvz/+qb/w9zOuujYUFP0/z38orsf//vDL8+MfHz5tj5e4PZ5cHuePZ9cD/HoK548nl/L2ePDO1/Pngxv7z4c+/3L4vHcj7W8fXCev713dhZOb84W9T+vb8zW6mph4vt1uPt9EvuT3m4t+e75XF5l8vOu7QEdygV0guVF2QHWdnVBd3g1iyEuSK4uG0q6DUVwgOgtjGuQCiFEQpYkW/K6FLlpuFDB2Nbcwb3UMiK7seqveJSJWBeyXLnJmp4Cwazp3V4mUFBAQEDMH7KYhtj08BxhnKEwP0cWCgMRfCUxDAIEYnwByQIBnmhY9eAPgJxRz6cDvUKu5NFdcM5dmMUABHQHMRQXQrWlwTYPHCaBwsYK1ljjzxJnHQdQog5t3cHEH1O4aB5RdShJaI9fDtyuuqCHZgmk6u7ibRo88zMgLNAREJqWOJ7ThIosaA6N3yzTMJG8in59efgwIru6aruUK0PdXklAZSH5IK1Yv08g0CAig2CDAXsm7vLtoGtw0OmbRFJ0ndxBNwx2UVTHTyOjTSiVYEJA0HhFArXX93gK0qcpjgJ/+tS4tmZuFGRHrfoIEgcHTLrCfKnJjYpXYuuuhcfojUg/7CeLTgV26YyBrywfPjC9CmIk0P6SMWVQoIgv3SQhWQrFGBuiTfy1/SNzjxnyBpelKpZTFNHYpiRg8uXQOU683xsf8IccZthagU+Kd83T59UpSS5DIJwAoHXKkOS4XQ+ESB9TJtJemE1WcAOCE2ia/OQbI/4ZgLMbC9LA45AJIWCAOVIRpQ2IvlC8Jrc175JMzB8lxGiOAa5RpXceAjNxbAJloulQ0bxF0JXooHUtiuQPjrSJEJOtjOu0xwNS5ckIjUpIk6xvegfl0NWWZmHcmYhVTg4QiceQKAFm0zJ84AwCFk1jYiR4UMBDAFCeA1BFQmJQaWqsC+KUxVGYaBAQAKUsAjLcKANNupoldAUYPrAAXQPcIuLgDlAMCuHglKDgkoSRuGuBxAqjEpxUAYm0zUp0BoCeQeC1aTdqVrFcYoJjCTy5NqIMSZ+BLmdJQDQK7HoQ6eCalMntzN0UTo9LVhEphM6wRor+3v5IWHOQEKS+AhrY0699jQMIKRc5kXYfWptRvSstGpCSUEEt83jl5KfNuQiUF5Gk5t21H9koV067ULIWItTdzQqZS6sMlSCiBdn+GrbJ40TQSkkSlDgwgDrTbUuEtr1Gxm6uaZndosxl7cwKLfKNjU03uwPK0AKA9XnjUGP2AhnZ2h+GCSVmMJI6BFYr28NmlB3bhpLJjYUZPgK59oYWfXDrtQSDwICCKS7sthUx9WmwJmmqhcbGaTrz2g5ji4uzq3VYoxOOGxxpIKhR2grgoEF0JMyy29o70R4qcRvQgUQO7cGvgcRaXKqQsnqcFAE3mysNMX5Zz019i9UM3KavyNnY31EGyHuvdix66uQON3mOq6bbKYlHDIzlRAPMHb5oIF9HbI5WuvPU4PLqoTrKIlBQAJ/BJkwI6AioxbwVAeZxpq0UvXRDAygEVa0ZA4z7tzSuxeaKahjcAZt4DmbEAWNtOAQEBlJwM9GnRA+VLA7Oo9jVYmBnIjMWWWNdB72CILpuhqIuCWAPNQKqHiAD2SqppEwRYHae2ZIIAa26qtRopsS6c+kNGACteDzwu0unAoYtenWBsaXAHAnJSL9iMiNUALmLr9wEkP2AGGpQv9dVzWyVNoHeQHAdkXaoiNo8TQDRJMRFbsidUT1stWnDA0KXwpGgmHFIOMGvtzQAiT+zDVOyVdh2stUqVxUr8sdL4onCF0h8paSBUhsGJbsH5tPBWNqoVohuAtwbaSRwdp5bB0xGhkPW8XzpEOjIXwDDsnvlD8KZpHD1tOwxDmHQrid164FAxXdQDA8eWOdHuptY0QI0DHdOMjnm3NEq+RdXdcDjmcrqIY+I9G3GI9SWTgljTWOwbwnfhTbJhGt+F30FKlGFmUxdsPZgoQMl3wclR4jy0Z7MTlmmfotvmPTfvHubv3ZRZTKytYfVa+VCxZbRWSUGBSEkSDrR0W6V7fFpU7XdofPmnVjNJzXRMo0TY5F3arMyG/wRaH9eMoa8kPqYpSPryMpYzwLAzc94pfx2ivA5RzgA/3hAFCrm0eiNnQQBX1cT4mJQKWuvVYDSZbv+aQB8DApbsJdJQqU3ohicwwlQqrhfpNJhYa8nI4TJfOpGwhZuYfAChy6ZwaU+Jq3atgf5UCpArQgFxUfnpkiOQk0FDZa5m2YF3+3Vhw/RaPLGlvLj5ujRvnQgASnZhMywp5mTGNIWfEE1c8jMsnAGCmRyx1kkOJgNFGpeyx055avSVJAXigitvkmmdF1APbENc08d31fgpmDlnpnv6sZvF+0BDZczYReiRBmNdod0BrVMaqut2dluILd6bJplEPlahaNUGGehifzvgmEYLanZCwkpRXpKVNPJ7EL3D4FvuDXvAkXeZ48C5TvJ8oc8klMTXscW/gtlHYnwpRROMM+0XCQCIbvWUL6VommR1LnOeXRo4X4t0Py+ZAYTO6bnHFeNx9POExY4WoFy5aDCAqy13AERaDtjPjVq9AmDfrk8ycQYAglX61eI9pN2XVH966dcPUV4/RDkB/GgfoiTMooVPXaKh0hIqWVtaxQp9jThXac48DsZl2kDiaRf2t0ekDhQ6ruaMRj8eCIZK3/RsjxFpMoV1xKDLC8FjTTP4Wm9F0+idHpDwzo2bUsDGutQnrB1letiSpJldmFnzy6c1J+8D+TC0abrHVoG1Sbv47hZWyfkHK6Zpys2h4k4eJ8PNFMRUVc2ERrr71sxi2vwI6v/9euG9WCQ6fAHMbNRUSoua6dDTFk8z01Kau5uJbXPD7uRxbx6nkgEPqVRN1Uzc+Xas+WyMZrvv/or94nH5x8sH8+8fPn58/t7+9v/jB/byp+eP89PP/wI=);lineShape=1;strokeColor=#562BFF;" vertex="1" parent="1">
          <mxGeometry x="849.8153143817813" y="490.5574667313026" width="181.73281349183847" height="42.90256513738956" as="geometry" />
        </mxCell>
        <mxCell id="_RY1uGZdvzKGK2o-vaD--76" value="" style="shape=stencil(lZbbbtswDIafxreEROp43XXvUaDpYixLijTd4e1Hz1ATUfFf7M6W+Ek8i5M8vO2fXncTu7fL+fR992t+vuwn+TIxz8f97jxf9GuSx0keXk7n3bfz6f34vP6/Pi2Sy9eP08/lhN8rx4FCWSh2f9YVIXb/Fr6u8of5eCMvgYQ7eV8o1m0gJOLaX5Cp8DYQE6XQAclR8ttAKpSlA3IlB2wooW03oDKVAoBMIVogAhuqJxcGIAFAw8AWqEClmol9DwjlCIBK3qgUKOdtwDs3uClSxVdkA2TyyOpCnHpAV5DVkYoJhJqFAKbsLYCsLh/nfeT31Q/3idiy8+aKIgBgkmoBBiWk6VwGNwVwQ1YvZhsICQDQkjSRS+TxDcHYEKiCG4obVBJcc9xy7QZwKHJpSCamhAJXh2TSIgWAKiBDVRcEJJLB6IALwuaSNgbQ+5ZUMypFirhGa98sVUlUEKqSTb7cjtgyOhu3FqrIBmnvwU09JNRd/xcIxeaSpiPq3xItkDxlAOgzWnsvSYWB894Gjh0JqAfd7eMWyQOFht4dPhE3LUmguLdDA8MuLPat8iQgRyOFvmr0/QftsbROdRVnkJ9+eJtxf/c6LdjzHYpsshXmWmO6L1/bZHCVz6CTqvOyeaHa7HBfXuzwwlCfZSK0ucDA3s8nSP24jp8v8+GwTq+3+3Zc1aV11JXHvw==);lineShape=1;strokeColor=#562BFF;" vertex="1" parent="1">
          <mxGeometry x="1052.5667970826257" y="496.63034609590454" width="6.336330010849719" height="18.76440960136653" as="geometry" />
        </mxCell>
        <mxCell id="_RY1uGZdvzKGK2o-vaD--77" value="" style="shape=stencil(lZbdUttADIWfxrdnpNX+XlN4D2YIjYc0YUKg5e3R1mOIlkSd3vnv88pHR8c7yc3L9v55MwV6OR0PT5vf88NpO8mPKYR5v90c55MeTXI7yc3j4bj5eTy87h+W8+f7/mQ/+nV462/4s3CNUEKnAr0vV2JCan+v3C3Abt6fAxmlGCAJWnWAhsoGyIKaXSCJAUoEeyUltGyAqis4QG2IFmiMFh1AVbIltYLE14FCyFYlJgLRdSITJNolGtiRKRGq7ZzqQE4jooBtI2oFO4BUkAVK84EMsrrmBhIHKGMjUkV1VIphXCGqW5zO6W1pFggITklaQK4G0CKzs0KuaMkCGSE53lARrZlU6OB8dG+TXUFbGfyBoGFG6V8zykPjCLFcB87c/OkNWoPh8hI6MBbQofJa3UdysGtbX3FZJh36YUg1GJySeqzYkr6i53KrBeXbjFYnBjQa6wBofHozmhCHoVZZHTN1QP4HkDima09Dx0whrm7+BBKyE0yc1rQ+i43ofHRBtW4tDHHaEMYwzrym7cXn1ar2AxKvKXLteWuLSODg1ZNsYgRfUc0TWz831xQcR4GYkZweBxmBBHEmRz0x/Bm0AY6garpBofHfpgdfO47HebdbNizn98cdil5adjdy+wE=);lineShape=1;strokeColor=#562BFF;" vertex="1" parent="1">
          <mxGeometry x="1059.0742999533686" y="491.3593653746609" width="2.958379694397509" height="2.9674550136526117" as="geometry" />
        </mxCell>
        <mxCell id="_RY1uGZdvzKGK2o-vaD--78" value="" style="shape=stencil(7VlJUhwxEHzNXCu0L2ds/4MIwEwYAwF4+71LHqtppbpzzNER3AamclSqJWvRwV88314+Xh+ceX55evhy/eN49XJ78B8Ozh3vb6+fji/66eA/HvzFzcPT9eenh2/3V6e/Hy+bZPv09eF7+4WfJ5yVVBvImV+nf7gqJv75z6eT/N3xfpCvfpD3RYrdl3fi0yAfsqSyL+/FxkE+VvFuXz6INYN8NlLDvnwUU0b5Ion8fhGXUd4S/a0aaFQoFclEIZvEjifEIIEAnBEzucAyFzgJ4OMozhCAFzcaSZVMTCUnyY4AjSt2gpE8WqmIycRIWfJ459itti3vpYw3CBKJPlZtOoZpkpj25XPXdrmvEU8MFHpMLvKh59He74/XtWof4mLrJoU0zVga1/57CyDSMFWD/E3DBaCpShLHa0xkBDiiklcfjypplBSSasGKH0/wvp+5DfCSIdXUbewEjbIxc1LmbBQlAr0kCfyECPySaWRvAjIJjQYYY0kZzJHYU0CICDhzgocTKiWkZtaCgMDNCtGqgMROCFLcBGB+CJ3g1gCmkpJ0nu7AzBowgZqVOMCZyQ8cYC0CWMYpwMyxxE5QWgUrKXEy3vNSR16NS/zuebqOVlJaoMxapY7R2moLawAi0oxSKykNyaGjrThSGlq5H28QaKhmJaWp2LKOqjkVTBRpdS52ckLqd9oGxM6Ki5s1eIlKpSBllNSJcBNQtUkbnVC9+EoAy9cLIFG31YoltNpOU3sAlxDAuiQFQFvVAOwOFZueyrskBRRQyfX2dQ9QMwIy7XtMt+LaEWeOAJ0CHRjaJQICWGuiAGgcauxN/q4jIgLO3AEySAGMu2uRWhHgSAYpoBi8dGV3KN0mK4AnNKMA6APUcZkUrE2A4ZdOkEGOm7Vge6XxXbhKGEuW9gHqOGgcWspxQHATgHBlC76JNhhXtvCeTqCerjgLqFlZi7ido5ZnUC0IKJz7CsS3tjcs+irOYy2+uZmgC205SkrK2wEOuW9luO2qNVOZVi1i15I7vy9lrlJmKqGPSOtxgAFM71KXUr2U1u1mYJoUfaF0nB3ScdsnEID2M7DBKX1ltNcvwQGRNnBxmbRXuwOWD9H2tnm5gaeRETJ23v5MIz1NQK1pJDTTJqARkCqtce9jXwe8j33/wdinJ4CVUqfOf1y0NBZhU5yWwPEO0dHmJJhpCEp0gNCvoSa2uYzcwTtc5bSVGttppr5iXAHYEtFqIIzMp1TMBgjr0NNtvU7MmjC6VZ7xmMfhWxViTajH+UQ1ZE5YdmGvW1a2Tas4GTs6kNlp2cDrv9U0sSCfifbtrWQ0T6CcrV8baA0poap8ngKImVPtn2Gxn2kAva4ulhsYSndNAcjLTGcADQB4H9KGgxmp4KK+8G449t3IIh9pz+axUdUWyxN5NxUEx4MI57ZkaJk1OBiG0rfYO/LgAF9pEkyzggYdm18MltjmES6fUJ6FnMHXLQ3R/Jb7qjxb2xiklPZ2QpLM4HJBOYjNqAbjU+WZ/hbfF9vvsyKA74uqPxspbO82VvJsUrPYXat8ZRmP8az+5b//1vfjc/L64fWx+uZ4d3d6615/j4/b+q/Tw7j/+Bs=);lineShape=1;strokeColor=#562BFF;" vertex="1" parent="1">
          <mxGeometry x="1070.310816778891" y="489.2890670790707" width="81.65593547751622" height="27.761721490651862" as="geometry" />
        </mxCell>
        <mxCell id="_RY1uGZdvzKGK2o-vaD--79" value="" style="shape=stencil(7ZzJshzHDUW/5m0rKufMtSz/hyJEmQzTpIKibOvvBfixmlUX3afNhReO4O4Nic4JuLgYsl/KD7+9/enXNy95/+3zp49/f/Ovdz9/fvtS/vKS87sPb998evfZfnopP76UH375+OnN3z59/P3Dz6+///qTj/Sf/vHxn/4J/36V27c1XCjvf7z+odWt9v/85a+v49+/+3Aan7aSruPTlhON//Jpx/jato7jy34ZX/o26uPxtv58GZ/bVgaNr9fxqWxt0fj9up667ZmGl+t2920WHD5keG84fMnwynutMrzA0e9b22V4mjh8yvAdh3fdKh/k0IP8chEPhs+mw/Hcl55Mgk9P255kOOv8rlstcKtpS/rpDU7GhhcZPmDteUvXg8xbA/tuW77eatqP5d0dv7Z1Pfi0tgb2mtq2XwVy3xpM4Id33W9JqJe5KKSZQIcl2Z7n1axsVztcmK1YzNZRgZbUVD3T2Bbcgn3ekGvIqEO26X413rkVUCLXgibjCXlM69b181NFGzCBLPfMQOtqfBUoZZuAbm4mV8Wo5TjmRwLq60y36ZCSglDLvCT7dw0CdM+mq9d7Nne6aEk1CBjK07E2NdC6WDNG8Hjr2NV9gXlA7WkPKLAUAoxzZICwsisotY4QYAZfZYaxJVCNkre8dAZC1XK715uAISfctClzllO6meCjGdZ1SXUiZvgerqdkVItuugQTrfnA2kf3IH6w7ozdU1GjrIM1PBJIYYaddGlsVUDgiQHZvQ49JXQnfatyrIstrit2t7IV3kO7clLTpUEws9RETVt3WJJd3BJtrVunmy5bEntIh3bdF2jHFm+nZDhC2jqCLhVWvrlVwaX9+Mt9gaUuzj6CjtU+T7DVPoJooZlLC0taYNO13tk0RTemm00E+jbhHuzfokuGGpk2PY5w7HRxZNP2eWXqkjotaSkYm0AFEzWP1rsuifiY6eYIm95hDwa9uumJrNUsuA4VGKCt7tGiAJhoC7zYBCYonwms4KcpomrR4haSkzYPr3ziGouWtI5g9+Tj6OJ6YJV20BTm9aJO0WYgm+7tMJczkNGSxuENzscKumQCK5goQaULiGOviN79xl3ORBcurvewh4q8td+4yxlmQL17PczldEpEf1wgOJRGN900EeSJKdpDV9Qw/SV23+cRCB8Cpl0ZBEbIePR1uPr7AllPaYwDPO8LGGpcBSaTk9G2fkW+lQ4ndl+ga9C0+KZNoIvAxChrhHtYHE3fFSATvbOkm4t5uOmpAkR/RvCiJkDobQI1LImg0gRKFOCLk/gh7ZwSM4kUpwALMoH92zYRYsv1xCACGj+7iKYe5dlV1zADu1GzUdW+ihzOUGC/ItlcyEMNvrsIFIzLelfSZ7BBm3YHcVVX2xVFTYZb+SrgiwT4ts9LVzTu7LPs4nbByoQ8dIRAri1GY4stRWBg3nSswB060vsZssTGuRKc0szKsMxnTTglUwSJLT2LQAJNM49OA+Gm51Bd8tiSZlhHHvDsd8GmzeFIPNAy7mFl3YNxhwSqYQItRBwJUMMEJAHvYRbtYVfUqGxA87biU9qBlM/uQepmnmshgXbkn04cDrW1qlf0MAuOdVa1aY844JRmiF4tHqBagpMX0daMujS7EiaLByh1P2fItXAa7o62DmTr61bvO+ESgbHxKQl3DfkolWgOSth6f6KtS3HJ0JsubgXkM+6bqEizh7KnSVDM7lN0FeiEAktNzgQWFZqWJuPNi1HR5Su1OAkQfK9bXu+/FyhxSSwg/N42TQ5iBZzpXKdxgaICFHK4QFgSFvyWZgVc+3hJklt3sgHa5/eQVIBixRUyfSZQeYYeloROzrQ1EiZe0goCxEO/0v/TPVDYdN9GyaV8pf9nZXqypqQCVNnxY5IlLazD+0UMFSBk8quORk3kYWnauHNS19U1AtMTkwvoSkndbxcYAfoapjbMB0lAYC6F6l+rKNvoO8aK5keF37eJOSnz1Ep1OxZqjAtoCaIdcPuQAIWMEZ2SsW+BDacnTNeVz3Dx1QM94ZXz8AAPKVZol6J2rHkr8Z14JZGHGZOJ3KI0gz3UHROiK7SImQDymRxKcoVdUDl6Ic4pV1ZvTa5ztmWlUMgv2LY2V8hkd6QCHpiFEjU5Obtp4Q4mMGhJ4ZS8CE4BQQibbA+TDCjdqZqTk7OIWoP8gTGKxezabjg5XTmOsswJyOjiRgtkIyPDGqHo56lqyvdH4spw70xB0saZc+VDc4ODC2ZOFKRbKGPX5Ajde4bnVK0doYDsLoaONai3eT2c4Xti+ovA98T0/0Ni2gSuOOP6zZls8SiLG4bM5IQam8vA1HdwcmNyITI4OccFcBCxNtrrgQv3BVrI0S6kAl5XvBqE52hphsB0vRBJdcWifYnG4Yj0+ZICh6M0mW1a2xfKs4KwssTEBeFQyff8JtV3p6p3rUhnvqYlbgLjWdlcjtW4NFaQA848acbsgUt70xNpazr41EmAIj/TzfZNEUcL7MRoJYW7xqdiiEIuyNtIwvsMcqOt3uv04laY+AKEtNVXLPewY8+GL6CoAM4QWsS9GwE2XaN6T2SJ3k8UahaFWsOCiT7Zg0UwcQYqyZlBSv2r3hpL7guU0IdVsXZUc4iamCV6JBn64YidlNAwVPnNSZmhmzmh2y1D+05s09SMWQITsLvH1uESCmYZS0Elqjd3b3oXrfi4geTEW7jDDNiG3kJXeeEZWmjRW1j08xmG3gOxGe+iDapBumSblhStd4xSc/LSTIgJUNGv7FofKAwzdtPaGpaOF1yPdEkde+U29KJt6E/6EkvVBuuWETVKCY1bHYPRkpX+WMhe+ZTUA3GrpF2cetHBT0umNic3zqqZLmnzWUFykrs2hTTuBDZ7kIbS5w8/cjBRbEPPCsbm6uni/Oll1hkoLPNXcKE/lDIhKVyc1+VhDyYgPs7UkXJe/uTxqt65YNLY3+rJyyxekgnIY7GB2h2fBHV+c1S1NWc8e98joJQSJu1sfkmTp3HEH4+MQSDD1kg0wF9MyKuPnd/ThcYCf39Aqnp7FHITyPiuJFXtk7RdEQcNJcjMacSqBcWUsDidtAGd/e33Z8WPh39/Vvxo+P/yWfGuNZuC3RtJXYXBLH/NgGRpMvf1hP7Ewo9Scnie0bBdJevpeNYINCEpGTXni54u9DFVpGUpUCBuTUwhSGlotCmQuIZkOgU60xBDkgKaj0e81BxCww6PFCq17YmxKH9r2H2aQldYw/xYeFrW+EXGva/loGzAt36Nx/Px9sPX7wz55d37969fOXL+v37HiP3p9ftJyo9/Ag==);lineShape=1;strokeColor=#562BFF;" vertex="1" parent="1">
          <mxGeometry x="1187.659250871061" y="477.18709887506884" width="155.14539409381328" height="77.94290145583064" as="geometry" />
        </mxCell>
        <mxCell id="_RY1uGZdvzKGK2o-vaD--80" value="" style="shape=stencil(lVbZctswDPwavWIAnuBzmv5HZuLUmrp2xnF6/H2haiibUAnZb7K8S+FaLgb/9LF/ed8NDj8u59P33a/x9bIf/JfBufG4353HizwN/nnwT2+n8+7b+fR5fJ1/v79MyOnpx+nndMLvmYdQ4kRy+Gd+kRnQ/XvzdcYfxuMNPgE7jQ+5j6cEtCIw9gmuQMaWUABDnxAYIrcEAjJCSpJhaQgxQOA+gWMNoBI8gY99QpGIqSGgGZHgHSs8GgEJPgaFL/b5OTV4V1/08KWNP4Kz8y1tRRmoPIInAmcnUNqhoABkZ5B9S0gQbUJUX2Bw3u5Z0IRiNY1rj24I2RhsIegccu17jxBbrVGEYPWBwas+OGCyCW3SxRTzhG9zTpCtQeIa76K0rZqmVji0FU9pK4QQ7CZTUXi0zi8QksJHe65Te77bEj639QzgN4Ss7kYg43zCJb+loLgpfSUDX4XRVaaauQhs90Dd7yKDbBfVK92I5dghPUYQQ1Daj1gHvWc5TrmgN29gMbXU+nJB87JY2+b1vrnTmKcbzdD+yvmvLvRf/GqzuBmuDiGvPpCMYRVpkc7YKpG0SJ2fzUnF6jAL3nZByU7hXbXRHl51DOsc3ofnvFEfFY+MLZnxqHzZ3hJW9WTp4CP9ysvac9885MV97hu4jVV2Gy8P1735bTwc5rX79n+9Z8ureUf3z38B);lineShape=1;strokeColor=#562BFF;" vertex="1" parent="1">
          <mxGeometry x="776.1947318290181" y="531.802543517186" width="72.05012616936502" height="6.301888774694496" as="geometry" />
        </mxCell>
        <mxCell id="_RY1uGZdvzKGK2o-vaD--81" value="" style="shape=stencil(lVbLchtBCPyavVIwT+bsOP/hKsvRVhTJJctJ/PdmsxlJIA8u31ar7h2YpoEp3r1sH543U8CX0/Hwc/Nnfjxtp/htCmHebzfH+SRPU7yf4t3T4bj5cTy87h/X388PC3J5+nX4vXzh78ojwLqQAr6tLzgAl39vvq/43by/widgVvgageMYT/I3KkLJwHVMCAwhK0JmyA4hFQg6hVSBnJBKgapziBJkGBM4QtMnUIWSx4TGgPoEhOBEJPhs8egE1BpgMfji41PTCfSMRngjmtwAuXhzQaWLOMTreBiqj+ek4yeg5BKyLiKpQ/IzJnNCguJLVrQElCE6xhEC3RBCcwhSY82GlLyQKkStGgXXakLAqAkI1SOUXgYX3aIng+CNl93mIgGRxkfIPj5p3xBUdPEtGN8kL1+GRAaP3vfZ3g/699MgmjKF5OMrmfsJn/gymvtPjs8Iz/md23u/seEBOiCpoOj7zNomdKuOCOHGBW7O3OfRtc980b5G4NSL8mp+oCNbqf175wkl1+CPtGqGZuyVOBqaRetQc2/5HystrUTnIEMuOUoX64RG7kgTVfWlLkI6Ogcgsvj/m8bHCUAxzkffm2TXiqUUHTz2TnXGs9tbELJuLUs7dnoX3sSTuzUGeLNStNivYITXJSSCeUZDOwtYlgY3XzPOuLq9TvqCGfl+haKdfpctbKDv1xbZz/HycNman+bdbl26r/+3W7a8Wjf0eP8O);lineShape=1;strokeColor=#562BFF;" vertex="1" parent="1">
          <mxGeometry x="783.2309769605813" y="465.48060277121544" width="39.530427845707784" height="7.935073753530346" as="geometry" />
        </mxCell>
        <mxCell id="_RY1uGZdvzKGK2o-vaD--82" value="" style="shape=stencil(rVbZjtswDPwavxKSKInS83b7HwtstjGaJotsev19qbp2I7oet0DffHAkkjM8Bn54Oz69Hobg3m7Xy8fD1/H5dhz43RDCeD4eruNNnwZ+HPjh5XI9fLhePp+fp/fXp2bZnj5dvrQTvk04TxwbKLjv0wdHzv388H4yP43nO/NKYs1r3DbX413q7D3lsG3PmVJ/fqYK3EmJXOnPL1TSNkASlR7AhbiAgMsc4OLRcsSfAZXY9QCh4CHgV0pmgDjyFQJKn1SJlBBplWoftCiPO4DaAUqiwNil/obqKGFAzj1AqcQANoBCIUOA63loTqK0FspsAQK01BwwQQsUn/42PNRIjFwSkh5Q1CVQPwrIhji9AbskRnxaQIgHDVF6AM89YStLvr8hV9gDFBBNxeU94opflShyqZIv9oaEazqtYthRqyFOAmyUreJMTQvsfN45q+/CWEx6Ra/vskP1Iv9FrkwZialS7LWhaoHqq1YbLdNYTMaluzz8J4SOCDPjGndAsCnask4MydYpF/sqjYEEMLEeozq1IkqsDYE10+CC1RYQNUeC7F2w50egPUfSVygvnW3DPpp48XRw83Ra7D1FQJmza0MQ8oCxVa2FAPO/svcCe97KHx/mYv27eAsszFU6NZswWsNWoADIXYnBwWb6jxvnrrk+/F5uX8bTadqN7//bZVg/TYs0P/4A);lineShape=1;strokeColor=#562BFF;" vertex="1" parent="1">
          <mxGeometry x="743.237028026816" y="400.2318602583482" width="52.389774043824005" height="3.54025225419986" as="geometry" />
        </mxCell>
        <mxCell id="_RY1uGZdvzKGK2o-vaD--83" value="" style="shape=stencil(lVfZctswDPwavWJIgOdzmv5HZuLUnrp2xnGvvy9Yl4oIWdvJmyzvijgWByd5eNs/ve4mdm/Xy/nr7ufh+bqf5NPEfDjtd5fDVZ8meZzk4eV82X25nL+fnm+/X58asj19O/9oX/h14zlyqZHY/b69qIlq/vvm8w1/PJwWeCYOA75UcryNT5RkwOdMIW3jPVOMAyEJJKgHYfQgJHIVEDL5kSCOWLYJwuT8QPCZuABCIm+cpgRiKpVCHg+gAr4fIvky4DWLbhsfZ/86nimACMVIccR7RxEYlJjqGCGOJCBp2XeRzUnTT8RtQlGLR90lTwx8rmx9VuFFINRaKY2yKAX6oIQaLaGCsDbCmDatHaQLJWRTnI7EQ4J4SyjohEJpNKlqWBEhU2VLCEAaSjC10AjohESyNglIo8Y7USoBEoQtATqt9TaGtSUOaUkJo7ybNLAPYUUQfMI/qc2ETAURUpfaggDzoH9HSxAU1mIrrp2ATCqrAsqUsbwj2yh5JL7a++iCkIHT3s2ddJHqgLzWI1bq89iJUCwho06mYRpN0oLwqDEVOx5ayYEBp6mWagkRmZS6/BcEwfo2qVanYa+Mtt8rAcr1o4SmtdHpXOGiofPDZFo3E49WH219o0khUAZyjXrCGCVdHNBmooM9mEEtfVe5vzmIJQQYpODs+lb7vri1+Rhh+AKnrvgekXkZ85RAveliYeZJyLAX+5W4U+gz7D7B93KchVFga82rGepgEmKfTjO+wBU6UvIWn9C6R2yKs8KOFKy/7312A++KxaP4qOZW36+gDNjGc9GV72fMzsJmEOryvVct8AkESNeJlQMMHHarDUanDihjZ9eL1sGB/asZpQ08YvyH7nj/x+vD+4Xy5XA83u6jy//tBVRf3S6v8vgH);lineShape=1;strokeColor=#562BFF;" vertex="1" parent="1">
          <mxGeometry x="485.54907729913066" y="-57.391623597754915" width="25.250162070270722" height="29.663384306206407" as="geometry" />
        </mxCell>
        <mxCell id="_RY1uGZdvzKGK2o-vaD--84" value="" style="shape=stencil(lVfLctswDPwaXTEg+D6n6X9kJk6tqWtnHLdN/r5QNXQNytqoN1nGknjsAtDgH972T6+7Qfjtcj593/0eny/7wX8ZRMbjfnceL/o0+MfBP7yczrtv59PP4/P8+/Vpspyefpx+TSe8zzghDhNI+GN+4Sjmvy++zuaH8XhjnqiyMWdiXjd3kXLujs/geClUorGvlNy6fQiUrD+uUinAfw3PArwjBh7lSNEZQBCK4IaiIVcLyBTrOqAWctalUEgCBGSxAM0SuqGSJAOInjJIqwJSsQBNa4KAammUcsvbfWLwlTgNoZkuKOqrBw1QAuSeAqK3XHLkBAK4I1+igKIuFCy79QgIyAt6a1SoEJmkA+R2531AomwLUaXVcg3gbQxK4BohwFlu5EwV3+CsIBIW9eRSB3CYrhp0R9fYNLWaVntDZApIQbnve6pRj7JUKEoPqFhy3Lkk5DAgdqLOOK1KNVvpFKDi7mnUt3Gx2gZs1MWRx30jdaL+NE1ib6ih3blWiNRpVNsnrlzXBW7ysIpI/4VQifVOaRR4CnlbicqUQNiqGG+bX2FIJ52kwTaOzCR4VGc7GPVONHqXu0BMlDyIoddc1H4LsrpYZfT8As7XVSD29gztuesyvrH3rj33QzTg3YRbR7nah5aBFXtnpeArZN1CzV7ahNxmL7F1kG3+6C6G6rWI1/m2nG3L57XHbitXaKNxGxukDcZtZMN786fm+vBvRX8ZD4d5w7/9v1/p9dX8OeAf/wA=);lineShape=1;strokeColor=#562BFF;" vertex="1" parent="1">
          <mxGeometry x="480.87971079185763" y="-40.98961576601641" width="34.784428601492166" height="2.5832352346544534" as="geometry" />
        </mxCell>
        <mxCell id="_RY1uGZdvzKGK2o-vaD--85" value="" style="shape=stencil(7Z3JstzGEUW/hlsEaq5ay/Z/KEKUxbAsKih5+ntnmkazcRN9IO64eDvqCReoIcebWdXvyne//fT9r+/f5f233z99/Nv7f3344fef3pU/vcv5wy8/vf/04Xf717vy53flux8/fnr/108f//HLD5//+9fv/Un/198//tPf8O/PuH0rxUF5/8/nP9S8rfG/v/zl8/M/f/jl6fm0lf38fNn2+vr5vJWkz6fy+vmy1fD+DM/XrWUd/8yvn29bG+fn0zbg/X2r5/GXtVV4fmz7eTylb2nR8/U8npK3hu8f6/R8ntvc6fkuz5dtTZrvOs/XdnBv9Hzu5+fT1jqtfw/vzyA/TdfTxk/7VY+vP54fW0v0fJL9rduO8jla0BeW53p6vpVtwvrb8+f394L6aOM5v3+w/NetnN8/1rHCL9Zfnp/2ftivvo2z/s66VZjvDO8vOP60b7t8IG0ZNjilrZ4laPRtgkSnrFs20qF01wCzgPO8Z6ZFsEYGqALIKKQGGOc5tIWraoB5NittHoL7CrCyAgrIdXqYkSfADoYo1cOOPABmy2gO9XAUT4DOgJzCF3hIeSmAhNsApeukE3+hhmWtYB4dEL6wbr4gc1hbIWk1C7krYJHw1SCt+zGrl4CmgJs5zPOQeuU5BK/QTfhoWdvhtB86vW/jBnBWIDMChRSo6T4YgBytA87Lapa707I2XdbBoZEBylLAoNjOAGIqTUN4SLkqoJECtS0FwOAv7BFA+1AP0/sEwGWthzd4AuBO18NsPS3rugFkBVQ2M/MsrSbe/UaBztLaH5bqD66SGzI2AmruE8bxDjgLXzVhYX1IElntW2JpHWdTaaE26kPXSZeHA7gGTFXRUrYOy2rZVOoKqCAaFiz3pkOijbNoWWTJJk3xkgeUkoAlDPgMMM+rVCdnePVY9YdotGNWrwBdHErBHMODUPEPiyfdVFpNpyuIt4etYgQGOvY8NM4dEw2ZBboRQIlGXlsfOgcyAmXfmizr3BqId7HAOfhpst4G6MEIULJqALFLls3fAFS8B8qSAcpXqaitkgS6hf20ATSjt4wYltU2TiIBU1GKjA0gbresrZE+LN04X1ZapX0rotMDLV/JGqzXfujgNaBqJOC8Cg2paxhaKuZxZQYmoB2veAVY5zmYA6Dwp4SNm+jXfZfO1t4yFjABNiAxxY+Nv37eTNBZtvNDY1+tqSSiPkRa03Zo43MuQNrTglHqbDJMbM6AuTB5sEm3866tdhiRl9t8lovVMU20sEK3IaMgmSSLR5wmqjAkp4TOgjEqk5gPTus5foNlrTGZnhg3OOC8Sq0f7uKPfqEf4vgKkCSvbJhMO6ApoNGyPpKRJ0CljYv5fbtbVs3v2+FfXgE0v2/o4GpIpg1ARskAqqId3U8NDKgBiCtywFQAEQIXgHEnfEK6t4GMWg1MTh/IErssSapb0ef6Tp+Xde53wifEtRmBSXMIhMBsvKz9MCpPzCYq0NBVGpWFb4ZlvTEz6xC1x8bdWL4VkoeOeWXb1dx71gcb52mnFEweJYhXAMkFSsWKScsatJpPoo1rRcNiExbi7Fsk+SoWNcxGKMP8MJ6vAOLj+g3Nb1YoiAY5drMRJfiHQYARgtaJlTTzaDGkJO7UYhchjE00KIDzYCeIBhYDdxVvFz6qjqWLchECspJLnmKB8PWiUa69Ygfh64FnMdGgFKvbFCVzzQfNcQ0YQVrXYTxfAWYUbwJMrfqadCWqSs3Ad+1IzNiIU9Bpclk95mQ7qqgDznPwSjFt3LwwleQUbVlX0DiyrQaQZLo9UqJXgCw8S0LKwQAS6JqPIxbEJj3F7Q507GM/SJKnhAML6vlw409foIRjBJZ8ZrStY4SC4k2NP6Q0ptOUNI0VrMbDnl8CLNhJokAVFWju6na9jg1zMICyggXpKwMIyWeACvvggDAk8g8GiLV4ok08JAxDIlLDAcGxE3c6g7Q2JiodUBRwsw9dJs08/MUXGjp2B0jZlQ3Zl0j7ORfljVvC/zZe1qTWe+yYgBtAagleW6MhZfVAoyKNOEtoQ+Cq0ayhepewIm/phWTsZm3JTxugnUXDwpVJwtfUet+kljPQRRbNoPCFgqLlD0Sre3eJALiVYoYGs7J40qGDrUw2lSm0jE2sVph4z6xzwI3bNfa2VHDxF5Rq6ZjHzUAYdy6VzRAZ32ucVL5MHyiftn3ooaZDnVfz0Tj1zAnQxsV6+c5DCs1OvWHfgkUWI7TlUKwxZ/BAmf3DVOqx3qjo0ui+JrbeS93uF9r5FUB6L7zwRBu31LZ6VyKFDis0LRbU6bVrd0fmivxKambyOJbhGpC1hF8Ksg6rXhgByhTX0EY4s62d5jDVi96Q/WkPvXaeqdEklnabWqRL1ImNSXzWqJhxrKb9mvaFnb6QlBToXNmdPcShCzfCADkrgPIBA6TQ40U7N7tO2rs1eEjKxQ/Myy6+MDAvc0DwKI0nrc15HatlDgjkPdrKHrLXhtJqALECjRna2TVgatzcbQAN7zsyIQ6oug/UZnMJoJ5HB4i0zjvx1midOx1mqOy6PpCD6KGIsjg66UreO4C/IOSMc4U3Khq6W6lZ1QFFAVTcvVTRuy8EABXML4bEhdHZtYjiUSLbpRzKZdT4PCNpfK+iIXul5u2vBqykPEUvaCrdA51XqU8OBYZ2wnnvKbmspSW/zgUI86La+VOQJPtSIX9mEegLoWxZG69S1hJHGajTtg+7ABL2nq7ASFlIRmmWASTWKBwweVgZ2H5M2Zfmxx7DUSK31PLVwV8IzKBtHBWoDaDhz00G3lVaTbzRxzXlvEbFbr75OGDzAAyeQz5E7QG4cVlJy/jjxvLtF1wLGbKxNFq3/HjCTo8VSLKGDej+hZDIUQeWs5uiQAu7I3yVhKdoWBOZWaX1plxmGbhM2ru+yGWFgwA2B9y4psefbso0syvB1PhsggNiswM7dj2bULCzwOYgLqsvXtaqIZx3htLGlUBW8kka57yEzZkcVV5pHOb4gZY2jes3jJQYssartIfwZx0C/xIQbOtbTeSCvH+riXwTNREVvoFkpTkUbaKvOAezEXq0tKEC2f9uUqttaAScHJJez8Rf2LWnamWksPpUp+gx2k1FW8rHGU8D9R4or8Q18x5qtZwpelU+9GLTsvbQKV0GJuBeZJdAN2NqaQ5Km7czJq9+XkNib+7F7rGRbEeX5T5TeOyGdqmH2LslTMu8hySS9yx8kh7b3pMx7kMpL9MQUtEeaDvTQWoU6PHs2k0/UlGN6xXTgR7KZe4fqOkkhKGV6zo9+AcTDaKADSBdjGWimfGuFylxLAzWnb8NBzKwZTD0wTQ+emPeQLpU2kS+tYVu0s4EbQvFXc+BuMdQMnZv/qHGytCZ3BuyoSY52rXFxSwDaNfWwJp5y2rIasIK3pcDT0+igZ2Yu/YYOidAq7QHfWDHXtdF/zbVH2o4itY5tawjlF47Nriag+ridhsPqWmAtfa7LnfpV1077rSfZ5Du6o60nZ/JkL6whLyGATSl4Q4PBzTdB7yr5O0Qx/8Bb4c4LgDf3iGOFoouN/sgsbf5B8rjTIGUtrsR76zc/eQw1IPOs2gsFu8SiuxPVfRrROiLdzqfPtG0W9pMHzEhBhAmxJaJwpkSzu7f3ClSAgds65DB3nv0fzbfaSFTXmZoRcDQwb3y2Rjf7MLSVJQ7bv358xKlHesbTsbKjCeqTzwtmpn1LiGx9LPTtEaxd47jMUvytEtgx7s1SiQpEt5+lUMmatENpd8G0DkUNAE5dNEXDq98SKGThw5Y5EC0+F/oToelNsNvhSPR2LUgkrnTsyQlsfO8O1avZ6AS5rolK6/up5dJNLJ2a3jKxEfStSSfMaEpKRxpynz14B6O7e5YBfKNC5Usisf8EohwxI/MjF9eJ4Cbywe6hiZOFNKQmmbTfj0a3VZQQ6dnQhLbT8V/1eU0uWh+0jqySwbQlIn9VQ4HtCsX/XNWarPuKEs56bIWvqEq7yrehetM5j40Ex18ldLQ2L4whZCaVuMqF8xTaPc2h4KXyF31h5O0OiDQINSiEgGdC4RvN4UdgLebwiLgG7wpTPzDl+NsrwDxKiWKBFLgHDofXnu7evLxhberJ6O0fmtXTxaNBHrlL8S7WxffnJfD0bKKbTYpnoxZrNOh02FWJOKnWvs50HiHLmY/IYt3PMv578kkYgkncBMWdEq47KPwhXMXtyPyneUz9ETQ+hRtHKlcOSkXd37j5VpaeLSQmm5OqBrzpIVJQwhIEuduoYs3daRwh553uHn/0Pmmm25tPdLn5A3eOS3BfOa67AwnnnaU53DuvjSsEYVj985eUXFciyU1o4dtWo3xqziJ6g33mnW+aS3c2T/4PseLChc1WsXfHBgYzsbfNBioX3u4uoFvGwqp2s18d6XNKvOvuxZWK5eqwg2Ftr/k9MKxrsolmPh8xZM4cTz1bvwhG+fx63oWrJvF/WJ7HuWh4GGor/0Njfvn7R9ffrDjxw8///z59z6e/7/+wIf96fOPg5Q//xc=);lineShape=1;strokeColor=#562BFF;" vertex="1" parent="1">
          <mxGeometry x="519.6506820537411" y="-55.028417386673254" width="227.50303097477627" height="35.3813016182015" as="geometry" />
        </mxCell>
        <mxCell id="_RY1uGZdvzKGK2o-vaD--86" value="" style="shape=stencil(lZbdUttADIWfxrdnpNX+XlN4D2YIjYc0YUKg5e3R1mOIlkSd3vnv88pHR8c7yc3L9v55MwV6OR0PT5vf88NpO8mPKYR5v90c55MeTXI7yc3j4bj5eTy87h+W8+f7/mQ/+nV462/4s3CNUEKnAr0vV2JCan+v3C3Abt6fAxmlGCAJWnWAhsoGyIKaXSCJAUoEeyUltGyAqis4QG2IFmiMFh1AVbIltYLE14FCyFYlJgLRdSITJNolGtiRKRGq7ZzqQE4jooBtI2oFO4BUkAVK84EMsrrmBhIHKGMjUkV1VIphXCGqW5zO6W1pFggITklaQK4G0CKzs0KuaMkCGSE53lARrZlU6OB8dG+TXUFbGfyBoGFG6V8zykPjCLFcB87c/OkNWoPh8hI6MBbQofJa3UdysGtbX3FZJh36YUg1GJySeqzYkr6i53KrBeXbjFYnBjQa6wBofHozmhCHoVZZHTN1QP4HkDima09Dx0whrm7+BBKyE0yc1rQ+i43ofHRBtW4tDHHaEMYwzrym7cXn1ar2AxKvKXLteWuLSODg1ZNsYgRfUc0TWz831xQcR4GYkZweBxmBBHEmRz0x/Bm0AY6garpBofHfpgdfO47HebdbNizn98cdil5adjdy+wE=);lineShape=1;strokeColor=#562BFF;" vertex="1" parent="1">
          <mxGeometry x="634.3684176004276" y="-52.170046390044945" width="2.958379694397509" height="2.9674550136526117" as="geometry" />
        </mxCell>
        <mxCell id="_RY1uGZdvzKGK2o-vaD--87" value="" style="shape=stencil(rVfZbtswEPwavS64XJ7PafofAeLUQl07cNzr77uqIFUkpZEN9E2WZ6g9Z5edPH0cX94PnTUft+vl6+Fn/3o7dvKps7Y/Hw/X/qZPnTx38vR2uR6+XC/fz6/j7/eXATk8fbv8GE74NfIMiR9I1vyeXhjz98XnEX7qzwu4pSwVnNM2PFIMFVx4G86BXC7wjiLA20TWFHj2ZAHBMXlXEISJwzbBqwGxIHhDyW8TgqdcmhQiJQEhUovLDMQ85WSVkIS4zEHyFCIg5MnimZBIACH7Oqx6hAdhzZlCmbeMy0gJsSFYUEhKSKkkMBkHCbl0OlsafiJCZZJQBD6wmX2cGR6W9/CJyokwubVJKFOdteJBueYm1fpGdhLREFLGqW4IGRWTlk6oCR4nwqXa6YDD6mxJiHt5kOoLniLOQ01wUDZWTLIUgAqsOM1QBVbCashhQmgIBpsUGwJjQl18huJOj0rtdMTFVzeQwPmz1qOzot8rAwGLZSs0KvjY61rK8qNiOXftnXK8iMP/YnjixijU1sMUKkevtrWA3A1zrpFXJMhxbWwJKCed1ZVJMULx8/M6Mg93A8VP9416odG2BsKhGw2X+4b1MKzDylQSdAViYFKzkjF2odn4mKe8rOKbhVLxFsTUTANteT5weF44F/YH0G5mOm2uIkrAXa360pwE1z2Fl6fHHWMqNVJtgb5WcEcZFE9jjOwZU7pqyT0SSJ5m3H15MtPicF8ZGDhgH7y27ML14d8N6a0/ncYL1vL/+kalr8bbmDz/AQ==);lineShape=1;strokeColor=#562BFF;" vertex="1" parent="1">
          <mxGeometry x="497.39775202605506" y="-16.19533489345531" width="190.2226386923763" height="11.801687240841764" as="geometry" />
        </mxCell>
        <mxCell id="_RY1uGZdvzKGK2o-vaD--101" value="" style="shape=stencil(7VrJbh03EPyadyW4NZez4/yHAcuREMUyZGX7+zTzwKdh9UyNdQsC3bSwhk12d/XGS/rw/f7Tt7tL9N9fnp9+vfvz4fPL/SX9dInx4ev93fPDi/50SR8v6cOXp+e7X56ffv/6+fr7t09j5fjpt6c/xhf+uuKaK2mAov/7+ofgpP37h5+vyx8fvm6WF9fjsjy50I+XZ9frsry6WI6X68f8Kow4n4/XB5fasv5Vvt313sn6/RxcFba+r9+X5jKRJ7pe1uNmF8ltiqvr91t1icjfXezL+l6cJ/KHNK/vBtADEAUEvT/YIblGJBoqWDXckqueAMRlWe/ITy3uA9RCQQnVSSJG5F1ZbTQ3aqRJTR4AeoYTgCCgED0ooHgEyAnA7JArBdRgAMRUB6AaABepJXMGoukBaAbAr7VbPQQOKAhojF8C8lHOzhPzHoCGgMgPbXdIXHE9I0CYSBEdSNTg2bUqq66KK+pxTNMyOeLmooHSWOrOr4DmqabHra8iNXGd+HTurkYEMOaW7ApEnj5VuQ9ok+c2h/bE+EpwGXhJhSRnKNFF8GnlJXIG3SGuppEa1bQK4NdDKxcyf5DiwrqDBlCmOIl4Swoo5JZUcZKNSOTQuaB5q3UFQmTq8n21JfUHT1w0RwxZetGJGV+YEm9CFrMl3SGsZFw1ZBE96Bk8mLenZJzFJbNDYyI1tFY9A4tAqumwZgJqXZHwkqhDAhkXl5gttUkqN00XF5nHeRfWHUaoJ9yqegUSGDGJ6KFoCFxtST2OabqICbvdJWKtpc30enOthVxrjXhLuqcnItVbSngDJBpQlBiB7oXroalIEONkRr19gEbl1ZZSpcbX8mTSGyDPIHYIANNIM5M9ArSAAOZAA2B2aIRmFIClUppCHgKaAbBrFczuh0hMcQro5pbYGQTjg+qBBcUBqAgI7NCCNKMAVgLtAjLT9B6gnIhUEMBqIAVgjGvUp0eys4qkrEFtqbi67lB4Vql1JIYsjaLMvDsqrvMk8fXfm1qU1UA9IGtoLcrypR5nvNkAhBxaS1XwuF6nZvYBBTOBLjQ+9I503/MMxIeA/kZAqwZAzFsBkP4ogJXHvSPNKKASaw3+lk9tEJ21ZXYQQs1vCGU0cXbsgABqHHqxGQEsmR6qMyJRe+3ze1sA13UxZ2DJtAKg79CFpokDEBEQTwBGcaxA3tkh097JABQEsI7jzi3lmaX9qB4yze93NK0AQsfDlsQAOG+gteaZj/+oP2TKrvtO2ohDHDgpPzYyh/B2peUmddK3sZ/woGL59dRJ3wgoWDhpUKEulLGW07DF2HLEOWjBe17BaiiF9sm4aZZwWEVUnj+02cTdpAM0tazTATYJB7NwTWmgG6IpDWs9aNKUTdLUeR4HXalRzL1XHe9Vx/+j6rhJvDHvSHhGy/ZiGjQs21UPBvOWSmuCWmY/c+PTnSiumkZZKXQYVNrsTGx62ayTUARHZuLnnkctIKDv1GlCM/rAYHyJ7+CR70+6UmImYKnSsZ8YPeTK55ARE8shJOuhNgyjNVDzzoa91bpYkylHzIBaoKlANiOz0RJlQ4hgQpaf89gjQDfGx5gvJzNYPDl0QX9Qn2Yp2eg2rrYU+1lbFyJQFDocVVtKGQGRDyFyRpHYbKeY0eUJkZWIcVrNkTZdw4w3W9Yg16pngJHZYCrmoiZOq7WygDIGWustaQZFPS6ZHSrtJOgl4sgs8GmqIPPpoVmnOUWszMrJJNLoQcmYZTODGKG9zivk91H+DfA+yreA/9ooP2AqrUTGqFKZ1JsHSUwk5Wo71Wa9kBiwedJ4GhrqbOxtuwisORhNF6FTTTezvtJeomBYbzyGRpOZZFoAeTP3521p02bJgVqFR5KMhTaXIg45Qz55kwd8VOgbOzN6CLRb3HB87+nXG/I173y0yTqb5awwxKP62RI4WA7E63kVieWRp13DNkPd63L2FM+8R/E0Lu0sb/TeIbDeWkpHR+2wnE6Irc3QbhNyTuC19duerJ4u1x9eX8d+eXh8vD6u3f4fX9Pqn64vcdPHfwA=);lineShape=1;strokeColor=#562BFF;" vertex="1" parent="1">
          <mxGeometry x="-560.9867179022285" y="533.2185639902746" width="236.7461244962386" height="82.1602382643874" as="geometry" />
        </mxCell>
        <mxCell id="_RY1uGZdvzKGK2o-vaD--102" value="" style="shape=stencil(7ZzLkt62EYWfZrYo4k6sHec9XGU5mooiuWQ5l7dPI2NyyNP8P+ZfJQvtRhocAo2+4HSjMS/5h98+/vTrh5e0/Pbt65e/fvjH68/fPr7kP72k9Pr544evr9/sp5f840v+4ZcvXz/85euX3z///PbvX3+aI+dPf/vy9/mFf77hSkh9gtLyr7f/SDGs9T//8+e38Z9ePx/G55DaeXzB8SlkGb+GXB6Pj2H+6jA+l5Dj4/FLyOf1F1t/o/GpnMbXJbRO68nn9dR127EH+9OX0/i279jl+K7rsfFjwHpiWOIZsGxbfA1wGq4lVNJAC/U8Q1kZ0EMXQA0LybCGMhRQMgBGKIsuKYMWTM19PQudQoQZzE7XRXeJ7CjVkKoDwC6ZppssKYZBMozNMHehW2gJTG8J9QzIA33HAH/syQ5IoZDQZghnxaUWBm1rU/ecDkK7VLbocAAkAqQwzg46QxoYnwFSVBnIQw2wyAzr3ZLS2ZZMlQMUZ4B23tYcQwTF2Z6ops2WeFvHWWjTNOqhaRzLOayk6XULWzugotC2YgkCeQ2dTh4LjBIEYqiguNzCcjbvknGXsrmoAAoK/b7iwwydACPUpDJQqDTAOPuDLZKstSxqrbZvNzN08emxBc9HgHTepRnaSNMWq8+Rz6wLOUYP2c3Q6dBtW5zbhbZtIE3XUJ15JwqVdqKdeYzNSYfiBIjiVjYNW9J5l2b0pl1q2/cOpkEnkC0giceVzVgeGt9QPQzYJTNmDfcWyGBJJSndizVE0LQBxIGMEBWQwQD5LEM0CgjmbQDhGgaI4EATkByAdskARQFkrRNw3taBHHFu0qLjbzY1Pzm+Pbkep4MbgVt0W7owIDsAa7k5HdyYRasKIAp6OUNhQBbDyzyDnflnNRixpvPNA4zFEt+bhichxrIrMu2szmMhppNpFMczSogQ9SxTUJ6xhEGArizAghgaX9fcYTJKMr5Vg9jMicmWVjWNtH/iGjA02TD6FgFQ95B1YGMUVy0XUcUZAEzD8imhDbYkOhAtPVqc0ETfquOsk8WCpmt1tYa8BcKHgFUBhWSouksGyGDetaoDTQAJvTvkE4DhAKTpqun9FBp8egJcSkZRYwK8HoD6TIDLEtvNknxayZq+ALDivAzk0xNQFTB4l5R31y0NvAY05d0W+RJta9fKT97t9xrgmL0xQKqatKj5zwSA4lpxFJSX1JpGPuMaFL2bBXfRtB1iEDUmQI7dFU8gW5JoOtonCFC3StIOGHiKGmCI0A2Zvcmg53TH6lVf9ASqGfXQS2hS1xyYCvSu0XstXAgdqodRUXE2Q1RGtmzfuEZk1dwYmFc2l66PFhaIAmYb/byv64pxxgBS7+pcbG1rKOczq3GdpSedoUYMTL05p17DCjOsy6anI50Bode0fe+QJlJwNdOJEo0X1MNat3ThMAMVKte2sf9jNIZdWvuWIh0CE3GHseiSJnEFDxppy2AO20pp1sjuRMmbm18DilIBy77JHwwgtxUWZnhFiyR+mFiOqA66sACLxj0uaNj4rInxCgHD1iNsLDasZ4ysqX3ap7wGVC3ivF9dXAO6eue8TYEwaSFOzCgWXtLQ/Gdgec/GL3ITsp0VjyTQ6h6ywzlefJkF7s6VsY42HE1KSKuuxhPnmePFLfGUmvKKV3Kc6Jt47+OpujrHrzqe5dX61t331Wm2wv3D8boeDHNdq1sJa0NzvCQ8mGxffZ9urP36Ex8E3R2XG8t4OF7XXymIdleEvR1fdDyv3/sjRyzvjzfjnT/y+r0/PhkflqfiD1MJH9/MX57S170/anyg5MDbG5Otp8e74lTFctmBpR8OGNqg4QJcQUI69nuQQ8KFx7Y/hSP7ZNa2EDu2qfRqTCI5JoGn3qJ5LOeMNl5LhHwKR41ynDuZxEmtolCULhoVO/OaopmTcVFKU2xBw5VpqSZqfFpbl8bWkvFQBXLnF7drhkc5gdhd3j/xKOuIrheB7posEdIKftoo88PMSQ6bBa8hLTfTbWW6Zdmf3NVYmkLxyPJL7UUYWOLs7s6v3pR0Vu2nmGUkyvOb3r3OLJwKX027TizPJ5LZhtZPLOZQmXbWKuSObeAx1bvW12fcpBlWzcJtSXRw2gxdhC7oQL3oSdW5V81+XVxZCitlXZt58k3xrmqv2iytUUWnunu/gdXvWdGRnLch/zIZ5K4mdiTYzROwhNVvW5IweIt8WGQqKsPspSGhY+gSKgcWIOvYYvUBgAV5V9fNFUlAbcoyLBg/eW1Rkeh9v2/aAd/vm/4bwP/6vklLoje3QcU1Sg7sJLNTWQ/2jGxmXjoLoGKpoHpGxgXLMvTy/6bDtawu2V6R5xpgcYVjnMF1SyduMjRAkujdMTkpe43ywFsp3M8mDMkdCqasJbt+O7al4lpiMyfdJSrXuNvWqClcXLlVJaniYsb84Xsn2R/jv3eSKeD/r5NM7wgiHogXdlR5hujOt5sQs2ztR8e4CnowHi9LsphEZ7QxVElnMudw2fGMctM0XLbLrgNnpWQjF1cPaGgatiSNq2kj1o+E1m0d+JIm+2IpNy94PcwSBbe4K2ftHFddx/rMTigILFrImTyDzNsZX+5I1Gcu4p8akOJW1bSdqdSWPJ8ayAyVHzNUfQhgM9DdaN4z5x2QsAEjezY2sMwyr6PF4xouySynOZ5BqXHaachB0xSXZqbguhIbyZA0CNg2ELOfxX9p01+w3G0AvZVfkUbP6wjxuMpvddJWLjjmP2Ct85GVryKSDE1pg81A9QATUeoB8xMUNRZdUuZbHwNo/+nYEs3rJY2NZe/+0DF6v785OZQdqSXk4klgxUA2yzbRAWiGRclJ5cpPHJo7WL5CaeVsJhBAw+g9H3+6t5wd9BDbtok7gHsGoytGzVT25omstEhF7Bbq2vbYCjpc1mrxfLNLEmjmXVe8R3D3YzdvlN0zTjutiCq5J8TzaR3oOLnuq5uHRq4Fk1v/ikuhI3ZgFHdrEvnRkObDczx/379iIgbjCiV3309+Pbg//o0+PVZzTbZzPBEqV0+OeENflKXOu0Dcfz+ezqer8XTPcCUvVoWe/JsH9+Pth/c/sPDL66dPb3+f4fh7/YMM9l9vf8wh//hv);lineShape=1;strokeColor=#562BFF;" vertex="1" parent="1">
          <mxGeometry x="-234.14133291505595" y="496.49258768478944" width="489.0119646287563" height="157.19715024038044" as="geometry" />
        </mxCell>
        <mxCell id="_RY1uGZdvzKGK2o-vaD--103" value="" style="shape=stencil(hVbZctswDPwavWKIg9dzmv5HZuLUmrp2xnF6/H3hamQHjL19k8QFBSx2QU768LZ9et1Mkt5Ox8P3za/5+bSd9MskMu+3m+N88qdJHyd9eDkcN9+Oh/f98/L++nRGnp9+HH6ed/i9xLGQlXOUpD/Ll9zI7N+Xr0vAbt5/CCiUOeKVmO/jhSQHvGWqch+fiCXgtVJShFcLeKnUM8qn9YDnDuutY73OmNb7eFaqMeCyw+18EjWNhJKi/BtxLLhA/tWotYDvVAGf5oTGBnCmBhpmSj0WLE4BYNQFIDW2WKgASs1IokaNqRRYQ49/MC+6AZJckzEgO6sgwEnkyGpx4XYQwCNLhUlBABvVFFPqVIAwGumgo0wM8Eo2GLNBYSfKA6eJEhCer8b81bsCmsbUIt6tivL/1DJnDBmNeXRyowb2Z5+DQwOgrK/LV3wGRnPR1zzkI//B24hHvvTJGyeduwzgs6zyWvGXDt4+CHT9/RWP6q1KGi1jxEBvTdbtLg1O8OTo7sA4Jny0V2Cx7oMtKsIliiTR+6rISwm6jqbbGkqfXOCDRYFKu5swBpQOZdFtzKnxOl9v81pHo3WGJ0L1uTMcgWmUhj9cbxgv8263XFA+ro83Ev+03Gb08S8=);lineShape=1;strokeColor=#562BFF;" vertex="1" parent="1">
          <mxGeometry x="53.442413229749945" y="498.00318003094526" width="4.029249543615045" height="3.2554237940051762" as="geometry" />
        </mxCell>
        <mxCell id="_RY1uGZdvzKGK2o-vaD--104" value="" style="shape=stencil(7VhJchsxDHzNXFEkwQU8O84/XGU5UkWRXLKc5ffBZEqJCcpNzS0H30ajBgWgG4s48d3L9uF5MwX3cj4dv25+7B7P24k/TSHsDtvNaXfWp4nvJ757Op42X07H18Pj8vn5YUbOT9+O3+cTfi52jgLPRsH9Wl6UQqH8efN5we93hwbvXYuvxBDvSosXyhXiU4vPVDzEG/+ZEkN8aPBZ/Y8Q71t8JMb+t/lJQjWvwTMxxrf+xEJ1TbwxUJUV+WShsoYvTpQxX60emClD/43eOMB8eore+iNAn4lqmx/OFNH5kaqzBgISFFTv5he0wkCGYqKULcUCXMpMoTXIgQRwrCVrRKQiRQbVkzeq06AdMKg2rX91/i4+GrwEjDcyoogCUHxt2wRlgPeuq0sfLkfcbCGQtisWIVIGWp2jkNagkgApzQatMrTaSlrDg6rbgSBmA28NEmZOWia0QAe/IIZqT4JjkLYlKdlh4FIbtHaRPHCpNfCJChgivUteuQdq6oNOxLh+TFY91F5Pm/bZVbpwcGr2wgsUB/XfKjuTB1Ohr2evLQo4dK08cd++Vp6Byqomo70fdforXSxQHqSpm7YR66gfb2kQwzqDbjSILmAg6H74VC0e0PX68faGmncnaJsm0fIBPvUzuqRLWDduAWoQgWC7NUPxcDjYNUbX4AgK9GMt/1jL/+e1vPubOU99qOfQ+4/PN/4XilD/oW3V0Q34ZcNvJA/PZ8OvwNWuw6veMthZerwM6tHgtatmmH8TbxbyOP9mv/aX2XYbXyXCftjpQfvPQA8rrzVGeH34d4fytNvvlyuYt9/bOxd9tdzX8P1v);lineShape=1;strokeColor=#562BFF;" vertex="1" parent="1">
          <mxGeometry x="-523.7033779197377" y="655.5894396561769" width="756.6193051883319" height="3.2448463875917857" as="geometry" />
        </mxCell>
        <mxCell id="_RY1uGZdvzKGK2o-vaD--105" value="" style="shape=stencil(lVfZbttADPwavRJ7cY/nNP2PAHFqoa4dOE7b/H2oCquKtDRF3+Q1RzxmSK6G+PB2fHo9DMG93a6X74df4/PtOMQvQwjj+Xi4jjd5GuLjEB9eLtfDt+vl/fw8/359miynpx+Xn9Mbfs84nym1CRXcx3zCjmr+c/J1BpzG8xpQKUQFyIUS7wNioJQVoPp+sglITF6HVAP5sg/IjrxTgMKUwz6gJOshByrAQ43kWQEkyBQBgMnpkEIjTiDpTFl78PKKCgCJWtCAQBUBIjWdtHedyl2AZlqIBlWViIomWg5wylEHJEoBJKRqSyRKBcJjT9EZewfi4USuGHsP6sNCmbb35EF9uFL1Jt/aoKyDaU0KuA1a0n3TRbhnX3R9RBAVAFgkbBQUKQLJcaFiNMqw9ZktZTKfKqppIK4aUCgiUTeqyXpoSKXyvmxzyEim3LtkVSUISBRM0r6Pm73GrLoRao9xz0G0QsqAZ8mgaGFHOH+lRLamncZt0pyNR5Tugb24z8YeCVtUZOJZlL7XmOb9AQ7GTXsg0sbUzKBIcHt45+z6iL773HZxv8ZD33G7C0prqCwq2Z4WmYqeXs3DJNLdkl2ltYkQmUXjIveRuZ2EzaHKUgT2nljzkBvcOHcsTOMGpLzsl9VdikE88q9ZmJUYNL7v3hd7IQXM3+VCsLq1BMBx6t4X+4QvXl0Ai33sMtzhy0xGsUfxyD5KzgIYJCxXoHCXQQTTXUZzLbZEDHpZhr/pfZl+DtRI1osRqZCM7mn/fyP/N0Ae/n4AvIyn0/z9sP7ffjDI0fyxER8/AQ==);lineShape=1;strokeColor=#562BFF;" vertex="1" parent="1">
          <mxGeometry x="40.744622907107896" y="495.7267850691676" width="10.231900511050886" height="10.086530262548395" as="geometry" />
        </mxCell>
        <mxCell id="_RY1uGZdvzKGK2o-vaD--106" value="" style="shape=stencil(lVfLctswDPwaXTEkwAd4TtP/yEycWlPXzjhum/x9qXokm6C8iW+yvICWwOLBQR7etk+vm4Hd2+l4+Ln5Oz6ftoN8G5jH/XZzHE/1aZDHQR5eDsfNj+Ph9/75/Pv1aUJOT78OfyYP72c7Ia+TEbuP+UVK/198P8N3476FSwP3kaTcxkeK3LqP5Pg2vlCODT4qZXcb77Plrzx/ctWAE6WWUcmQkSiF0BooNIhC7FtKhRyIUar+WoPsqYTbBuoptQahUBIQVWcNaqBdBgaRuD20Z1JkkIldY+CooDxnEjb4CGJU8VENXrD/Eg3ee4DXWcYXvMN4DffgC3G2fFDGloRenRdIouLVxieB+HhX+XYJi/ADpT2AJ0YJq5VcDD6BQq74YPEKGlHF+5Y/k0MBVUrR4D3io1bQ1T+KT+7PW5AgMoVk4/NJgUWDF4z3lg+MT+4FihrvxN8KLmC82oL3iL/aDuQ+zW9XwFhvvvOvEB8tf8b6VG/waC5N9WXjqaDgVwrYw4DebTCNOYMXEiTp+rcpmdoEwJk1WI3GGiSQtLxobJmUArMWox2tdRRmIKM67XNrcBW39YWi/4TOrWw9EWHu5Mt+IFDayVZOLJjRys7FIA1ubmxf3Ok6HeGVsXMvsHG5fiFFg7tTBN5TnO0STAnoZ+mZF3gEQ8D3ZAL0nvUOeB1Y6Q4yPJfS147KPRkUSOlFgNIktttiEdx/K8Hw+nC5AL2Mu935/nT9v70w1Vfny5Y8/gM=);lineShape=1;strokeColor=#562BFF;" vertex="1" parent="1">
          <mxGeometry x="-530.842393716985" y="796.5333413369176" width="41.817792223662444" height="56.20931796455887" as="geometry" />
        </mxCell>
        <mxCell id="_RY1uGZdvzKGK2o-vaD--107" value="" style="shape=stencil(7VrLbh03DP2auxUkUc91mv5HgDi1UdcOHKePvy/VW01Gh3fOwLsW8M6xeSKRPHxqLvLh2/2nr3eX6L+9vjz/evfHw+fX+4v8dInx4en+7uXhVX+6yMeLfPjy/HL3y8vz96fP139//TQkx0+/Pf8+/oc/rzjvahyg6P+6/qJ1l8M/v/n5Kv/48LSTj87XRb4HJ+1YPrngV/nokj+Wby4XI1+O5UNyLaECNREFoovrCU1cYYDmelgANdETRFyWBVCyS5kAigt5AeTqcqeAvnohiwvESgpIqxuyOjJywGrWHKahjwA5IKBwHf5VcQfIlQKKASRCPQVUC+A6dG8AzHHVeaN0JuxWQDAnUE8roCGgMsdVF63jmJUUAFxSajAuKaAhIHIr2ROoH7LrawDl7DJTOrkEEadmZUqLiwDoLjE/yLTJlgSUXczTaaatLc3ESZYjK2XIxEIzZQrI1uZdJ1ZKemNIZNkJ8XT2rqyeLs01BhBXV6VLcUJiOidMZCd+UCLACbW6RpTOqvSaW5sCiFlzm37dKlCaZrgJKBGp0fNk122A5taKV2In1C0LbUorfwmX1K8dCkqi9aF2JytA+SskRFuYVp+AUF1nADEhSsOhmfjxs6oeyWcP8ox5Qz6DPHOaypcI8oHwTuUh2LzzzD5psnInz/okle9vk+9Gnt0nY6On+jJ/ZRcS2pPZR2PE+IswtGXM2J6WhCGP/mUxNuTx/o0UNZUHPgTe7wyDroSOW9AdeUxWQOrTh0cArFEnOusJKyeGFbiTwWlduNJlknIDaNvHaFdmCdslU8q76qrglegJ3flsAIRJOuAEeyVyQt/miQ1QaSyoTaCj6o12tuPPxqyNZLveXTBjWyThpid4oMY2+d0GZDSrVi1PEmr3mCC1Z6PkK8hWLWqsV9AbF+g7/fzNESAbAC06EYuOAmjZjFj680lajZMIuyTQuNIwfCqAJoGIiSzxDYACakIAHenj5OYOQHN9xFp1doJMI+514ABIZMNKjBqCW4PhhxOA9fTJlRIChFU4MaPhSUnUGcYATuKhFwRUVrLU02IA/IRqAqhy8hUDYJPeiIeIgBO23ghRHnHJ0LtzemfDVrZQGgATD5mfUA29E09k0M6PED2hRjYA5gfBfnJcienwZkAxWwOhSo/N5apD0YhjgIwLJW2whFCjm9Whzk0sHoL3pmHim4xxBPQ/de4FjpoNSBu7Q4/6GWil9VDGV1va9VCaBtqNro/ytWHCH/0Hi+qKvcBouliyLFjl1K6VDyh4Qp256nDCBR1kBtVRREB7Mvrxkxq06jAGAj6k2+aBkUl1iKsOOtTQKyVcx4yx6WQOBcCMqfe9wVX+fW/wf9obmIgptOaM2g/pujlhDvOYGiXNEfn27s++qyQ61NfowmrSKrMI3V541vnWtCWudrZSxT3DtjM9WtriBK3pmLghZ1w865XYq4fdVNdG51sFyKqDJl823/54wtuYUefUfhsQZqTsludsJkkV3xnV9ywYUkSA0jGyl5s6m8ANwMknYjqkSONHIs5VtdCJQSIWBLUSW9/olexignlaNAW8KYDeX2M3wPtrrAX8115jtY0NCGBbAHVcg9enLT3fBiQsKCfPhrFjANVMHyZjRB1GX0NiOuTZ5ezmsMDqtPluRWifKrgTU3n2jhlufBfDqOrNwpevbrz5TsdPkx3Io308DU6PsanybFCwc7Cf26sjeWgx+OTi8a1kfDZE7O+RouM7KXp/aPMa315oF2vk2T5FrW30ZZtnj5Nd4ztY9b6RT5QPb/uO7Fxef/jx0dqXh8fH6zdv+7/jR276q+sHcvLxbw==);lineShape=1;strokeColor=#562BFF;" vertex="1" parent="1">
          <mxGeometry x="-492.0177857817944" y="765.5609726936063" width="148.5020807242515" height="84.9428208372338" as="geometry" />
        </mxCell>
        <mxCell id="_RY1uGZdvzKGK2o-vaD--108" value="" style="shape=stencil(lVbLctswDPwaXTEEn8A5Tf8jM3FqTV074zh9/H2hatQK9GjV3CQKKwK7CxJDeng7Pr0ehhjebtfL18OP8fl2HNKnIcbxfDxcx5s9DelxSA8vl+vhy/Xyfn6e31+fpsjp6dvl+/SHnzOOqbQJFMOveSFQSH8WPs/hp/G8ChdK0YU3KmE7nBtVdvFcScs2IDGl7AC2pdZtQLYdigPkSCFvA2pePi+AEkkZlMzE1QFqoazbALWM/Q72iwxIVaXkWZJIEbBkgJo8IEGWDCBeZqmUBAJUPUD3UuoAajU0nJKnVQsxZql676mZb4fW4AFWA1B6Es7TysHaAfjbECX3W0iEABYPEKpIiEbS8VqpoSKsITpAJkYp3fWo/nX8JsC3nMgeQLxyYh2EWQqeJfN3BE1tgNw1BJNggHAPSNiurHc7YEC569GEhDPnhJ6lggFaex0i0GHl5pXUO02qnTcyRaScLuZc2VVQB+nihFVDNKScUvDum4jDUtfWAxSf3x8DSLg78DFLNZF4bzRsV7vlsheu8nKQbN2jwXsjC2w5u6mjb7lkwoEDv5F6kuyiDmgDir4CW8mg5EDi87GVBioOVHw8WwOC/EM/aBgDyKiB2NuOC1WYfzdmcFpOkK14zw+H5Vz+v/8LHNwsfS+XZQ+rTd4+iTIkvx/zdrTqThUTD1Bj1kldOLqUPzjS7obbw7/p+WU8nebhe/29n7ZtaZ7U0+Nv);lineShape=1;strokeColor=#562BFF;" vertex="1" parent="1">
          <mxGeometry x="-394.3985019836973" y="784.9585032480754" width="50.020551618748975" height="6.415427995713852" as="geometry" />
        </mxCell>
        <mxCell id="_RY1uGZdvzKGK2o-vaD--109" value="" style="shape=stencil(7VrZbls3EP0avQ5IDtfnJP2PAHFqoa4dOG6Wv+8QAtXLw6tzbaBAXvJmS2fI4eyLTvru6/3HL3en4L6+PD/9dff9/Onl/qTvTyGcH+/vns8v9tdJP5z03een57s/n5/+efx0+f/Lx47sf/399K2f8ONCV8S5ThTcz8sHPoq/fPLHBf9wftzgs6if8UlSuY1PonXGN2l6G6+S84RXJyHfxnspacLHJC3exjtRnfDZOGwUHyd8VUnk/CB+fm9LUsj59u18fmviCb5JbTNeJRJ9efs6TATFjkiEIIkrs4SCKNNAlDSzFDMVkQ9SQcdJPLEh74YIB4GJIZE32LezkYZKhWQiX/DMSBu+2Iy0MCV49DIN1Mu61jIShEAIsmSPLFV2Q0PDszenSgw7oCdbLPBECSFKnl3NjD0SNdt5KeANmfiC6SHMYrVPIjFVE2IJKNZKWNK8aDpS244OpWQEnhGsLHlRItaoEmb/tBjOTMNu8KBpHXLbf7RFaNCDozFSy/CuTZBPTA8JzdtuYMZnBA5syfyBSMkUF8Fao0RGYP6QkaARlmKUUpAlZkvJiZtTla+SieLSElgtLBRPCEwPcxBog8d9fBU3X1Cp+xjeK+LZA+oI6xs8479K8G87P8S38R8q4BM/Xx3gM3Gcjg+IZ7m/YjFSea2wg29v4qeNPPTK97ZhIK+UZ6N5fNWXBXCSZs2eoRj01/C6T5AxqfVESqKvETRwsTKKk32CNqLINhARlrJisWNJzZEbclsil4mBSLXEYWRbAuJmZXHjnkEYwV6twFJ/J4As6GjkMoIMWTCOaLlLUO28+Q16VeU+gTUW8xssayXCUi0jmm+qVEdsqQVsFcJVDPsEacmzQSKr/Ss2F1ass0xuvUTAAFzJmw2f5wviyLs38fP5TuIBvgJeOf/FAZ4FmLYYquVcpoGGjYXhSUIwfF3O5/zX5Xwun4bnszah41H+zJE7HvlR1qk5h42LG9Hp5gWoYBaKOj4BvhwIyAP+wKAh+joa3jt+OZ/jy3I+N6CC5x+8N6PCWMm465BcXwueGcQePwcGB2H60KAL8nPgMDUg/sAh0T7dgX0u5/MA1NAeDgLW4pCBZIB9hyQC+j8IIm0v27XVe10RaEksziZhSaywYU4WD2lS+Q0BKyirPtiM0lI9RCFL9ZW4TS8moFyx0pnd4Ma8alN9ZBJYrCCCUt8KooMaDQrTXnIRvZW29OCVJuNeNi5VIMuuO4VppdEor8W1NWjEWK24xqY9U8WlpSCykouVjb2jgHm3iYE1CBnFai2IP2jaZ5baUdP4u2nn5/9u2n9t056Wpp2NTFNcXCzSziw5DES+0dlejFKh4VUaG3VteNOo/G+NG3WZdbNwbdEcxwKB78XSsni71sI3h7IgpUqXFNGNucTmBla8xzCmwps3sKQWFU0jFGp7dkODvYmn4dreAJPo3rSzWfd1VbUhYKsiDcuiRUdTu0vQ3XGpRgJfg4DiTEosC/ZFy5IFlRFcxwwbgsYWcEuZ3RctxIH6OgqGJ14y2zrqUr4oLS4sqEBrbZph/tDGVmXDEdsg1LEl3TyZtkZLOVX4i/3oPDbFTmMy1VF4bEpC1mxaGIXmJWa6gPMJHToHusfp+wjItY5anl92II2vx9KSGxzv8PyIotcLMp3POtRCVfrkpTvKiaZDj91OTHSaqztDxEp/PwDRxTdeYy/4SCccGRtyr9QNMg5QDE/n4+hmHc/PX3ZiTP4ZJ2odT9wy4wCrv5d1RWg/Hc+m9WOGvMGz8rcsSZnbZ8Ffb3ienvbw7HcDe/ywsFtwcWv2xiYub/090jHe/vjvx0+fzw8Pl99Obb/HH0vZR5cfWumHfwE=);lineShape=1;strokeColor=#562BFF;" vertex="1" parent="1">
          <mxGeometry x="-233.7515597610709" y="777.5878496995383" width="359.48795803099745" height="135.91049651799977" as="geometry" />
        </mxCell>
        <mxCell id="_RY1uGZdvzKGK2o-vaD--110" value="" style="shape=stencil(lVbZbuMwDPwavxLUTT73+I8CTTfGpkmRpnv8/cprqNURT5E3WxpSHHJIaXJ37/unt91k+f1yPv3c/Z6fL/vJ3U/Wzsf97jxf8tfkHiZ393I6736cTx/H5/X/7WlBLl+vp1+Lhz+rnSqJX6ws/11XDJnwf+FxxR/mY4WXRKoNXkh4G58sJdP6FzKybRBc2S4GzpG4bYO8bVsGiwsQUg5AY2OQTEnCdQNL0oaUs+CQAZNNjUFOszXbBkoaerxPCG9sj0+oCiRDPAKKEAu9Cq8A7ym2CTLMxCAgRzwEpKDIpj9gIazbeKY4EAiAQI528O9APBk/FIxBwZhCh89tYxHf4Hp8BALKCtUe70Ebe/LS4x0UhPEDHuQ/FTnW8QD/0k+VhS+IXwdBS1nZ7Mi253PBDBIcX2kxxFhLvit8BAdI0VfdkkAR8UoLK8hQ6Kfi9y0ZdDggIskZMxAAQ5FJh5aMwD+XiVnPRJCgT3Z1haH/2/C2b+F8CVjAV8rAqW6ZCPD5gNQWIFh48XlbRkJ1UwZQ4WiJW02b3KdAQymStgZ4SoiQbTlzuf238KnHIwKivUaZHJCEchkiX3hUYjU93ywShHfkTI8H8aun5G/BxzKjKjyaiok838JX+muAC6Hr+DwCe/8ezcTPkVbpAb3MeGhKhs+CW1+v3+Pzx9dT+WU+HNaXdr3fP63z0vosdw//AA==);lineShape=1;strokeColor=#562BFF;" vertex="1" parent="1">
          <mxGeometry x="115.32881060505815" y="757.9001239226141" width="11.657962061391814" height="73.63751275991731" as="geometry" />
        </mxCell>
        <mxCell id="_RY1uGZdvzKGK2o-vaD--111" value="" style="shape=stencil(7VrJbtw6EPyauRLc2Txn+Y8AceJB/OzAcba/TzMDymJRKnluL4BvY5kl9l7Npk7hzbfbD19vTt5+e3p8+HLz8/zx6fYU3p68P9/f3jyen/TXKbw7hTefHh5vPj8+fL//ePn764e2sv367+FHe8OvC84lU3xDefv78qSIyfHvk/cXwN35fg0IxskIyCYVArBG6ghIJtR9QDHZjutjf7K5PprkUCBP1juUR6zxRAFr8mghyf3JzvvD+P4aTKLy1zKuF+MzN+goUK3GBgIopuYRsNhsEzCLpCpbEhTBGgs+SCaTHYLHHXI2jjghRONGpVM1iYkUjU0jQM1ArNQAFQHCdFCRAgIKB3iLABZJDVAQwHJNAWFS+sBKcdLhAADZ1gDCAZNZWYFRQJ50KNxxeXYcB0DNa6GROACsJMZypXEHzWkeGmEEZGfywQ6j0ll6WdgGZMy4UiggOsxpScaSuhSziXEEiAkEkBxaSctMJcyQUo/NBeBNJI5Tv3pgt0y5RAF29HTxtFQmLVsOAY6YVXWoow5aKqnSmi6jSOJo1dDIqSNDq+MCybhcezCvGJFVPo0cC9W70B1Ei8CY07FQQqm2R04H+GQisZJyLFSNahxbn7CN0R1Jvun6ZGF9JE6oU6hqk8HlSSiP4/KAvrbT1956KGGW9gy6XhyuJ4mj6yva52g96kvlyb32rOzD3p+xXziw59J+vNBfGbn8IB5yr//P6xOpXFvvZ3zQ1kOX3XN0b72M73dCSbMWDDjt4ViR0C4WIi5qDDKRqqlAmktQ7TTCS4ytWZPLBBSVQyfe3bQEmtXyTjitOhOhx9PzFAcEh4DEAT4jIDLPKWDqXjyLJQVEBDBOa4AxmVtDxVztOl2sWzaWDm6jT6XB5EyaAYxxHNJsA3A/zF0kzSCHKdesxEWShH5gbWcDTKHhD0SaPM3O5k3pioDEd5g7Ydb+b/hBCwmr9LOnpe/50lgSXlvnaBXaRbZ8KAiI12ZcuDan2fl5s2pYbiU4kbTw5qGBla/0YNl13AzgRSBfCygTQLjjrgQslLZiIM/MKlgqlVAiZ8U0cZxnSlcTQIfMWwHBI0zkvKutgB1Do41zGO1OzVVrNni3msdoLbzbe+3OX7vz/3N3nnBq5rg9Y0/x59Ms5Q+LQwU9LgvJeUndP6sDeSIWKgUzJgsNoVyRNMVRHteyJtPQmc3MtDRD3ZLD0QtQWlnifHfeNA13mNJNJBgfOdr9P9PLakBVuQ7gaQk0ddLUEwrvOmPG2JNKjwvR9vPKat5EB7a5j1oWpYXq0Cbt4w4afHSWH3AknB1tU19vCxbA623Bv3BbUOC4UE1hO4Speudu6G2A7WywqkvsUlX5JkzVm+WDE6RcJcnIABaPnqv5z3Zh6rOgZYfas3xzvcWmqgZ6gJmmT6pyYDfhvQdZbFoPLrbhqKB0xS6GNVPghidQJzuHTUCJ9PTvArbZ7ZqXlCSXsaxqH8H40E2NYeFjmwYQBAgH+GmHykWCs7myFWvmNwGeWwlFkl6ZX6q00EPkhlmFf7QxO+7gs5A0XS9KL7R7APwsRCgfNoC9cocrP205BuiP5y9pPp3v7i4f4qz/j1/e6KPLVzvh3R8=);lineShape=1;strokeColor=#562BFF;" vertex="1" parent="1">
          <mxGeometry x="214.33877182507877" y="697.4766651391715" width="186.3444342817328" height="120.34183715790947" as="geometry" />
        </mxCell>
        <mxCell id="_RY1uGZdvzKGK2o-vaD--112" value="" style="shape=stencil(rVdJbhtBDHzNXAn23jw7zj8MWI6EKJIhy1l+H06EkUXKUyMBuc1S1c2lSHYP6eFt/fS6GiK/HQ/776tfm+fjekhfhhg3u/XqsDnq05Aeh/Twsj+svh3277vn0/vr04gcn37sf44r/D7xmEofSZH/TB96+ffh6wm+3ewu4IEkGXjIVOs8PlFsBh8bxT6PL5SLwedMnefxQk0MvkYKDdjfqEdDaImqAAeYhA2hM1XgQe7UrMs9QULtk8VnQiYBMe0aJEcoVAIIklDNntBAlpXQqiVUCgkSuiNonrFJ4kzq1EGURoLNtGhmACEwE9vMyVmNs1vYWhCNa8QEKyZplIGYxjDZ8pEOnRgT4XY4LzGb6uAJSEz6O4snpIwJ7H1gTEjO6bqkjehMysQ4D54QprjdaFIXKjiszmnVd0N9SddzhEp5oUZt4rRGYee7koYSBDvtxKcmtYWSczv0ewuIKaJp8kmNxilwt7aBPI2AGxuNqm+h0bhWpvoudzXLMZcLNWpNuojDf2JczwgRGKfrKTRWFUj29Zxb6AM6SftVew1AsDqr/RRS/cHDgItSq1SAC7q9Naj0aYVP8ZHEHU4C9Dj4s1VUJQG8Foutt6AWgpwxBaeKDKe0SsZmLERqoCcp3h321F+Md8U8GXgbHB8ZeJoB52xRAupRuBVPooJjaX2NUJs8mfpxbBa4emIHR7WlcHFwVOzsRzjDMrnzyL8I14eP28XLZrs9XU4u//vbiH463WTS418=);lineShape=1;strokeColor=#562BFF;" vertex="1" parent="1">
          <mxGeometry x="342.10218948762395" y="740.275381114157" width="166.1977269286656" height="8.302044372912325" as="geometry" />
        </mxCell>
        <mxCell id="_RY1uGZdvzKGK2o-vaD--113" value="" style="shape=stencil(7Zrbbhs3EIafRrcEyeHxOk3fI0CcWqhrB46bw9t3pjIlckb7bxUgFwV8J8v7ieScZ7gHevfl/sPnu0P0X16en/68+3b8+HJ/oN8OMR4f7++ejy/86UDvD/Tu09Pz3R/PT38/fjz9/fmDPCmf/nr6Kr/w/cSl4GoVKvofp29idt3/+83vJ+Dh+LgCPa4AudgAEF30CxC6SwSBTCuQXIq3AM0V9DwfoS3Pk8voyN7VsDzvXcnbz1N1Pa8ich0cmJIrZT0wayUBIDhagVidByuwQPp6glTglvj3elqAUlwBMuIV/CrTFl3DQF3NoifnwaFjd3GVau8udwwkDRRgqQKQBl69YxPwGmjAMhgIRQOvmtkEggEKBLyRUsdS8so9vR9fbRqTkStcornWDIDExIBdAW+pWUWAECDWVzWAXE4AozkUBNiDilJEwy5H2oM6RwFgriG7tEqpeUfAXIt2oFLhAl5bRq4wBvjhjufnA8wMzaX1+cRxG7lbcF4BdSSj63GSXCENVOBuiVzIGigoV7URUSaggRVEJFkfOiIgulQ1gCJAJkdqhT7c6TrA2XWNMZntCOgtc4VQ9QpwS1U7jygOWFJuRnEJhhgGgjKN4BpQXC4ur85DfSTVLSnR6g3UYBmTo45JDCD3ZEBlRN5SBObNW+pKSh5mxMyFVzNSAocu2bV6C1DjqLymLUUgpdq0P3D1FMEKLegtsZejyN1IZ3Uun5DiGFAplLjeA2JlIHgDAMUJUDSQgWnIGaIBdg7dbwTIHDojPZCOGnJo4NMCmEOjcN/OVfkEVJByBSANoHJMgKQBVJhcWSEMY9kEggYCBpSLMoAciMts1ZywPyQkVu6WjMftmLduHiIsi1vV/iDdBjA+LnSULXFCScD4eh4uP6csICUp1kzKKiDtSjlosmgGSVEKTjIrAH+4lLQzgA59TrITgCLfpSyfKwFgfFPlP2d2oGpZomlFhJ1TZw1EDLRugB1F2HIG28YVY8JyVf26ANiYdGXsR2+6CZgtobAhQNQAmghYIOFO1G5JrA+EDXtosW8MFONyKI2K4ozLofpHTMOY9x7QzJawWLuVEhZrNyugBmLDR3f2ZKzP3xRoxPp2ooBxOVTE9a4bfPEgrOobgawbM+68PAobQU+L5NCoey3D/KemJuOqT1ffNBrarUztValb4QCLgWhq451q463UfSt1/y+lrhnn0M6AKbqgDs1dPDBv7kaTMr4K5w7S75q5AxqeXumo+SfQdKaPHf9XIJmsGGA5k6Negc6JdRNQituZYaUrYq1o/lOGMU8roGJDBkZZHxrV9yxWNW1NGQ9b2siZ0xwuoSlZ0QAnFHjoNIx5Slmols6k56G8AtxS1KFyp+WQaaXXh0b9wGWCOwEo3CeTHxhALioz3WT0gKfG6grlMrTdGEvbujUBU/LjpmFSG6rgWEdmrI66hzIEOI3tkbeFPKb6A6g7lyE05mEDuBRD14FqLnQarPfe7u5UYb0FvN3dvSoCX2b/6ru7pmvQnmAkjueLsQHI7TeyjeqSuosrsGiNTftoKjAjSnm3binuAEm7XAjwRuQyNjyvMNLL9VDvtZCwrXKdo6to2PJJN3XTayA03jc4Hzjh90Ciq6tZhA47PjmBehHk3HtsAbSuEDPOt3GkjknLHgOqyGAgAC0LkDSAkgMD6iqOAZTfBCADYCmpykoAdIagJyB7KwR9syYA0rS5lRIp4S01s0JA3hN0mBQAv6hVjaahv/3Eq2B7AH+4vHn26fjwcHpxbf6/flONvzq95Ubv/wE=);lineShape=1;strokeColor=#562BFF;" vertex="1" parent="1">
          <mxGeometry x="431.62721269246003" y="707.7996816721834" width="241.92039121317762" height="155.0176302959886" as="geometry" />
        </mxCell>
        <mxCell id="_RY1uGZdvzKGK2o-vaD--114" value="" style="shape=stencil(lVfZbuMwDPwavxKUqPO52/5HgaYbY7NJkabX36+8hhtJdKbwm48ZiiI5FDXI3ev+8WU3WH69nE9/dh/j02U/yK/B2vG4353HS3ka5H6Qu+fTeff7fHo7Ps3vL48Tcnr6e3qfLHzOvJwp88Sy/DV/YRL7/8PDjD+MxxpvybV4Rxbgk5C4Bm+YjL9NCJmibwjFo5BvE7z0HomnAFaQtNhbCN6SCbcJNlAIDSEkMuY2wUSy7R6SoeAAgcm1hGzIAYInbj3KZUnkEZk2RiXvCQSVKecen4E/TMkpfEL4LqKGmZgRwaWNBFE7xh4Zv23HrPA4oqwzIBBvenyMEJ8UHgiTl3qp8AHal6jwMD5exSfA/UZVQdh+VvEMQMSGWNmPoH6KYqzCQ/u6fhKI/5r9BOqz+C+qPmE8k1YwzG9U/mRYz77v6z8KUgsMLmC1gEFbXxNABi1xTWAJ21f+RCx4td+IBb8JL0s0qiPAgPhnkm6/ZsnIesGFvkLLIebRMenJt4RyTDKQgMTFXnUQM3Cp/LZtjuV7zfVhIi09pxomPOgqqazQtQmomimG7QIOiiAnSv24BZOW9HjGIAelZtj2eFBEBW9CjweiKXhR9pH/mVzchg/KPhpHv5tyhQcVNGlc+QO67rXnVPnC8ewGp4IH9VM1zSsBzdPXLl7hUYFune9/xJeH62XieTwc5rtI/b+/fJRP88VF7v8B);lineShape=1;strokeColor=#562BFF;" vertex="1" parent="1">
          <mxGeometry x="131.62404081158957" y="706.1584532335896" width="102.39317190301442" height="317.9445483225861" as="geometry" />
        </mxCell>
        <mxCell id="_RY1uGZdvzKGK2o-vaD--115" value="" style="shape=stencil(lVfLctswDPwaXTEg+D6n6X9kJk6tqWtnHLdN/r5QNUpEIl7FN1leiAB28eDg7172D8+7Qfjlcj793P0dHy/7wX8bRMbjfnceL/o0+PvB3z2dzrsf59Pv4+P8+/lhQk5Pv05/pi+8znaOmZgnM+G3+RWT1P8vvs8Gh/G4MqiVamzwjioDfCHJDT6RDwAfiUv7fU8xXTcomWLrkERKwCAncqExCI4YuJSEpD0hagzuukFIFNoYsiMXrxt4IV8bgyIUwQlKUmpjqEwR0OCYckuzJrqCoIVyG4ISXzzCdyxMQgEOaU7Z4AFrjnI2eKBTtzD0LqMPpX9qwFSSOaAgfLAOgQQxOZvQjPAsPT6DgBXvDB7G6wxhSWC8xp8INK35NARDhfZFpvgA8q+CMPEivPRVP/mDSmzxdo0HAtWCsfmEBWP1lkH+FW/yX2CB9R1C8TA/3nwfNQht+xYP+QptvFsF6frBtFHx2gCrwUOBiiGg4AKzeCAgM1gngmGDYON/gv7fhs8LPasJkEEDctkolMmjCtACaU8o73Pt8znpe43qnGQQQqzk26ark1hA0WRP4huDwFRB0CVQatvKtE2g/UZ6GqZ9BchCsy5t4egygQ5IfeFvLFypn5QbC11aVLzCg5QqvlsAdZIAVdRMrvfHIf9zP1gZakLxxn9G/hdytcfjBbZT9Sa+plv8qQv9X4y39n1uI5/V5gfyZRZ8rIebbxBfMNCHjwvL03g4zPed9f/9BUdfzZcjf/8P);lineShape=1;strokeColor=#562BFF;" vertex="1" parent="1">
          <mxGeometry x="-308.3588807320825" y="701.4565755554663" width="41.20127444906757" height="224.79660970134213" as="geometry" />
        </mxCell>
        <mxCell id="_RY1uGZdvzKGK2o-vaD--116" value="" style="shape=stencil(7VjLbtswEPwaXQmSy+c5Tf8jQJxaqGsHjtsmf99VBbnmkh5Ktx5yk+UZcV+zXHKgh7f90+tusPrtcj593/0eny/7gb4M1o7H/e48XvhpoMeBHl5O59238+nn8Xn+/fo0IaenH6df0xfeZ55WZCaS1R/zC6Nc+Pvi6ww/jMcCboKAJ4Pg2hdwqyJBuJNwB+Ek4RrCrYAHC+FGwD3+uoQTDKTWAm7yJrjGtpdwThMOpISHuMFVozw2xgq4w4EkASf8dSfgFtoeUgF3yoG4k7LCdqOiv49PKosq8DBRJilfEhypABRFvH5pUbAqp/sEF6ULMcPKDKR0qfGslQUJi1GZsnyyVwRykOKi0yshKg9MytckXQkJipH/FhXNbyIIa87KkSQ40KqYkEn6kECmmSAqj6OksUlGOI0b1hQTYRK36w7BSoIGfSJX1Zo4DDgPXksCzEOL0Ml0TbBAD00fdIdQRimxyjflgQmwNJjgJCF2TPJbVwhbfYhVlICmmwTUiCdCkgTUipsroP2+SUidFarOp1ETqPIwKa5T3rVEOyvUEu2EtZYo2LGahF7x1RLtmFQRaKtJZhuBy7tjUqXp1Fmh0nTs1FIt0U61biOwvkqnM09KmBAFgeA4bnQ1GPKeBYspL2G/2UbRONPYd/My4Kzc2W+sXDs8ZJi6xnjCmQDjSWMACipsG7EM3OXqIS5puMI0Jpa5Dk5Z4LSpROrcMuHcm3TFiSQoArMDyWo1HAR44gmlHLxK+Oj4edL8PGn+VydNU1ak7hhjs4CjrqaXVr8abiQcpomsgKODBMNJwC0UHzkBJzBwNOAe2y7haENpwNGJpoKbpZWvi4xZ2uC6uJuFvy6rXO/Y1W13fR04P/y7VnwZD4f5VvL2f3kNya/mK0x6/AM=);lineShape=1;strokeColor=#562BFF;" vertex="1" parent="1">
          <mxGeometry x="-717.4235097484557" y="900.2700001666717" width="1635.6578825097315" height="91.41253289626975" as="geometry" />
        </mxCell>
        <mxCell id="_RY1uGZdvzKGK2o-vaD--117" value="" style="shape=stencil(lZbdUttADIWfxrdnpNX+XlN4D2YIjYc0YUKg5e3R1mOIlkSd3vnv88pHR8c7yc3L9v55MwV6OR0PT5vf88NpO8mPKYR5v90c55MeTXI7yc3j4bj5eTy87h+W8+f7/mQ/+nV462/4s3CNUEKnAr0vV2JCan+v3C3Abt6fAxmlGCAJWnWAhsoGyIKaXSCJAUoEeyUltGyAqis4QG2IFmiMFh1AVbIltYLE14FCyFYlJgLRdSITJNolGtiRKRGq7ZzqQE4jooBtI2oFO4BUkAVK84EMsrrmBhIHKGMjUkV1VIphXCGqW5zO6W1pFggITklaQK4G0CKzs0KuaMkCGSE53lARrZlU6OB8dG+TXUFbGfyBoGFG6V8zykPjCLFcB87c/OkNWoPh8hI6MBbQofJa3UdysGtbX3FZJh36YUg1GJySeqzYkr6i53KrBeXbjFYnBjQa6wBofHozmhCHoVZZHTN1QP4HkDima09Dx0whrm7+BBKyE0yc1rQ+i43ofHRBtW4tDHHaEMYwzrym7cXn1ar2AxKvKXLteWuLSODg1ZNsYgRfUc0TWz831xQcR4GYkZweBxmBBHEmRz0x/Bm0AY6garpBofHfpgdfO47HebdbNizn98cdil5adjdy+wE=);lineShape=1;strokeColor=#562BFF;" vertex="1" parent="1">
          <mxGeometry x="1348.4860646592515" y="-161.58181109592738" width="2.958379694397509" height="2.9674550136526117" as="geometry" />
        </mxCell>
      </root>
    </mxGraphModel>
  </diagram>
  <diagram id="nBSN5Wv5YNyFAAQeY95F" name="Página-3">
    <mxGraphModel dx="3101" dy="1924" grid="0" gridSize="10" guides="1" tooltips="1" connect="1" arrows="1" fold="1" page="0" pageScale="1" pageWidth="827" pageHeight="1169" math="0" shadow="0">
      <root>
        <mxCell id="0" />
        <mxCell id="1" parent="0" />
        <mxCell id="T-3CPy1JLOX7rXjsRdWu-1" value="Proveedores" style="rounded=0;whiteSpace=wrap;html=1;" vertex="1" parent="1">
          <mxGeometry x="-960" y="-210" width="120" height="60" as="geometry" />
        </mxCell>
        <mxCell id="T-3CPy1JLOX7rXjsRdWu-2" value="articulos" style="rounded=0;whiteSpace=wrap;html=1;" vertex="1" parent="1">
          <mxGeometry x="-580.5" y="-205" width="120" height="60" as="geometry" />
        </mxCell>
        <mxCell id="T-3CPy1JLOX7rXjsRdWu-3" value="ventas" style="rounded=0;whiteSpace=wrap;html=1;" vertex="1" parent="1">
          <mxGeometry x="-408.5" y="-362" width="120" height="60" as="geometry" />
        </mxCell>
        <mxCell id="T-3CPy1JLOX7rXjsRdWu-4" value="Entregas" style="rounded=0;whiteSpace=wrap;html=1;" vertex="1" parent="1">
          <mxGeometry x="-405.5" y="-476" width="120" height="60" as="geometry" />
        </mxCell>
        <mxCell id="T-3CPy1JLOX7rXjsRdWu-5" value="detalle de venta" style="rounded=0;whiteSpace=wrap;html=1;" vertex="1" parent="1">
          <mxGeometry x="-591.5" y="-343" width="120" height="60" as="geometry" />
        </mxCell>
        <mxCell id="T-3CPy1JLOX7rXjsRdWu-6" value="articulosXprovedoores" style="rounded=0;whiteSpace=wrap;html=1;" vertex="1" parent="1">
          <mxGeometry x="-789.5" y="-202" width="158" height="60" as="geometry" />
        </mxCell>
        <mxCell id="T-3CPy1JLOX7rXjsRdWu-7" value="" style="edgeStyle=entityRelationEdgeStyle;fontSize=12;html=1;endArrow=ERoneToMany;rounded=0;startSize=8;endSize=8;curved=1;entryX=1.008;entryY=0.617;entryDx=0;entryDy=0;entryPerimeter=0;exitX=-0.033;exitY=0.65;exitDx=0;exitDy=0;exitPerimeter=0;" edge="1" parent="1" source="T-3CPy1JLOX7rXjsRdWu-3" target="T-3CPy1JLOX7rXjsRdWu-5">
          <mxGeometry width="100" height="100" relative="1" as="geometry">
            <mxPoint x="-405.5" y="-495.5" as="sourcePoint" />
            <mxPoint x="-505.5" y="-473" as="targetPoint" />
          </mxGeometry>
        </mxCell>
        <mxCell id="T-3CPy1JLOX7rXjsRdWu-8" value="" style="edgeStyle=entityRelationEdgeStyle;fontSize=12;html=1;endArrow=ERoneToMany;rounded=0;startSize=8;endSize=8;curved=1;exitX=0.5;exitY=0;exitDx=0;exitDy=0;entryX=0.442;entryY=1;entryDx=0;entryDy=0;entryPerimeter=0;" edge="1" parent="1" source="T-3CPy1JLOX7rXjsRdWu-2" target="T-3CPy1JLOX7rXjsRdWu-5">
          <mxGeometry width="100" height="100" relative="1" as="geometry">
            <mxPoint x="-571.5" y="-347" as="sourcePoint" />
            <mxPoint x="-574.5" y="-449" as="targetPoint" />
            <Array as="points">
              <mxPoint x="-591.5" y="-405" />
              <mxPoint x="-589.5" y="-373" />
              <mxPoint x="-572.5" y="-384" />
              <mxPoint x="-580.5" y="-382" />
              <mxPoint x="-551.5" y="-373" />
              <mxPoint x="-593.5" y="-363" />
              <mxPoint x="-582.5" y="-403" />
            </Array>
          </mxGeometry>
        </mxCell>
        <mxCell id="T-3CPy1JLOX7rXjsRdWu-10" value="&lt;h1&gt;&lt;font style=&quot;font-size: 18px;&quot; color=&quot;#ff4ddb&quot;&gt;D.E.R&lt;/font&gt;&lt;/h1&gt;" style="text;html=1;align=center;verticalAlign=middle;resizable=0;points=[];autosize=1;strokeColor=none;fillColor=none;fontSize=16;" vertex="1" parent="1">
          <mxGeometry x="-917.75" y="-632" width="66" height="93" as="geometry" />
        </mxCell>
        <mxCell id="T-3CPy1JLOX7rXjsRdWu-11" value="&lt;h1&gt;&lt;font style=&quot;font-size: 17px;&quot; color=&quot;#ff30d6&quot;&gt;Diccionario de datos&lt;/font&gt;&lt;/h1&gt;" style="text;html=1;align=center;verticalAlign=middle;resizable=0;points=[];autosize=1;strokeColor=none;fillColor=none;fontSize=16;" vertex="1" parent="1">
          <mxGeometry x="-622.75" y="-155" width="185" height="93" as="geometry" />
        </mxCell>
        <mxCell id="T-3CPy1JLOX7rXjsRdWu-12" value="&lt;b&gt;Proveedores&lt;/b&gt;" style="text;html=1;align=center;verticalAlign=middle;resizable=0;points=[];autosize=1;strokeColor=none;fillColor=none;fontSize=16;" vertex="1" parent="1">
          <mxGeometry x="-981" y="-69" width="115" height="31" as="geometry" />
        </mxCell>
        <mxCell id="T-3CPy1JLOX7rXjsRdWu-13" value="&lt;div&gt;&lt;br&gt;&lt;/div&gt;&lt;u&gt;codProve_pr&lt;/u&gt;&lt;div&gt;&lt;u&gt;&lt;br&gt;&lt;/u&gt;&lt;div&gt;razonSolcial_pr&lt;div&gt;email_pr&lt;/div&gt;&lt;div&gt;telefono_pr&lt;/div&gt;&lt;div&gt;personaContacto_pr&lt;/div&gt;&lt;div&gt;direccion_pr&lt;/div&gt;&lt;div&gt;&lt;span style=&quot;background-color: initial;&quot;&gt;ciudad_pr&lt;/span&gt;&lt;br&gt;&lt;/div&gt;&lt;div&gt;&lt;span style=&quot;background-color: initial;&quot;&gt;pais_pr&lt;/span&gt;&lt;/div&gt;&lt;/div&gt;&lt;/div&gt;" style="text;html=1;align=left;verticalAlign=middle;resizable=0;points=[];autosize=1;strokeColor=none;fillColor=none;fontSize=16;" vertex="1" parent="1">
          <mxGeometry x="-973.5" y="-52" width="163" height="204" as="geometry" />
        </mxCell>
        <mxCell id="T-3CPy1JLOX7rXjsRdWu-14" value="&lt;b&gt;Articulos&lt;/b&gt;" style="text;html=1;align=center;verticalAlign=middle;resizable=0;points=[];autosize=1;strokeColor=none;fillColor=none;fontSize=16;" vertex="1" parent="1">
          <mxGeometry x="-582.5" y="-62.5" width="87" height="31" as="geometry" />
        </mxCell>
        <mxCell id="T-3CPy1JLOX7rXjsRdWu-16" value="&lt;div&gt;&lt;u&gt;codigoArticulo_ar&lt;/u&gt;&lt;br&gt;&lt;/div&gt;&lt;div&gt;&lt;u&gt;&lt;br&gt;&lt;/u&gt;&lt;/div&gt;nombre_ar&lt;div&gt;descripcion_ar&lt;/div&gt;&lt;div&gt;precioUnitario_ar&lt;/div&gt;&lt;div&gt;stock_ar&lt;/div&gt;" style="text;html=1;align=left;verticalAlign=middle;resizable=0;points=[];autosize=1;strokeColor=none;fillColor=none;fontSize=16;" vertex="1" parent="1">
          <mxGeometry x="-601" y="-31.5" width="142" height="127" as="geometry" />
        </mxCell>
        <mxCell id="T-3CPy1JLOX7rXjsRdWu-17" value="&lt;b&gt;ventas&lt;/b&gt;" style="text;html=1;align=center;verticalAlign=middle;resizable=0;points=[];autosize=1;strokeColor=none;fillColor=none;fontSize=16;" vertex="1" parent="1">
          <mxGeometry x="-149.5" y="-69" width="69" height="31" as="geometry" />
        </mxCell>
        <mxCell id="T-3CPy1JLOX7rXjsRdWu-18" value="" style="edgeStyle=entityRelationEdgeStyle;fontSize=12;html=1;endArrow=ERoneToMany;rounded=0;startSize=8;endSize=8;curved=1;entryX=0;entryY=0.5;entryDx=0;entryDy=0;exitX=0.988;exitY=0.633;exitDx=0;exitDy=0;exitPerimeter=0;" edge="1" parent="1" source="T-3CPy1JLOX7rXjsRdWu-1" target="T-3CPy1JLOX7rXjsRdWu-6">
          <mxGeometry width="100" height="100" relative="1" as="geometry">
            <mxPoint x="-831.5" y="-168" as="sourcePoint" />
            <mxPoint x="-812.5" y="-58" as="targetPoint" />
            <Array as="points">
              <mxPoint x="-781.5" y="-228" />
            </Array>
          </mxGeometry>
        </mxCell>
        <mxCell id="T-3CPy1JLOX7rXjsRdWu-19" value="" style="edgeStyle=entityRelationEdgeStyle;fontSize=12;html=1;endArrow=ERoneToMany;rounded=0;startSize=8;endSize=8;curved=1;entryX=1;entryY=0.75;entryDx=0;entryDy=0;exitX=0;exitY=0.5;exitDx=0;exitDy=0;" edge="1" parent="1" source="T-3CPy1JLOX7rXjsRdWu-2" target="T-3CPy1JLOX7rXjsRdWu-6">
          <mxGeometry width="100" height="100" relative="1" as="geometry">
            <mxPoint x="-571.5" y="-181" as="sourcePoint" />
            <mxPoint x="-619.5" y="-172" as="targetPoint" />
          </mxGeometry>
        </mxCell>
        <mxCell id="T-3CPy1JLOX7rXjsRdWu-20" value="&lt;u&gt;numFactura_ve&lt;/u&gt;&lt;div&gt;codProve_ve&lt;/div&gt;&lt;div&gt;&lt;br&gt;&lt;/div&gt;&lt;div&gt;fecha&lt;/div&gt;&lt;div&gt;total&lt;/div&gt;" style="text;html=1;align=left;verticalAlign=middle;resizable=0;points=[];autosize=1;strokeColor=none;fillColor=none;fontSize=16;" vertex="1" parent="1">
          <mxGeometry x="-171" y="-47.5" width="129" height="108" as="geometry" />
        </mxCell>
        <mxCell id="T-3CPy1JLOX7rXjsRdWu-21" value="&lt;b&gt;Entragas&lt;/b&gt;" style="text;html=1;align=center;verticalAlign=middle;resizable=0;points=[];autosize=1;strokeColor=none;fillColor=none;fontSize=16;" vertex="1" parent="1">
          <mxGeometry x="-973.5" y="211" width="86" height="31" as="geometry" />
        </mxCell>
        <mxCell id="T-3CPy1JLOX7rXjsRdWu-22" value="&lt;div&gt;&lt;u&gt;numeroEntrega_ent&lt;/u&gt;&lt;br&gt;&lt;/div&gt;&lt;div&gt;&lt;u&gt;numFactura_ent&lt;/u&gt;&lt;/div&gt;&lt;div&gt;codProv_ent&lt;/div&gt;&lt;div&gt;&lt;br&gt;&lt;/div&gt;nombre_ent&lt;div&gt;apellido_ent&lt;/div&gt;&lt;div&gt;&lt;span style=&quot;background-color: initial;&quot;&gt;direcconEntrega_ent&lt;/span&gt;&lt;br&gt;&lt;/div&gt;&lt;div&gt;&lt;br&gt;&lt;/div&gt;&lt;div&gt;&lt;br&gt;&lt;/div&gt;" style="text;html=1;align=left;verticalAlign=middle;resizable=0;points=[];autosize=1;strokeColor=none;fillColor=none;fontSize=16;" vertex="1" parent="1">
          <mxGeometry x="-973.5" y="242" width="166" height="185" as="geometry" />
        </mxCell>
        <mxCell id="T-3CPy1JLOX7rXjsRdWu-24" value="" style="rounded=0;whiteSpace=wrap;html=1;" vertex="1" parent="1">
          <mxGeometry x="-219.5" y="-480" width="120" height="60" as="geometry" />
        </mxCell>
        <mxCell id="T-3CPy1JLOX7rXjsRdWu-23" value="formaPago" style="text;html=1;align=center;verticalAlign=middle;resizable=0;points=[];autosize=1;strokeColor=none;fillColor=none;fontSize=16;" vertex="1" parent="1">
          <mxGeometry x="-212.5" y="-470" width="96" height="31" as="geometry" />
        </mxCell>
        <mxCell id="T-3CPy1JLOX7rXjsRdWu-25" value="&lt;b&gt;formaPago&lt;/b&gt;" style="text;html=1;align=center;verticalAlign=middle;resizable=0;points=[];autosize=1;strokeColor=none;fillColor=none;fontSize=16;" vertex="1" parent="1">
          <mxGeometry x="-727" y="211" width="102" height="31" as="geometry" />
        </mxCell>
        <mxCell id="T-3CPy1JLOX7rXjsRdWu-26" value="&lt;div style=&quot;text-align: left;&quot;&gt;&lt;div&gt;&lt;span style=&quot;background-color: initial;&quot;&gt;nuemeroEntrega_fp&lt;/span&gt;&lt;/div&gt;&lt;div&gt;&lt;span style=&quot;background-color: initial;&quot;&gt;&lt;br&gt;&lt;/span&gt;&lt;/div&gt;&lt;div&gt;&lt;span style=&quot;background-color: initial;&quot;&gt;formaPago_fp&lt;/span&gt;&lt;br&gt;&lt;/div&gt;&lt;/div&gt;&lt;div style=&quot;text-align: left;&quot;&gt;&lt;span style=&quot;background-color: initial;&quot;&gt;num_targeta_fp&lt;/span&gt;&lt;br&gt;&lt;/div&gt;&lt;div&gt;&lt;div style=&quot;text-align: left;&quot;&gt;&lt;span style=&quot;background-color: initial;&quot;&gt;mercadoPAgo_fp&lt;/span&gt;&lt;/div&gt;&lt;div&gt;&lt;br&gt;&lt;/div&gt;&lt;/div&gt;" style="text;html=1;align=center;verticalAlign=middle;resizable=0;points=[];autosize=1;strokeColor=none;fillColor=none;fontSize=16;" vertex="1" parent="1">
          <mxGeometry x="-748" y="251" width="159" height="127" as="geometry" />
        </mxCell>
        <mxCell id="T-3CPy1JLOX7rXjsRdWu-27" value="&lt;b&gt;DetalleVentas&lt;/b&gt;" style="text;html=1;align=center;verticalAlign=middle;resizable=0;points=[];autosize=1;strokeColor=none;fillColor=none;fontSize=16;" vertex="1" parent="1">
          <mxGeometry x="-399.5" y="-69" width="122" height="31" as="geometry" />
        </mxCell>
        <mxCell id="T-3CPy1JLOX7rXjsRdWu-28" value="numFactura_detven&lt;div&gt;codigoArticulo_detven&lt;/div&gt;&lt;div&gt;&lt;br&gt;&lt;/div&gt;&lt;div&gt;cantidad_detven&lt;/div&gt;&lt;div&gt;precio_detven&lt;/div&gt;&lt;div&gt;&lt;br&gt;&lt;/div&gt;" style="text;html=1;align=left;verticalAlign=middle;resizable=0;points=[];autosize=1;strokeColor=none;fillColor=none;fontSize=16;" vertex="1" parent="1">
          <mxGeometry x="-406" y="-31.5" width="175" height="127" as="geometry" />
        </mxCell>
        <mxCell id="T-3CPy1JLOX7rXjsRdWu-29" value="" style="edgeStyle=entityRelationEdgeStyle;fontSize=12;html=1;endArrow=ERoneToMany;rounded=0;startSize=8;endSize=8;curved=1;exitX=1;exitY=0.5;exitDx=0;exitDy=0;entryX=0;entryY=0.5;entryDx=0;entryDy=0;" edge="1" parent="1" source="T-3CPy1JLOX7rXjsRdWu-4" target="T-3CPy1JLOX7rXjsRdWu-24">
          <mxGeometry width="100" height="100" relative="1" as="geometry">
            <mxPoint x="-542.5" y="-501" as="sourcePoint" />
            <mxPoint x="-339.5" y="-541" as="targetPoint" />
          </mxGeometry>
        </mxCell>
        <mxCell id="T-3CPy1JLOX7rXjsRdWu-30" value="" style="edgeStyle=entityRelationEdgeStyle;fontSize=12;html=1;endArrow=ERoneToMany;rounded=0;startSize=8;endSize=8;curved=1;exitX=0.5;exitY=1;exitDx=0;exitDy=0;entryX=0.558;entryY=0.017;entryDx=0;entryDy=0;entryPerimeter=0;" edge="1" parent="1" source="T-3CPy1JLOX7rXjsRdWu-4" target="T-3CPy1JLOX7rXjsRdWu-3">
          <mxGeometry width="100" height="100" relative="1" as="geometry">
            <mxPoint x="-180.5" y="-488" as="sourcePoint" />
            <mxPoint x="-80.5" y="-588" as="targetPoint" />
          </mxGeometry>
        </mxCell>
        <mxCell id="T-3CPy1JLOX7rXjsRdWu-32" value="&lt;h1&gt;&lt;font style=&quot;font-size: 17px;&quot; color=&quot;#ff4fc4&quot;&gt;consultas SQL&lt;/font&gt;&lt;/h1&gt;" style="text;html=1;align=center;verticalAlign=middle;resizable=0;points=[];autosize=1;strokeColor=none;fillColor=none;fontSize=16;" vertex="1" parent="1">
          <mxGeometry x="-571.5" y="384" width="137" height="93" as="geometry" />
        </mxCell>
        <mxCell id="T-3CPy1JLOX7rXjsRdWu-34" value="&lt;b&gt;ArticulosXproveedores&lt;/b&gt;" style="text;html=1;align=center;verticalAlign=middle;resizable=0;points=[];autosize=1;strokeColor=none;fillColor=none;fontSize=16;" vertex="1" parent="1">
          <mxGeometry x="-810.5" y="-62.5" width="194" height="31" as="geometry" />
        </mxCell>
        <mxCell id="T-3CPy1JLOX7rXjsRdWu-35" value="codProv_aXp&lt;div&gt;codigoArticulo_aXp&lt;/div&gt;" style="text;html=1;align=left;verticalAlign=middle;resizable=0;points=[];autosize=1;strokeColor=none;fillColor=none;fontSize=16;" vertex="1" parent="1">
          <mxGeometry x="-800" y="-16" width="156" height="50" as="geometry" />
        </mxCell>
        <mxCell id="T-3CPy1JLOX7rXjsRdWu-37" value="1. Informe todos los modelos registrados de una determinada marca.&lt;div&gt;&lt;br&gt;&lt;div&gt;&lt;b&gt;SELECT&lt;/b&gt;&amp;nbsp; MODELOS.Modelo_MO &lt;b&gt;FROM&lt;/b&gt;&amp;nbsp; MODELOS &lt;b&gt;WHERE&lt;/b&gt;&amp;nbsp; MODELOS.Cod_Marca_MO &lt;b&gt;=&lt;/b&gt; 01&lt;/div&gt;&lt;/div&gt;&lt;div&gt;&lt;br&gt;&lt;/div&gt;&lt;div&gt;&lt;div&gt;2. Informe los nombres de los talleres oficiales cuyas marcas comiencen con cualquier&amp;nbsp;&lt;/div&gt;&lt;div&gt;carácter individual, posteriormente una vocal, seguida de una consonante, y cualquier&amp;nbsp;&lt;/div&gt;&lt;div&gt;cadena de caracteres.&lt;/div&gt;&lt;/div&gt;&lt;div&gt;&lt;br&gt;&lt;/div&gt;&lt;div&gt;&lt;div&gt;&lt;b&gt;SELECT&lt;/b&gt;&amp;nbsp;MARCAS.Taller_Oficial_MA&amp;nbsp;&amp;nbsp;&lt;b&gt;FROM&lt;/b&gt;&amp;nbsp; MARCAS&amp;nbsp;&lt;b&gt;WHERE&lt;/b&gt;&amp;nbsp; MARCAS.&lt;span style=&quot;background-color: initial;&quot;&gt;Marca_MA&amp;nbsp; &#39;&lt;b&gt;[ A-Z][AEIOU][^AEIOU]%&lt;/b&gt;&lt;/span&gt;&lt;/div&gt;&lt;div&gt;&lt;span style=&quot;background-color: initial;&quot;&gt;&lt;b&gt;&lt;br&gt;&lt;/b&gt;&lt;/span&gt;&lt;/div&gt;&lt;div&gt;&lt;span style=&quot;background-color: initial;&quot;&gt;&lt;div style=&quot;&quot;&gt;3. Informe el nombre de las marcas (Marca_MA) que posean móviles dados de baja.&lt;/div&gt;&lt;div style=&quot;&quot;&gt;&lt;br&gt;&lt;/div&gt;&lt;div style=&quot;&quot;&gt;&lt;span style=&quot;font-weight: bold;&quot;&gt;SELECT&amp;nbsp; &amp;nbsp;&amp;nbsp;&lt;/span&gt;&lt;span style=&quot;background-color: initial;&quot;&gt;MARCAS.&lt;/span&gt;&lt;span style=&quot;background-color: initial;&quot;&gt;Marca_MA&amp;nbsp;&amp;nbsp;&lt;/span&gt;&lt;b style=&quot;background-color: initial;&quot;&gt;FROM &lt;/b&gt;&lt;span style=&quot;background-color: initial;&quot;&gt;MARCAS &lt;b&gt;INNER JOIN&amp;nbsp;&amp;nbsp;&lt;/b&gt;MOVILES&amp;nbsp;&lt;/span&gt;&lt;/div&gt;&lt;div style=&quot;&quot;&gt;&lt;span style=&quot;background-color: initial;&quot;&gt;&lt;b&gt;ON&amp;nbsp;&lt;/b&gt;&lt;/span&gt;&lt;span style=&quot;background-color: initial;&quot;&gt;MARCAS.&lt;/span&gt;&lt;span style=&quot;background-color: initial;&quot;&gt;Cod_Marca_MA&amp;nbsp;&lt;b&gt;=&amp;nbsp;&lt;/b&gt;&lt;/span&gt;&lt;span style=&quot;background-color: initial;&quot;&gt;MOVILES&lt;/span&gt;&lt;span style=&quot;background-color: initial;&quot;&gt;&amp;nbsp;.&lt;/span&gt;&lt;span style=&quot;background-color: initial;&quot;&gt;Cod_Marca_MV&lt;/span&gt;&lt;/div&gt;&lt;div style=&quot;&quot;&gt;&lt;b&gt;WHERE&amp;nbsp; &lt;/b&gt;MOVILES.&lt;span style=&quot;background-color: initial;&quot;&gt;Baja_MV &lt;b&gt;=&lt;/b&gt; &#39;FALSE&#39;&lt;/span&gt;&lt;/div&gt;&lt;/span&gt;&lt;/div&gt;&lt;div&gt;&lt;span style=&quot;background-color: initial;&quot;&gt;&lt;b&gt;&lt;br&gt;&lt;/b&gt;&lt;/span&gt;&lt;/div&gt;&lt;div&gt;&lt;div&gt;4. Informe la cantidad de móviles, por marca y modelo (agrupados por marca y modelo).&lt;/div&gt;&lt;div&gt;El resultado de la consulta debe ser: MARCA, MODELO, CANTIDAD&lt;/div&gt;&lt;/div&gt;&lt;/div&gt;&lt;div&gt;&lt;br&gt;&lt;/div&gt;&lt;div&gt;&lt;b&gt;SELECT &lt;/b&gt;&lt;span style=&quot;background-color: initial;&quot;&gt;&lt;b&gt;&amp;nbsp;COUNT (*) AS&lt;/b&gt;&amp;nbsp;(CANTIDAD), MARCA.&lt;/span&gt;&lt;span style=&quot;background-color: initial;&quot;&gt;Marca_MA , MODELO.Modelo_MO &lt;b&gt;FROM &lt;/b&gt;MARCAS INNER JOIN MODELOS&lt;/span&gt;&lt;/div&gt;&lt;div&gt;&lt;span style=&quot;background-color: initial;&quot;&gt;&lt;b&gt;ON &lt;/b&gt;MARCAS.&lt;/span&gt;&lt;span style=&quot;background-color: initial;&quot;&gt;Cod_Marca_MA=&lt;/span&gt;&lt;span style=&quot;background-color: initial;&quot;&gt;MODELOS.&lt;/span&gt;&lt;span style=&quot;background-color: initial;&quot;&gt;&amp;nbsp;Cod_Marca_MO&lt;/span&gt;&lt;/div&gt;&lt;div&gt;&lt;span style=&quot;background-color: initial;&quot;&gt;&lt;b&gt;INNER JOIN&lt;/b&gt;&amp;nbsp;&lt;/span&gt;&lt;span style=&quot;background-color: initial;&quot;&gt;MOVILES&lt;/span&gt;&lt;/div&gt;&lt;div&gt;&lt;span style=&quot;background-color: initial;&quot;&gt;&lt;b&gt;ON&amp;nbsp;&amp;nbsp;&lt;/b&gt;&lt;/span&gt;&lt;span style=&quot;background-color: initial;&quot;&gt;MOVILES.&lt;/span&gt;&lt;span style=&quot;background-color: initial;&quot;&gt;Cod_Marca_MV=&lt;/span&gt;&lt;span style=&quot;background-color: initial;&quot;&gt;MODELOS.&lt;/span&gt;&lt;span style=&quot;background-color: initial;&quot;&gt;&amp;nbsp;Cod_Marca_MO&lt;/span&gt;&lt;/div&gt;&lt;div&gt;&lt;br&gt;&lt;/div&gt;&lt;div&gt;&lt;b&gt;GROUP BY&lt;/b&gt;&amp;nbsp;&lt;span style=&quot;background-color: initial;&quot;&gt;MARCA.&lt;/span&gt;&lt;span style=&quot;background-color: initial;&quot;&gt;Marca_MA , MODELO.Modelo_MO&lt;/span&gt;&lt;span style=&quot;background-color: initial;&quot;&gt;&lt;br&gt;&lt;/span&gt;&lt;/div&gt;&lt;div&gt;&lt;span style=&quot;background-color: initial;&quot;&gt;&lt;br&gt;&lt;/span&gt;&lt;/div&gt;&lt;div&gt;&lt;br&gt;&lt;/div&gt;" style="text;html=1;align=left;verticalAlign=middle;resizable=0;points=[];autosize=1;strokeColor=none;fillColor=none;fontSize=16;" vertex="1" parent="1">
          <mxGeometry x="-1016.5" y="446" width="917" height="530" as="geometry" />
        </mxCell>
      </root>
    </mxGraphModel>
  </diagram>
</mxfile>
